<?xml version="1.0" standalone="no"?>
<!DOCTYPE svg PUBLIC "-//W3C//DTD SVG 20010904//EN"
    "http://www.w3.org/TR/2001/REC-SVG-20010904/DTD/svg10.dtd">
<svg version="1.0" xmlns="http://www.w3.org/2000/svg"
    width="1152.000000pt" height="576.000000pt" viewBox="0 0 1152.000000 576.000000"
    preserveAspectRatio="xMidYMid meet">

    <g transform="translate(0.000000,576.000000) scale(0.100000,-0.100000)"
        fill="#000000" stroke="none">
        <path d="M0 3290 l0 -2470 3708 0 3708 0 33 82 c32 80 57 139 86 203 7 17 20
46 28 65 50 122 258 548 331 678 164 292 368 602 597 907 70 92 275 351 315
395 17 19 73 82 124 140 189 213 510 521 750 721 75 62 273 220 302 241 12 9
70 51 128 94 101 75 355 247 456 309 27 16 85 51 129 78 177 109 706 384 808
420 16 6 17 30 17 307 l0 300 -5760 0 -5760 0 0 -2470z m4500 1866 c159 -27
237 -49 400 -112 362 -140 658 -379 902 -727 15 -22 21 -23 65 -16 26 5 100
15 163 24 63 9 122 18 130 20 19 6 213 34 288 42 77 8 77 4 -33 -252 -7 -16
-34 -83 -60 -148 l-48 -118 20 -22 c11 -12 64 -76 119 -142 54 -66 105 -126
112 -133 7 -8 24 -29 38 -47 43 -57 27 -68 -113 -82 -170 -16 -234 -23 -270
-29 l-33 -5 0 -212 c0 -229 -2 -237 -51 -237 -35 0 -38 -5 -54 -98 -28 -158
-68 -275 -151 -447 -64 -132 -73 -147 -146 -251 -221 -315 -486 -529 -863
-695 -102 -44 -337 -104 -485 -123 -264 -34 -514 -12 -795 69 -98 28 -137 43
-284 112 -226 106 -494 318 -647 514 -45 56 -51 60 -79 54 -16 -4 -75 -13
-130 -20 -55 -8 -145 -21 -200 -29 -55 -8 -169 -24 -253 -36 -88 -13 -157 -19
-162 -14 -7 8 16 78 59 179 18 41 35 83 77 190 24 61 49 118 55 128 10 18 2
35 -36 72 -9 9 -41 47 -165 200 -19 23 -52 63 -73 87 -20 25 -37 50 -37 56 0
15 7 16 245 44 l200 24 0 249 0 250 30 9 c17 5 35 10 40 11 6 2 17 38 24 81
22 135 59 274 97 361 8 17 14 35 14 39 0 19 118 246 165 319 195 297 457 531
770 685 135 67 163 78 325 125 98 28 183 45 345 69 64 9 394 -3 485 -18z"/>
        <path d="M3915 4930 c-403 -69 -761 -273 -1013 -575 -129 -154 -226 -318 -296
-502 -37 -98 -91 -302 -81 -311 6 -6 103 6 265 33 52 9 136 22 185 30 81 12
186 28 450 71 50 8 137 21 195 29 57 8 111 17 120 20 8 2 62 12 120 20 58 9
148 23 200 31 52 8 124 19 160 25 36 5 103 16 150 24 77 14 464 75 695 110 50
8 131 21 180 29 309 50 365 58 408 63 26 3 47 8 47 12 0 4 -21 42 -47 86 -158
272 -408 503 -698 648 -168 84 -337 137 -533 166 -109 17 -389 12 -507 -9z
m341 -71 c19 -21 18 -21 -5 -40 -24 -20 -25 -20 -45 0 -19 20 -19 21 -1 41 23
25 27 25 51 -1z m-141 -18 c0 -32 -28 -49 -49 -32 -19 16 -21 47 -3 55 28 11
52 1 52 -23z m290 -11 c0 -20 -6 -26 -28 -28 -18 -2 -29 2 -33 12 -11 28 4 48
33 44 22 -2 28 -8 28 -28z m-429 5 c8 -20 -13 -45 -38 -45 -21 0 -33 22 -24
45 7 20 55 19 62 0z m573 -19 c5 -28 -26 -48 -50 -33 -19 12 -25 38 -12 51 14
14 58 1 62 -18z m-713 -11 c14 -35 -41 -60 -66 -30 -10 12 -10 18 0 30 16 19
59 19 66 0z m852 -38 c-4 -28 -46 -30 -62 -4 -9 15 -7 21 8 32 25 19 58 2 54
-28z m-992 -2 c8 -20 -13 -45 -38 -45 -21 0 -33 22 -24 45 7 20 55 19 62 0z
m1115 -15 c23 -13 25 -33 4 -50 -21 -17 -55 -3 -55 24 0 37 16 44 51 26z
m-1256 -55 c0 -23 -5 -31 -22 -33 -31 -5 -49 31 -27 53 25 25 49 15 49 -20z
m1390 -9 c21 -15 15 -43 -11 -53 -23 -8 -48 20 -39 46 7 24 23 27 50 7z
m-1510 -43 c8 -21 -29 -55 -50 -46 -15 5 -21 44 -8 56 13 14 51 7 58 -10z
m1636 -29 c14 -13 16 -21 8 -35 -11 -22 -39 -25 -57 -7 -16 16 -15 23 4 42 19
20 23 20 45 0z m-1765 -38 c15 -12 17 -18 8 -33 -14 -24 -47 -28 -64 -8 -11
13 -10 19 5 35 22 24 25 24 51 6z m1639 -71 l0 -50 -75 -6 c-135 -11 -193 -64
-192 -175 1 -94 41 -138 123 -132 l44 3 3 76 3 77 52 10 c29 5 54 9 57 7 3 -2
4 -55 2 -118 l-3 -116 -65 -21 c-90 -30 -188 -30 -242 2 -63 36 -87 92 -87
203 0 80 3 95 27 135 65 110 169 162 313 156 l40 -1 0 -50z m255 0 c0 -24 -27
-37 -49 -25 -26 13 -27 45 -4 59 19 10 53 -11 53 -34z m-2010 -20 c20 -24 3
-57 -28 -53 -32 4 -40 29 -17 52 20 20 29 20 45 1z m1317 -122 c-4 -75 -7
-187 -7 -250 l0 -113 -36 0 c-19 0 -44 -5 -55 -10 -15 -8 -21 -7 -25 3 -3 8
-2 122 3 253 l8 239 45 6 c25 3 51 7 59 7 12 2 13 -20 8 -135z m-229 70 c48
-30 55 -132 13 -177 l-22 -23 32 -34 c29 -31 31 -37 27 -91 -8 -106 -66 -141
-282 -168 -49 -6 -93 -12 -98 -13 -11 -3 -11 474 1 486 12 12 241 45 276 39
17 -2 40 -11 53 -19z m1020 5 c19 -19 14 -46 -8 -53 -22 -7 -50 9 -50 29 0 15
20 36 35 36 6 0 16 -5 23 -12z m-2209 -57 c13 -24 -8 -55 -35 -49 -23 4 -30
33 -14 53 17 20 37 19 49 -4z m2309 -43 c17 -17 15 -43 -4 -59 -14 -11 -19
-10 -35 10 -30 37 6 82 39 49z m-2400 -75 c4 -28 -32 -50 -54 -32 -17 14 -18
31 -2 47 19 19 53 10 56 -15z m2497 -63 c0 -30 -33 -40 -51 -15 -19 25 -6 47
25 43 20 -2 26 -8 26 -28z m-1745 -39 c0 -27 -3 -29 -57 -36 -76 -9 -83 -13
-83 -42 0 -25 1 -26 60 -19 l60 7 0 -29 c0 -28 -3 -30 -57 -38 -54 -8 -58 -11
-61 -38 l-4 -29 54 6 c29 3 61 8 71 12 14 6 17 1 17 -29 0 -20 -4 -36 -9 -36
-19 0 -166 -21 -184 -26 -16 -5 -17 5 -15 148 l3 153 70 11 c39 6 85 12 103
13 29 1 32 -2 32 -28z m-852 7 c18 -18 14 -46 -7 -58 -15 -7 -23 -6 -35 6 -20
19 -20 23 1 46 19 21 25 22 41 6z m593 -164 c-1 -82 -3 -149 -4 -150 -1 0 -17
-4 -34 -7 l-33 -6 0 59 0 60 -42 -6 c-56 -9 -63 -16 -59 -67 3 -47 -9 -63 -49
-69 l-25 -3 -3 148 -3 147 26 10 c51 20 56 15 52 -51 l-4 -61 46 7 c25 4 49 9
54 12 4 2 7 29 7 58 0 53 1 55 33 63 17 5 34 8 36 6 1 -1 2 -69 2 -150z m2077
104 c28 -28 -3 -83 -33 -58 -18 15 -20 56 -2 63 19 8 22 8 35 -5z m-2348 -27
c0 -31 -14 -41 -61 -41 l-29 0 0 -120 c0 -89 -3 -120 -12 -120 -7 0 -23 -3
-35 -6 -23 -6 -23 -6 -23 115 l0 121 -25 -6 c-53 -13 -60 -11 -60 21 l0 30
100 16 c145 24 145 24 145 -10z m-386 -79 c-6 -9 -20 -18 -32 -20 -29 -4 -39
33 -16 59 18 20 18 20 38 -1 16 -16 18 -24 10 -38z m-69 -93 c4 -5 4 -21 1
-35 -5 -19 -12 -25 -29 -22 -37 5 -36 68 2 68 11 0 23 -5 26 -11z m-50 -154
c0 -23 -5 -31 -21 -33 -30 -4 -48 21 -34 48 18 33 55 23 55 -15z m-46 -114
c20 -13 6 -61 -19 -61 -29 0 -44 34 -24 54 18 18 24 19 43 7z"/>
        <path d="M4084 4353 c-18 -3 -23 -14 -28 -60 -4 -31 -5 -58 -2 -60 10 -10 109
12 131 29 27 21 34 65 13 86 -11 11 -69 14 -114 5z"/>
        <path d="M4120 4163 c-72 -11 -70 -9 -70 -73 l0 -59 53 6 c94 10 137 56 102
109 -15 23 -29 26 -85 17z"/>
        <path d="M5738 3811 c-27 -4 -53 -12 -59 -18 -7 -7 -10 -72 -7 -201 2 -151 0
-188 -9 -180 -7 6 -13 16 -13 22 0 6 -29 52 -64 101 -36 50 -79 112 -98 138
-65 94 -55 88 -127 77 -36 -6 -68 -13 -73 -16 -4 -3 -8 -144 -8 -313 l0 -309
48 6 c26 2 57 9 70 13 l23 9 -2 178 c-1 97 1 178 6 180 4 2 13 -7 19 -20 7
-13 56 -83 109 -156 52 -73 97 -137 99 -143 3 -8 121 6 140 17 10 6 11 624 1
623 -5 -1 -29 -5 -55 -8z"/>
        <path d="M4867 3679 c-89 -21 -171 -89 -214 -179 -24 -49 -27 -67 -27 -165 0
-125 14 -171 76 -237 83 -89 271 -74 391 32 19 16 49 58 68 92 33 61 34 66 34
178 0 92 -4 125 -19 160 -23 52 -66 97 -113 116 -36 15 -137 17 -196 3z m123
-124 c39 -20 58 -59 66 -136 11 -115 -28 -207 -104 -240 -53 -23 -74 -24 -112
-4 -87 45 -102 258 -26 340 47 50 123 68 176 40z"/>
        <path d="M4471 3610 c-29 -5 -57 -12 -62 -17 -5 -5 -8 -140 -7 -314 l3 -305
65 11 65 10 3 313 c1 171 -1 311 -5 311 -5 -1 -32 -5 -62 -9z"/>
        <path d="M3958 3528 l-38 -10 0 -309 c0 -288 1 -309 18 -309 31 1 368 56 379
63 8 5 7 115 -2 125 -1 2 -55 -6 -120 -18 -65 -11 -122 -20 -126 -20 -5 0 -9
110 -9 245 l0 245 -32 -1 c-18 -1 -50 -6 -70 -11z"/>
        <path d="M3505 3456 l-60 -11 -3 -312 c-1 -196 1 -313 7 -313 6 0 32 4 58 9
26 6 108 20 182 31 73 12 139 24 147 27 10 4 14 23 14 64 0 32 -3 59 -7 59
-10 0 -229 -29 -245 -32 -10 -2 -14 49 -16 237 -1 132 -6 242 -10 246 -4 3
-34 1 -67 -5z"/>
        <path d="M3266 3419 c-32 -5 -61 -10 -63 -12 -2 -3 -5 -144 -6 -315 l-2 -311
45 6 c25 4 56 9 70 13 l25 6 3 312 c1 172 -1 311 -5 311 -5 -1 -35 -5 -67 -10z"/>
        <path d="M2765 3340 c-55 -10 -108 -19 -117 -19 -17 -1 -18 -23 -18 -316 l0
-314 33 5 c17 3 55 9 82 14 28 5 73 12 100 15 134 17 222 61 256 127 40 78 19
182 -41 213 l-32 17 33 34 c30 31 34 41 37 104 4 69 4 70 -31 105 -35 35 -36
35 -118 34 -46 0 -129 -9 -184 -19z m189 -106 c32 -31 14 -104 -31 -127 -15
-8 -56 -18 -90 -22 l-63 -7 0 76 c0 82 -6 75 65 89 48 11 104 6 119 -9z m10
-250 c18 -18 21 -66 6 -94 -16 -29 -47 -43 -127 -55 l-73 -12 0 83 0 83 43 4
c101 9 136 7 151 -9z"/>
        <path d="M5839 2916 c-2 -3 -49 -11 -104 -20 -55 -8 -201 -31 -325 -52 -124
-20 -263 -42 -310 -49 -100 -15 -309 -49 -435 -70 -49 -9 -121 -20 -160 -25
-38 -5 -95 -14 -125 -20 -30 -5 -140 -24 -245 -41 -183 -29 -266 -42 -467 -73
-128 -19 -400 -64 -473 -77 -33 -6 -100 -17 -150 -24 -174 -25 -310 -48 -318
-54 -11 -10 89 -157 170 -250 291 -335 657 -534 1086 -591 109 -14 333 -12
452 4 450 63 874 319 1138 688 113 158 255 471 281 621 6 32 -1 47 -15 33z
m-101 -65 c8 -4 12 -19 10 -32 -2 -18 -9 -24 -28 -24 -28 0 -39 27 -20 50 14
17 20 18 38 6z m-33 -151 c7 -23 -10 -50 -31 -50 -18 0 -33 29 -27 51 7 26 50
25 58 -1z m-555 -151 l0 -51 -42 6 c-58 9 -136 -7 -161 -33 -29 -29 -15 -39
74 -57 89 -18 119 -38 138 -91 12 -34 13 -48 2 -82 -23 -79 -115 -121 -261
-121 l-70 0 0 49 0 49 83 0 c92 -1 147 18 147 52 0 25 -9 29 -82 41 -113 18
-148 45 -151 117 -4 106 89 171 246 172 l77 0 0 -51z m498 15 c4 -25 -22 -49
-43 -40 -15 5 -21 47 -8 60 14 14 48 1 51 -20z m-828 -7 c0 -2 -36 -75 -80
-161 l-80 -157 0 -79 c0 -57 -4 -80 -12 -80 -7 0 -30 -3 -50 -6 l-38 -7 0 83
c0 80 -2 86 -45 161 -25 43 -45 80 -45 83 0 3 -14 28 -31 56 -17 28 -29 53
-26 56 3 3 29 8 58 11 l54 5 43 -86 c39 -78 62 -100 62 -60 0 22 77 171 92
177 15 6 98 9 98 4z m-424 -278 c40 -118 69 -217 65 -220 -3 -4 -30 -10 -58
-14 -41 -5 -53 -4 -53 7 0 7 -5 30 -11 51 l-10 38 -47 -6 c-106 -14 -113 -19
-137 -101 -3 -14 -17 -24 -37 -28 -31 -6 -78 -8 -78 -3 0 1 32 95 71 207 39
113 73 218 76 233 3 16 11 31 18 33 19 8 108 22 120 20 6 -2 42 -99 81 -217z
m1179 151 c0 -19 -6 -26 -24 -28 -29 -4 -43 15 -30 41 15 28 54 19 54 -13z
m-1615 -30 c36 -25 53 -56 71 -127 29 -117 -40 -250 -152 -292 -30 -11 -239
-45 -244 -39 -2 2 -1 106 2 231 l6 226 51 10 c130 26 221 23 266 -9z m-1056
-15 c8 -21 -3 -45 -21 -45 -20 0 -42 30 -36 47 7 18 50 16 57 -2z m2594 -71
c2 -11 -4 -26 -12 -33 -31 -26 -71 14 -45 45 17 21 53 14 57 -12z m-2508 -39
c26 -31 -18 -71 -47 -42 -19 19 -8 57 16 57 10 0 24 -7 31 -15z m2418 -72 c4
-28 -32 -50 -54 -32 -17 14 -18 31 -2 47 19 19 53 10 56 -15z m-2318 -42 c7
-15 6 -24 -6 -36 -9 -9 -21 -14 -27 -12 -18 6 -31 33 -24 51 9 22 44 20 57 -3z
m2215 -52 c14 -43 -45 -66 -61 -24 -8 19 13 45 37 45 10 0 21 -10 24 -21z
m-2110 -50 c5 -14 1 -27 -9 -37 -15 -15 -18 -15 -37 5 -27 26 -19 53 15 53 16
0 27 -7 31 -21z m1999 -41 c13 -22 -10 -50 -38 -46 -27 4 -33 38 -10 55 21 15
34 13 48 -9z m-1889 -38 c15 -16 16 -22 5 -35 -16 -20 -49 -16 -63 7 -8 12 -7
21 2 32 18 21 34 20 56 -4z m1773 -56 c4 -30 -21 -48 -47 -34 -24 12 -27 30
-9 48 19 19 53 10 56 -14z m-1651 -27 c9 -7 10 -14 2 -29 -15 -27 -53 -20 -57
11 -6 38 19 46 55 18z m1527 -40 c9 -15 7 -21 -9 -33 -11 -8 -26 -13 -35 -12
-19 4 -25 35 -9 54 15 19 38 15 53 -9z m-1410 -13 c20 -8 21 -53 2 -60 -18 -7
-56 13 -56 29 0 14 20 37 31 37 4 0 14 -3 23 -6z m1277 -40 c17 -21 0 -49 -32
-49 -18 0 -25 6 -27 24 -6 38 34 55 59 25z m-1137 -20 c19 -19 20 -26 4 -42
-15 -15 -30 -15 -51 1 -16 11 -16 14 -2 35 19 26 28 27 49 6z m1004 -42 c2
-16 -3 -25 -20 -31 -38 -14 -64 19 -36 47 20 20 53 10 56 -16z m-858 -7 c10
-12 10 -18 0 -30 -17 -20 -49 -16 -64 8 -20 32 39 52 64 22z m708 -7 c29 -29
2 -66 -39 -53 -24 8 -25 41 -1 54 22 13 26 13 40 -1z m-569 -22 c17 -20 2 -46
-25 -46 -26 0 -40 20 -30 45 7 19 40 20 55 1z m142 -17 c9 -17 8 -25 -4 -37
-29 -28 -73 12 -47 43 17 21 37 19 51 -6z m294 1 c9 -27 -1 -40 -31 -40 -26 0
-40 20 -30 45 8 23 53 19 61 -5z m-147 -2 c15 -15 -3 -48 -27 -48 -10 0 -24 7
-31 15 -25 30 29 62 58 33z"/>
        <path d="M4231 2300 c-12 -38 -24 -76 -27 -85 -5 -13 0 -15 37 -9 24 4 47 10
52 13 4 4 1 27 -8 50 -8 24 -15 54 -15 67 0 48 -19 31 -39 -36z"/>
        <path d="M3788 2333 l-36 -4 -4 -137 c-2 -75 -2 -140 -1 -144 4 -8 93 15 120
32 33 21 53 74 53 140 0 91 -38 123 -132 113z"/>
        <path d="M2472 2356 c7 -8 15 -12 17 -11 5 6 -10 25 -20 25 -5 0 -4 -6 3 -14z"/>
        <path d="M2358 2343 c12 -2 30 -2 40 0 9 3 -1 5 -23 4 -22 0 -30 -2 -17 -4z"/>
        <path d="M2270 2330 c20 -13 43 -13 35 0 -3 6 -16 10 -28 10 -18 0 -19 -2 -7
-10z"/>
        <path d="M2320 2310 c0 -5 5 -10 11 -10 5 0 7 5 4 10 -3 6 -8 10 -11 10 -2 0
-4 -4 -4 -10z"/>
        <path d="M11400 4072 c-248 -136 -538 -319 -731 -462 -46 -34 -94 -69 -107
-78 -117 -84 -399 -323 -569 -483 -549 -518 -969 -1061 -1318 -1704 -109 -201
-231 -453 -291 -600 -14 -33 -29 -69 -34 -80 -59 -132 -178 -471 -227 -647 -4
-17 81 -18 1696 -18 l1701 0 0 2065 c0 1136 -3 2065 -7 2065 -5 -1 -55 -27
-113 -58z m-30 -471 c83 -61 54 -191 -51 -223 -137 -41 -225 108 -121 205 53
49 121 56 172 18z m-500 -324 c31 -16 70 -73 70 -103 0 -50 -32 -93 -88 -121
l-53 -26 -47 19 c-39 16 -50 27 -66 66 l-19 46 24 48 c37 73 114 104 179 71z
m-410 -393 c25 -28 30 -44 30 -83 0 -43 -4 -53 -40 -89 -66 -66 -135 -68 -191
-5 -28 33 -31 41 -26 87 4 44 10 55 46 88 64 56 132 57 181 2z m-450 -382 c46
-18 65 -49 64 -107 0 -40 -6 -59 -25 -82 -34 -44 -71 -63 -118 -63 -56 0 -111
53 -111 108 0 55 37 113 88 139 44 22 57 23 102 5z m-348 -462 c62 -51 62
-118 2 -188 -106 -125 -280 6 -188 141 54 80 125 97 186 47z m-334 -477 c24
-15 52 -69 52 -100 0 -32 -40 -98 -73 -120 -111 -75 -238 57 -167 172 43 70
121 90 188 48z m-298 -500 c126 -74 30 -286 -111 -244 -40 12 -75 48 -86 89
-9 38 16 104 54 139 40 38 96 44 143 16z m-238 -530 c59 -29 75 -116 34 -181
-43 -69 -103 -89 -165 -58 -90 47 -79 195 18 246 38 19 65 18 113 -7z"/>
    </g>
</svg>
