<?xml version="1.0" standalone="no"?>
<!DOCTYPE svg PUBLIC "-//W3C//DTD SVG 20010904//EN"
    "http://www.w3.org/TR/2001/REC-SVG-20010904/DTD/svg10.dtd">
<svg version="1.0" xmlns="http://www.w3.org/2000/svg"
    width="600.000000pt" height="315.000000pt" viewBox="0 0 600.000000 315.000000"
    preserveAspectRatio="xMidYMid meet">

    <g transform="translate(0.000000,315.000000) scale(0.100000,-0.100000)"
        fill="#000000" stroke="none">
        <path d="M0 3045 c0 -96 2 -105 19 -105 42 0 80 22 96 56 18 38 50 46 58 14 3
-11 12 -20 21 -20 10 0 13 6 10 15 -4 8 -10 12 -15 9 -5 -3 -9 3 -8 13 1 20
16 72 18 61 2 -14 41 32 41 47 0 12 -17 15 -90 15 -82 0 -90 -2 -90 -19 0 -11
-4 -23 -10 -26 -6 -4 -10 5 -10 19 0 19 -5 26 -20 26 -19 0 -20 -7 -20 -105z"/>
        <path d="M281 3134 c0 -11 3 -14 6 -6 3 7 2 16 -1 19 -3 4 -6 -2 -5 -13z"/>
        <path d="M307 3143 c-4 -3 -7 -16 -7 -28 0 -11 -5 -26 -12 -33 -9 -9 -7 -12
10 -12 19 0 22 5 22 40 0 41 -2 45 -13 33z"/>
        <path d="M670 3145 c0 -2 14 -11 30 -20 17 -9 30 -11 30 -5 0 5 -7 10 -15 10
-8 0 -15 5 -15 10 0 6 -7 10 -15 10 -8 0 -15 -2 -15 -5z"/>
        <path d="M790 3117 c0 -41 26 -67 64 -67 31 0 106 38 106 53 0 5 7 4 15 -3 20
-17 27 -8 19 24 -6 23 -11 26 -53 26 -28 0 -41 -4 -33 -8 17 -11 0 -57 -27
-71 -37 -20 -79 18 -66 59 4 14 2 20 -9 20 -11 0 -16 -10 -16 -33z"/>
        <path d="M1010 3139 c0 -11 35 -64 58 -88 11 -12 16 -12 28 1 14 14 14 16 -1
22 -9 3 -13 2 -10 -4 3 -6 2 -10 -4 -10 -17 0 -23 20 -11 35 13 15 5 55 -11
55 -5 0 -7 -12 -4 -27 l5 -28 -12 28 c-12 26 -38 38 -38 16z"/>
        <path d="M1757 3143 c-4 -3 -7 -16 -6 -27 0 -19 1 -19 10 3 10 24 8 36 -4 24z"/>
        <path d="M1898 3129 c38 -18 48 -19 73 -9 16 7 29 17 29 22 0 6 -7 7 -17 2
-20 -9 -54 -9 -98 0 -24 5 -22 2 13 -15z"/>
        <path d="M3973 3143 c9 -2 17 -8 17 -13 0 -5 6 -7 14 -4 19 7 31 -15 17 -29
-9 -9 -14 -8 -21 3 -11 17 -13 9 -4 -14 3 -9 13 -16 21 -16 30 0 63 -47 63
-90 0 -42 9 -50 30 -24 20 23 63 14 70 -16 5 -22 7 -23 13 -7 4 10 11 15 17
12 5 -3 11 2 11 12 6 63 11 73 18 33 4 -25 12 -36 29 -40 13 -3 23 -9 22 -13
-1 -4 6 -19 15 -33 9 -14 15 -35 15 -47 -1 -12 -2 -31 -1 -42 1 -16 3 -17 11
-5 6 9 5 17 -3 22 -7 4 3 5 20 2 21 -4 39 -2 48 6 22 18 31 5 11 -15 -31 -31
-37 -52 -21 -69 8 -8 15 -18 15 -21 0 -10 60 -65 71 -65 5 0 9 10 9 21 0 18 2
19 15 9 9 -7 15 -20 14 -29 -3 -32 1 -41 20 -41 11 0 18 6 17 16 0 9 5 19 13
22 10 3 12 0 8 -11 -8 -20 7 -30 44 -29 16 0 29 -4 29 -9 0 -5 -4 -9 -10 -9
-19 0 -25 -2 -45 -16 -24 -17 -38 -18 -29 -1 4 6 -3 2 -15 -11 -24 -25 -41
-92 -23 -92 6 0 10 13 10 29 -1 37 10 54 32 48 11 -3 21 2 25 12 6 15 7 15 16
-1 6 -12 21 -17 43 -16 18 1 38 -2 44 -6 7 -4 12 -2 12 5 0 7 3 9 7 6 3 -4 13
-1 21 6 13 10 14 9 7 -2 -6 -11 -4 -13 10 -7 15 5 16 4 5 -9 -7 -8 -9 -15 -4
-15 5 0 2 -5 -6 -11 -12 -8 -10 -9 7 -4 12 3 24 1 28 -5 4 -7 12 -7 26 0 15 9
24 6 44 -14 l25 -25 0 38 c0 24 5 41 14 44 20 8 26 -2 26 -40 0 -21 4 -32 10
-28 6 4 8 11 5 16 -4 5 8 9 25 9 l31 0 -20 -29 c-17 -24 -19 -34 -11 -56 9
-23 7 -28 -10 -32 -15 -4 -17 -9 -10 -23 13 -25 12 -40 -1 -17 -6 10 -13 30
-15 45 -3 14 -7 29 -10 31 -4 4 -8 -25 -5 -41 0 -4 -9 -4 -22 1 -16 6 -22 16
-20 37 1 19 0 22 -4 9 -7 -26 -32 -44 -62 -45 -16 0 -21 -4 -18 -14 6 -14 -22
-46 -39 -46 -5 0 -2 5 6 10 8 5 10 10 4 10 -7 0 -14 8 -17 18 -2 11 -14 21
-25 24 -15 4 -19 2 -15 -8 3 -8 13 -14 22 -15 10 0 11 -2 4 -6 -7 -2 -13 -9
-13 -14 0 -4 6 -6 13 -4 9 4 11 -7 9 -40 -4 -43 -3 -45 22 -45 23 0 26 -4 26
-35 0 -22 6 -38 18 -44 13 -8 9 -10 -20 -9 -21 1 -35 5 -32 10 3 4 0 8 -6 8
-7 0 -9 -7 -6 -16 6 -15 4 -15 -11 -3 -9 8 -14 9 -10 2 4 -6 1 -14 -5 -17 -7
-3 8 -3 34 0 42 6 50 3 68 -17 11 -14 19 -39 20 -60 0 -20 7 -50 15 -65 13
-25 15 -26 15 -8 0 21 27 41 38 29 3 -3 0 -5 -7 -5 -7 0 -9 -5 -5 -11 4 -7 15
-1 30 17 27 33 33 57 7 27 -13 -14 -24 -18 -38 -13 -11 4 -25 5 -31 3 -8 -3
-11 15 -11 53 0 34 -5 59 -13 64 -9 6 -9 9 -1 15 7 4 24 -1 38 -11 19 -12 28
-13 31 -6 2 7 8 12 13 12 6 0 7 -4 4 -10 -3 -5 -1 -10 4 -10 6 0 11 -7 11 -15
0 -8 4 -15 9 -15 5 0 7 -10 5 -22 -4 -16 2 -11 18 15 24 39 50 45 56 13 2 -10
0 -16 -6 -12 -6 3 -15 -7 -20 -23 -11 -30 -3 -35 27 -17 9 6 12 5 7 -2 -3 -6
3 -13 13 -17 23 -7 35 -37 26 -64 -7 -22 -61 -45 -70 -30 -4 5 -10 7 -15 4
-11 -7 -22 42 -15 68 5 19 4 19 -9 -3 -10 -18 -11 -30 -4 -44 7 -13 7 -16 -1
-12 -6 4 -14 0 -17 -8 -3 -9 -11 -13 -17 -9 -6 3 -7 1 -3 -6 4 -6 13 -8 19 -4
20 12 51 3 75 -23 24 -25 21 -30 -25 -37 -12 -2 -26 -6 -29 -10 -4 -4 -12 -7
-18 -7 -7 0 -6 4 1 11 10 10 32 16 60 18 22 2 2 29 -27 40 -22 7 -30 6 -34 -5
-3 -8 0 -14 6 -14 6 0 4 -8 -5 -18 -10 -11 -14 -26 -10 -40 7 -27 8 -27 33 -2
28 28 40 25 40 -9 0 -16 6 -32 13 -34 10 -4 10 -6 0 -6 -7 -1 -13 -14 -13 -29
0 -15 -6 -34 -12 -41 -11 -12 -10 -13 6 -7 19 7 19 6 1 -14 -22 -25 -21 -25
-22 3 -1 50 -3 58 -15 51 -7 -5 -8 -3 -2 7 15 24 14 46 -1 46 -11 0 -13 -6 -9
-21 6 -18 5 -19 -10 -7 -9 8 -16 9 -16 3 0 -6 6 -12 13 -15 10 -3 10 -9 0 -26
-18 -30 -16 -40 8 -34 19 5 20 3 14 -18 -4 -13 -12 -27 -17 -30 -6 -4 -6 -9 1
-13 6 -4 11 -18 11 -32 0 -14 -4 -23 -9 -19 -6 3 -13 -1 -18 -9 -5 -9 -28 -16
-63 -19 -30 -2 131 -4 358 -5 l412 -2 -2 -159 -3 -159 -582 -4 c-359 -2 -583
0 -583 6 0 5 -2 7 -5 4 -3 -3 -3 -11 0 -19 4 -11 34 -14 143 -13 100 1 120 -1
72 -6 -58 -6 -70 -10 -41 -14 5 0 12 -4 15 -9 3 -4 3 -5 0 -2 -4 2 -16 -2 -28
-10 -11 -8 -30 -15 -42 -15 -13 0 -36 -11 -52 -25 -21 -18 -42 -25 -71 -25
-40 0 -41 1 -41 33 0 17 3 43 7 56 6 23 7 23 13 5 5 -12 7 -4 6 23 -1 39 -2
41 -13 20 -7 -12 -12 -16 -13 -9 0 23 -20 12 -20 -12 0 -29 -15 -42 -24 -21
-4 11 -21 15 -61 15 -52 0 -55 1 -55 25 0 16 -6 25 -15 25 -11 0 -15 -11 -15
-40 0 -36 -2 -40 -25 -40 -20 0 -25 5 -25 25 0 31 -11 31 -48 0 -34 -28 -52
-32 -52 -10 0 19 -26 19 -34 0 -3 -9 0 -15 9 -15 11 0 15 -13 15 -50 0 -42 -4
-52 -25 -66 -17 -11 -25 -25 -25 -45 0 -27 3 -29 40 -29 29 0 40 4 40 15 0 8
5 15 11 15 8 0 10 -18 5 -61 -3 -34 -6 -70 -6 -80 0 -12 -7 -19 -20 -19 -11 0
-20 6 -20 14 0 17 -35 31 -51 21 -6 -4 -8 -18 -5 -31 8 -31 -7 -31 -24 1 -8
15 -22 25 -36 25 -23 0 -35 31 -37 98 -1 47 -17 40 -17 -8 0 -22 3 -40 8 -40
4 0 5 -25 4 -56 -3 -40 -8 -57 -20 -61 -10 -4 -24 -15 -33 -25 -9 -10 -27 -18
-39 -18 -21 0 -22 2 -9 18 25 31 38 59 42 93 2 19 2 27 0 18 -2 -10 -13 -25
-24 -35 -10 -9 -19 -23 -19 -30 0 -31 -95 -48 -106 -19 -4 8 -13 15 -22 15
-12 0 -11 -4 6 -20 12 -11 29 -20 40 -20 10 0 27 -7 38 -15 17 -13 17 -14 2
-15 -12 0 -15 -5 -11 -17 6 -14 0 -15 -48 -9 -30 4 -59 14 -66 22 -6 9 -16 13
-21 10 -6 -4 -8 3 -5 16 6 22 6 22 -15 -2 -19 -23 -20 -26 -5 -38 9 -6 25 -12
35 -12 22 0 24 -28 3 -36 -8 -4 -15 -10 -15 -15 0 -4 15 1 34 12 28 16 48 19
107 17 70 -3 72 -4 55 -21 -10 -10 -25 -16 -34 -12 -23 8 -54 -5 -48 -21 5
-14 -71 -54 -105 -54 -10 0 -22 -6 -26 -13 -4 -8 -20 -22 -35 -32 -16 -9 -28
-24 -28 -31 0 -8 -4 -14 -10 -14 -5 0 -10 9 -10 20 0 11 -3 20 -6 20 -11 0
-49 -23 -56 -34 -4 -6 -6 -1 -5 11 0 12 4 21 7 20 15 -3 50 16 50 28 0 8 -11
25 -25 39 -30 30 -31 36 -5 36 11 0 20 -6 20 -13 0 -8 9 -22 20 -32 12 -11 18
-25 15 -34 -4 -11 0 -10 15 4 11 10 20 23 20 29 0 6 10 16 22 21 12 6 23 16
24 23 1 7 0 8 -3 2 -7 -15 -25 -12 -81 15 -51 24 -93 35 -62 15 12 -7 9 -11
-11 -19 -22 -8 -25 -14 -21 -40 4 -27 1 -31 -19 -31 -19 0 -21 2 -9 10 13 9
13 11 0 19 -17 12 -33 4 -24 -11 5 -8 1 -9 -12 -4 -15 6 -17 5 -6 -5 6 -7 12
-18 12 -23 0 -6 -4 -4 -10 4 -14 23 -23 4 -9 -21 l12 -24 10 22 c6 15 20 23
41 25 21 2 30 8 28 18 -3 11 -1 12 8 3 10 -9 7 -17 -9 -34 -11 -13 -21 -29
-21 -37 0 -8 -8 -20 -17 -27 -9 -7 -22 -28 -29 -46 -6 -19 -17 -33 -23 -32 -6
2 -14 -12 -19 -30 -7 -26 -14 -33 -43 -38 -20 -4 -25 -7 -12 -8 12 0 28 -4 37
-7 11 -4 17 4 22 30 5 31 10 36 35 36 33 0 33 -1 18 -53 -6 -21 -12 -50 -14
-65 -1 -15 -3 -30 -4 -34 0 -5 -13 -8 -27 -8 -25 0 -25 2 -19 40 7 39 -6 57
-19 25 -3 -8 -2 -15 3 -15 4 0 6 -11 4 -24 -5 -22 -11 -25 -62 -28 -32 -1 -97
-2 -144 0 -67 3 -87 7 -87 18 0 19 -26 18 -34 -2 -5 -13 -15 -15 -46 -10 -22
3 -40 2 -40 -3 0 -5 -8 -8 -17 -7 -12 1 -17 -5 -15 -16 2 -15 -1 -16 -24 -8
-20 8 -29 8 -34 0 -5 -7 -9 -3 -13 10 -4 16 -2 20 9 16 8 -3 21 -9 29 -12 8
-3 15 -1 15 5 0 6 -9 11 -21 11 -16 0 -20 5 -17 27 2 16 -2 28 -11 31 -10 3
-12 0 -8 -12 4 -9 2 -16 -3 -16 -13 0 -13 37 0 45 5 3 20 -1 32 -9 12 -9 29
-16 38 -15 8 0 2 5 -13 11 -24 9 -28 15 -25 44 1 20 -3 39 -12 46 -12 11 -12
10 -2 -4 9 -11 10 -18 2 -23 -5 -3 -10 -1 -10 6 0 16 -13 3 -16 -16 -1 -8 4
-11 12 -8 8 3 14 0 14 -5 0 -6 -7 -12 -16 -14 -18 -3 -46 -75 -33 -84 5 -3 9
-9 9 -13 0 -12 -43 -22 -52 -13 -12 12 3 61 21 65 11 3 9 5 -6 6 -15 1 -23 -6
-25 -21 -2 -16 -12 -25 -33 -29 -23 -5 -25 -7 -7 -8 32 -2 27 -18 -5 -18 -16
0 -37 -3 -48 -7 -12 -4 -10 -1 5 8 31 19 20 20 -24 2 -20 -8 -39 -10 -47 -5
-8 5 -18 9 -24 9 -5 -1 -2 -5 7 -11 10 -5 18 -15 18 -20 0 -6 -7 -4 -15 3 -33
30 -43 37 -48 32 -3 -3 -13 6 -22 20 -20 30 -32 27 -32 -8 -1 -28 -28 -62 -38
-46 -3 5 -1 10 4 10 6 0 10 11 9 24 -2 24 -3 24 -103 20 -55 -2 -143 -6 -196
-9 -114 -7 -129 -3 -129 36 0 16 -5 29 -11 29 -8 0 -10 -15 -7 -45 3 -25 2
-48 -3 -51 -5 -3 -9 -20 -9 -39 0 -45 -9 -65 -26 -58 -10 4 -14 -4 -15 -33 0
-22 -3 -33 -6 -26 -2 6 -9 12 -14 12 -4 0 -6 -7 -3 -15 4 -10 0 -15 -11 -15
-10 0 -13 5 -9 12 4 7 3 8 -4 4 -7 -4 -12 -16 -12 -27 0 -11 4 -17 10 -14 5 3
10 2 10 -4 0 -5 -5 -13 -10 -16 -6 -3 -10 -17 -10 -31 l0 -24 2080 0 2080 0 0
1575 0 1575 -1022 -1 c-563 -1 -1015 -3 -1005 -6z m1635 -530 c7 -17 12 -73
12 -150 l0 -123 -50 0 c-47 0 -50 2 -50 25 0 18 5 25 20 25 13 0 20 7 20 20 0
11 -7 20 -15 20 -31 0 -13 43 23 55 26 8 25 28 -2 33 -25 5 -66 -26 -78 -59
-8 -25 -15 -29 -46 -30 -21 0 -31 -3 -24 -6 6 -2 12 -11 12 -19 0 -8 9 -14 20
-14 15 0 20 -7 20 -25 0 -24 -2 -25 -75 -25 l-75 0 0 131 c0 72 5 139 10 150
10 17 22 19 138 19 l127 0 13 -27z m-929 -20 c10 -19 9 -22 -4 -17 -8 4 -15
15 -15 27 0 23 2 22 19 -10z m-39 -13 c-20 -13 -33 -13 -25 0 3 6 14 10 23 10
15 0 15 -2 2 -10z m138 -15 c-3 -3 -9 2 -12 12 -6 14 -5 15 5 6 7 -7 10 -15 7
-18z m442 -30 c0 -8 5 -15 10 -15 16 0 12 -30 -5 -36 -18 -7 -20 -41 -3 -46
21 -7 0 -40 -24 -36 -19 2 -24 11 -28 46 l-5 44 -22 -19 c-11 -10 -23 -30 -25
-43 -2 -15 -11 -26 -22 -28 -17 -4 -18 1 -12 45 11 74 15 84 32 75 22 -12 74
-2 74 14 0 8 7 14 15 14 8 0 15 -7 15 -15z m-140 -30 c0 -7 -3 -32 -6 -57 l-6
-45 -42 0 c-50 -1 -66 11 -66 46 0 35 24 69 53 73 34 5 67 -3 67 -17z m-223
-125 c3 -10 2 -11 -4 -4 -4 6 -15 14 -23 17 -11 5 -9 6 4 4 11 -1 21 -9 23
-17z m-53 -5 c-5 -11 -1 -14 12 -9 16 5 16 4 4 -5 -17 -12 -36 1 -26 18 10 16
16 13 10 -4z m144 -220 c-3 -3 -9 2 -12 12 -6 14 -5 15 5 6 7 -7 10 -15 7 -18z
m-128 0 c0 -8 -2 -15 -4 -15 -2 0 -6 7 -10 15 -3 8 -1 15 4 15 6 0 10 -7 10
-15z m463 6 c14 -6 28 -19 32 -31 3 -11 10 -18 14 -16 4 3 4 -18 1 -46 -9 -70
-34 -89 -111 -87 -32 1 -56 6 -53 10 8 13 -10 11 -26 -3 -12 -11 -12 -10 -2 3
10 13 10 23 1 42 -17 36 -3 92 28 117 27 21 76 26 116 11z m197 -16 c0 -22 -4
-25 -40 -25 -29 0 -40 -4 -40 -15 0 -11 11 -15 40 -15 33 0 40 -3 40 -20 0
-17 -7 -20 -40 -20 -39 0 -40 -1 -40 -35 0 -32 -3 -35 -27 -35 l-28 0 3 95 3
95 65 0 c62 0 64 -1 64 -25z m150 0 c0 -22 -4 -25 -40 -25 -29 0 -40 -4 -40
-15 0 -11 11 -15 39 -15 34 0 38 -3 34 -20 -4 -15 -14 -20 -39 -20 -32 0 -34
-2 -34 -35 0 -31 -3 -35 -25 -35 -25 0 -25 0 -25 95 l0 95 65 0 c63 0 65 -1
65 -25z m-592 -188 c-12 -12 -16 -12 -28 1 -13 14 -12 15 3 9 9 -3 19 -2 23 4
3 6 8 8 11 5 3 -3 -1 -11 -9 -19z m130 -69 c6 -6 12 -18 12 -27 1 -10 6 -7 15
10 8 15 22 29 31 33 12 5 10 -4 -10 -38 -24 -41 -24 -44 -6 -39 11 3 20 9 20
14 0 5 3 9 8 9 13 0 13 -73 0 -82 -19 -12 -25 -10 -48 14 -16 18 -20 19 -20 5
0 -19 -16 -31 -30 -22 -6 4 -3 17 10 35 25 36 26 35 -10 35 -24 0 -31 -5 -36
-27 -6 -31 -44 -64 -54 -48 -4 6 -14 8 -23 4 -10 -3 -17 -1 -17 6 0 6 5 8 10
5 6 -3 10 -2 10 4 0 5 -4 12 -8 15 -10 6 -3 66 10 82 9 12 67 25 66 15 -3 -28
3 -33 16 -15 11 14 11 21 3 27 -7 5 -1 5 13 1 14 -3 31 -11 38 -16z m-157 -15
c-12 -20 -14 -14 -5 12 4 9 9 14 11 11 3 -2 0 -13 -6 -23z m407 5 c8 -7 12
-27 10 -52 -2 -34 -8 -43 -32 -55 -57 -27 -111 28 -86 88 6 16 19 32 28 34 22
6 64 -2 80 -15z m212 1 c0 -5 -13 -9 -30 -9 -20 0 -30 -5 -30 -15 0 -9 9 -15
24 -15 14 0 28 -4 31 -10 4 -6 -7 -10 -24 -10 -26 0 -31 -4 -31 -25 0 -14 -4
-25 -10 -25 -6 0 -10 28 -10 63 l0 63 40 -4 c22 -2 40 -8 40 -13z m-100 1 c0
-5 -13 -10 -30 -10 -20 0 -30 -5 -30 -15 0 -10 10 -15 30 -15 17 0 30 -4 30
-10 0 -5 -13 -10 -30 -10 -25 0 -30 -4 -30 -25 0 -14 -4 -25 -10 -25 -6 0 -10
27 -10 60 l0 60 40 0 c22 0 40 -4 40 -10z m-486 -139 c3 -5 0 -13 -7 -18 -16
-13 -59 -14 -51 -2 3 6 13 9 22 8 30 -3 37 1 22 11 -9 6 -10 10 -3 10 6 0 14
-4 17 -9z m-94 -595 c0 -3 -4 -8 -10 -11 -5 -3 -10 -1 -10 4 0 6 5 11 10 11 6
0 10 -2 10 -4z m-605 -86 c-3 -5 -10 -10 -16 -10 -5 0 -9 5 -9 10 0 6 7 10 16
10 8 0 12 -4 9 -10z m-397 -172 c2 -9 -6 -36 -16 -59 l-20 -43 -1 63 c0 54 2
62 17 59 9 -2 18 -11 20 -20z m-65 -71 c-7 -47 -13 -46 -13 2 0 23 4 40 9 37
5 -4 7 -21 4 -39z m117 23 c0 -5 -2 -10 -4 -10 -3 0 -8 5 -11 10 -3 6 -1 10 4
10 6 0 11 -4 11 -10z m-153 -32 c-3 -8 -6 -5 -6 6 -1 11 2 17 5 13 3 -3 4 -12
1 -19z m-24 5 c-7 -2 -19 -2 -25 0 -7 3 -2 5 12 5 14 0 19 -2 13 -5z m47 -53
c0 -5 -2 -10 -4 -10 -3 0 -8 5 -11 10 -3 6 -1 10 4 10 6 0 11 -4 11 -10z m-80
-80 c12 -8 11 -10 -7 -10 -13 0 -23 5 -23 10 0 13 11 13 30 0z m-395 -147
c-15 -23 -15 -25 -2 -20 9 3 19 2 22 -3 4 -6 -5 -10 -19 -10 -14 0 -26 2 -26
5 0 9 32 55 37 55 3 0 -3 -12 -12 -27z m1390 -16 c0 -23 4 -37 12 -37 8 0 13
14 13 40 0 34 3 40 21 40 19 0 20 -5 17 -80 -4 -95 7 -106 17 -17 9 88 13 97
40 97 21 0 24 -7 38 -92 l15 -93 1 93 1 92 33 0 c42 0 57 -15 57 -56 0 -45 -9
-64 -31 -64 -15 0 -19 -7 -19 -35 0 -34 -1 -35 -39 -35 -43 0 -51 12 -51 84 0
53 -8 42 -18 -25 -6 -39 -12 -53 -23 -50 -21 5 -43 9 -51 10 -5 1 -8 15 -8 32
0 20 -4 29 -12 26 -7 -2 -12 -14 -12 -26 1 -16 -3 -21 -13 -17 -8 3 -17 6 -19
6 -2 0 -4 34 -4 76 0 66 2 75 18 72 12 -2 17 -13 17 -41z m354 26 c10 -17 10
-17 11 0 0 29 30 19 37 -13 3 -16 9 -30 14 -30 5 0 9 14 9 30 0 24 4 30 21 30
15 0 19 -5 15 -17 -3 -10 -10 -40 -17 -68 -22 -94 -40 -97 -59 -12 -12 51 -15
57 -18 32 -5 -37 -19 -55 -43 -55 -15 0 -19 -7 -19 -35 0 -24 -5 -35 -15 -35
-12 0 -15 17 -15 95 l0 95 35 0 c22 0 38 -6 44 -17z m189 5 c15 -15 16 -48 1
-48 -7 0 -17 7 -24 17 -7 10 -14 12 -18 6 -4 -6 7 -28 23 -48 32 -40 38 -73
18 -93 -16 -16 -49 -15 -72 3 -17 13 -22 12 -48 -10 -50 -42 -126 -58 -252
-53 -113 5 -146 14 -202 55 -17 13 -38 23 -47 23 -23 0 -21 13 3 28 16 10 20
10 20 -2 0 -21 80 -54 162 -67 115 -18 284 7 326 49 25 24 52 26 68 5 13 -17
13 -17 14 1 0 10 -11 31 -25 48 -40 47 -29 98 20 98 12 0 26 -5 33 -12z m101
-51 c15 -88 14 -127 -3 -127 -10 0 -17 16 -21 48 -10 78 -12 79 -20 15 -6 -52
-11 -63 -26 -63 -15 0 -18 5 -15 23 3 12 10 55 16 95 11 65 14 72 35 72 20 0
24 -7 34 -63z m61 -12 c0 -72 4 -81 33 -76 4 0 7 -8 7 -19 0 -17 -7 -20 -40
-20 l-40 0 0 95 c0 88 1 95 20 95 18 0 20 -7 20 -75z m130 55 c0 -14 -6 -19
-22 -17 -17 1 -22 -3 -22 -18 -1 -13 6 -20 17 -19 10 1 17 -5 17 -17 0 -12 -7
-19 -20 -19 -15 0 -19 -5 -16 -22 2 -16 10 -23 25 -22 14 0 21 -5 21 -18 0
-14 -8 -18 -40 -18 l-40 0 0 95 0 95 40 0 c33 0 40 -3 40 -20z m-2185 0 c-3
-5 -12 -10 -18 -10 -7 0 -6 4 3 10 19 12 23 12 15 0z m35 -49 c0 -14 -6 -19
-20 -18 -11 1 -20 7 -20 15 0 7 4 11 9 7 5 -3 12 -1 16 5 10 15 15 12 15 -9z
m-60 -11 c0 -13 -11 -13 -30 0 -12 8 -11 10 8 10 12 0 22 -4 22 -10z m15 -40
c-3 -5 -12 -10 -18 -10 -7 0 -6 4 3 10 19 12 23 12 15 0z m-118 -152 c-3 -8
-6 -5 -6 6 -1 11 2 17 5 13 3 -3 4 -12 1 -19z m1463 2 c0 -11 -4 -20 -10 -20
-5 0 -10 9 -10 20 0 11 5 20 10 20 6 0 10 -9 10 -20z m340 -4 c0 -9 -14 -13
-40 -13 -29 0 -40 4 -40 14 0 11 7 13 24 9 14 -3 28 -1 31 4 8 13 25 3 25 -14z
m222 -8 c-15 -15 -26 -4 -18 18 5 13 9 15 18 6 9 -9 9 -15 0 -24z m268 6 c0
-8 -9 -14 -20 -14 -19 0 -27 19 -14 33 10 9 34 -4 34 -19z m-2667 1 c-3 -9 -8
-14 -10 -11 -3 3 -2 9 2 15 9 16 15 13 8 -4z m18 -8 c-10 -9 -11 -8 -5 6 3 10
9 15 12 12 3 -3 0 -11 -7 -18z m200 0 c-10 -9 -11 -8 -5 6 3 10 9 15 12 12 3
-3 0 -11 -7 -18z m1667 5 c2 -7 -3 -12 -12 -12 -9 0 -16 7 -16 16 0 17 22 14
28 -4z m82 1 c0 -16 -16 -17 -26 -2 -5 8 -9 8 -14 -1 -4 -7 -13 -9 -19 -6 -22
14 -10 25 24 24 22 -1 35 -6 35 -15z m70 2 c0 -8 -7 -15 -15 -15 -8 0 -15 7
-15 15 0 8 7 15 15 15 8 0 15 -7 15 -15z m48 -3 c2 -7 -3 -12 -12 -12 -9 0
-16 7 -16 16 0 17 22 14 28 -4z m192 3 c0 -8 -7 -15 -15 -15 -8 0 -15 7 -15
15 0 8 7 15 15 15 8 0 15 -7 15 -15z m48 -3 c2 -7 -5 -12 -17 -12 -14 0 -19 5
-14 15 6 17 25 15 31 -3z m40 6 c-6 -18 -28 -21 -28 -4 0 9 7 16 16 16 9 0 14
-5 12 -12z m90 0 c-6 -18 -25 -20 -31 -3 -5 10 0 15 14 15 12 0 19 -5 17 -12z
m70 0 c-6 -18 -28 -21 -28 -4 0 9 7 16 16 16 9 0 14 -5 12 -12z m42 -3 c0 -8
-7 -15 -15 -15 -8 0 -15 7 -15 15 0 8 7 15 15 15 8 0 15 -7 15 -15z m50 0 c0
-8 -9 -15 -20 -15 -11 0 -20 7 -20 15 0 8 9 15 20 15 11 0 20 -7 20 -15z
m-2773 -21 c-3 -3 -12 -4 -19 -1 -8 3 -5 6 6 6 11 1 17 -2 13 -5z m-297 -14
c0 -5 -16 -10 -35 -10 -19 0 -35 5 -35 10 0 6 16 10 35 10 19 0 35 -4 35 -10z
m-510 -16 c0 -8 -5 -12 -10 -9 -6 4 -8 11 -5 16 9 14 15 11 15 -7z m90 -4 c0
-5 -2 -10 -4 -10 -3 0 -8 5 -11 10 -3 6 -1 10 4 10 6 0 11 -4 11 -10z m143 3
c-24 -2 -62 -2 -85 0 -24 2 -5 4 42 4 47 0 66 -2 43 -4z"/>
        <path d="M5012 2478 c-17 -17 -15 -38 3 -38 8 0 15 3 16 8 0 4 2 15 4 25 4 20
-6 22 -23 5z"/>
        <path d="M5196 2114 c-32 -32 -10 -94 34 -94 27 0 50 27 50 60 0 45 -52 66
-84 34z"/>
        <path d="M5136 1871 c-4 -5 -2 -12 3 -15 5 -4 12 -2 15 3 4 5 2 12 -3 15 -5 4
-12 2 -15 -3z"/>
        <path d="M5045 1850 c-9 -27 2 -57 20 -57 11 0 15 11 15 39 0 42 -24 54 -35
18z"/>
        <path d="M5205 1801 c-6 -11 9 -23 19 -14 9 9 7 23 -3 23 -6 0 -12 -4 -16 -9z"/>
        <path d="M5334 1856 c-3 -8 -4 -25 -2 -38 2 -18 9 -23 32 -23 36 0 56 27 40
53 -14 22 -62 28 -70 8z"/>
        <path d="M5000 500 c0 -18 4 -29 10 -25 6 3 10 15 10 25 0 10 -4 22 -10 25 -6
4 -10 -7 -10 -25z"/>
        <path d="M5090 501 c0 -17 5 -31 10 -31 6 0 10 11 10 24 0 14 -4 28 -10 31 -6
4 -10 -7 -10 -24z"/>
        <path d="M3900 3131 c0 -5 7 -12 16 -15 14 -5 15 -4 4 9 -14 17 -20 19 -20 6z"/>
        <path d="M755 3120 c-3 -5 -1 -10 4 -10 6 0 11 5 11 10 0 6 -2 10 -4 10 -3 0
-8 -4 -11 -10z"/>
        <path d="M1101 3104 c0 -11 3 -14 6 -6 3 7 2 16 -1 19 -3 4 -6 -2 -5 -13z"/>
        <path d="M1723 3080 c1 -11 5 -20 9 -20 4 0 8 9 8 20 0 11 -4 20 -9 20 -6 0
-9 -9 -8 -20z"/>
        <path d="M1900 3096 c0 -2 7 -7 16 -10 8 -3 12 -2 9 4 -6 10 -25 14 -25 6z"/>
        <path d="M771 3074 c0 -11 3 -14 6 -6 3 7 2 16 -1 19 -3 4 -6 -2 -5 -13z"/>
        <path d="M1783 3084 c3 -4 2 -15 -4 -25 -13 -26 2 -52 49 -84 43 -30 82 -32
105 -7 34 38 13 89 -46 111 -30 12 -115 15 -104 5z m145 -57 c12 -25 12 -31
-4 -48 -43 -48 -124 7 -88 60 23 32 74 26 92 -12z"/>
        <path d="M1150 3076 c0 -2 7 -7 16 -10 8 -3 12 -2 9 4 -6 10 -25 14 -25 6z"/>
        <path d="M1685 3059 c-4 -6 -5 -12 -2 -15 2 -3 7 2 10 11 7 17 1 20 -8 4z"/>
        <path d="M906 3045 c-11 -8 -29 -16 -40 -16 -16 -1 -17 -2 -4 -6 16 -4 78 22
78 32 0 9 -15 4 -34 -10z"/>
        <path d="M796 3035 c4 -8 11 -15 16 -15 6 0 5 6 -2 15 -7 8 -14 15 -16 15 -2
0 -1 -7 2 -15z"/>
        <path d="M961 3034 c-56 -17 -91 -50 -91 -83 0 -34 10 -48 41 -59 35 -14 76 8
112 58 26 37 27 43 15 70 -14 33 -15 34 -77 14z m18 -43 c13 -13 17 -27 14
-41 -8 -28 -47 -53 -72 -45 -40 12 -38 79 2 95 32 13 35 12 56 -9z"/>
        <path d="M1700 3035 c-11 -13 -10 -14 4 -9 9 3 16 10 16 15 0 13 -6 11 -20 -6z"/>
        <path d="M1090 3020 c-8 -14 -8 -20 0 -20 6 0 13 7 16 15 4 8 10 12 15 9 5 -3
9 0 9 5 0 19 -29 12 -40 -9z"/>
        <path d="M730 3014 c0 -16 15 -17 45 -4 22 10 22 10 -17 15 -19 2 -28 -1 -28
-11z"/>
        <path d="M1140 3012 c0 -12 19 -26 26 -19 2 2 -2 10 -11 17 -9 8 -15 8 -15 2z"/>
        <path d="M1113 2978 c0 -13 1 -17 4 -10 4 10 8 10 19 1 8 -7 17 -9 21 -5 6 6
-25 35 -37 36 -3 0 -6 -10 -7 -22z"/>
        <path d="M770 2980 c0 -5 4 -10 9 -10 6 0 13 5 16 10 3 6 -1 10 -9 10 -9 0
-16 -4 -16 -10z"/>
        <path d="M746 2971 c-4 -7 -5 -15 -2 -18 9 -9 19 4 14 18 -4 11 -6 11 -12 0z"/>
        <path d="M1629 2963 c-13 -16 -12 -17 4 -4 9 7 17 15 17 17 0 8 -8 3 -21 -13z"/>
        <path d="M132 2950 c-10 -17 -10 -20 2 -20 19 0 31 19 19 31 -5 5 -14 0 -21
-11z"/>
        <path d="M801 2939 c-7 -17 -10 -19 -10 -6 -1 24 -17 22 -17 -3 0 -27 32 -26
39 2 9 31 -1 36 -12 7z"/>
        <path d="M1085 2950 c3 -5 8 -10 11 -10 2 0 4 5 4 10 0 6 -5 10 -11 10 -5 0
-7 -4 -4 -10z"/>
        <path d="M1165 2950 c-3 -5 -1 -10 4 -10 6 0 11 5 11 10 0 6 -2 10 -4 10 -3 0
-8 -4 -11 -10z"/>
        <path d="M0 2906 c0 -14 5 -26 10 -26 6 0 10 5 10 10 0 6 10 15 23 20 15 6 17
9 5 9 -9 1 -23 4 -32 7 -12 5 -16 0 -16 -20z"/>
        <path d="M1648 2914 c-25 -13 -26 -16 -16 -51 23 -85 52 -115 99 -106 25 5 50
38 49 66 -1 7 -7 -3 -15 -20 -8 -18 -18 -33 -24 -33 -5 0 -16 -3 -24 -6 -8 -3
-24 5 -36 17 -52 56 0 124 61 79 33 -25 38 -12 6 17 -50 45 -71 53 -100 37z
m22 -24 c0 -5 -4 -10 -10 -10 -5 0 -10 5 -10 10 0 6 5 10 10 10 6 0 10 -4 10
-10z"/>
        <path d="M99 2893 c-13 -16 -12 -17 4 -4 9 7 17 15 17 17 0 8 -8 3 -21 -13z"/>
        <path d="M1270 2900 c0 -6 7 -10 15 -10 8 0 15 2 15 4 0 2 -7 6 -15 10 -8 3
-15 1 -15 -4z"/>
        <path d="M4225 2900 c3 -5 8 -10 11 -10 2 0 4 5 4 10 0 6 -5 10 -11 10 -5 0
-7 -4 -4 -10z"/>
        <path d="M1106 2850 c-58 -62 -59 -97 -1 -127 46 -24 90 20 100 103 6 47 4 51
-20 62 -14 7 -27 12 -29 12 -2 0 -24 -22 -50 -50z m74 16 c0 -11 -19 -15 -25
-6 -3 5 1 10 9 10 9 0 16 -2 16 -4z m-12 -38 c28 -28 1 -98 -37 -98 -26 1 -51
25 -51 50 0 47 58 78 88 48z"/>
        <path d="M1831 2878 c0 -7 5 -22 10 -33 9 -18 9 -18 5 4 -4 21 -2 23 27 17 34
-6 20 6 -20 18 -16 5 -23 3 -22 -6z"/>
        <path d="M4240 2854 c0 -14 3 -14 15 -4 8 7 15 14 15 16 0 2 -7 4 -15 4 -8 0
-15 -7 -15 -16z"/>
        <path d="M1518 2852 c-27 -3 -28 -5 -28 -72 0 -62 2 -70 26 -89 32 -25 44 -26
70 -6 18 14 17 14 -9 5 -55 -20 -95 36 -62 86 26 40 68 25 90 -31 4 -12 9 -15
12 -8 5 13 -40 96 -60 110 -7 5 -24 7 -39 5z"/>
        <path d="M4268 2838 c9 -9 15 -9 24 0 9 9 7 12 -12 12 -19 0 -21 -3 -12 -12z"/>
        <path d="M946 2819 c-14 -11 -26 -25 -26 -32 0 -6 9 -1 20 11 25 27 55 30 47
5 -2 -10 -8 -26 -12 -35 -4 -10 -3 -18 2 -18 9 0 33 57 33 78 0 19 -35 14 -64
-9z"/>
        <path d="M1266 2807 c-43 -74 -38 -131 13 -144 31 -8 75 16 80 42 2 16 -1 15
-19 -7 -23 -29 -58 -36 -78 -16 -16 16 -16 70 0 86 20 20 65 14 82 -10 16 -22
16 -22 16 -1 0 11 -3 35 -6 52 -6 27 -11 31 -38 31 -24 0 -35 -7 -50 -33z m54
3 c0 -5 -2 -10 -4 -10 -3 0 -8 5 -11 10 -3 6 -1 10 4 10 6 0 11 -4 11 -10z"/>
        <path d="M1421 2693 c-1 -6 -4 -20 -7 -30 -5 -17 -5 -17 6 0 6 10 9 23 6 30
-3 9 -5 9 -5 0z"/>
        <path d="M4387 2683 c-3 -3 1 -12 9 -20 8 -9 18 -13 21 -10 3 3 -1 13 -10 21
-8 8 -17 12 -20 9z"/>
        <path d="M1402 2620 c0 -14 2 -19 5 -12 2 6 2 18 0 25 -3 6 -5 1 -5 -13z"/>
        <path d="M4430 2630 c0 -5 5 -10 10 -10 6 0 10 5 10 10 0 6 -4 10 -10 10 -5 0
-10 -4 -10 -10z"/>
        <path d="M4460 2600 c0 -5 7 -10 16 -10 8 0 12 5 9 10 -3 6 -10 10 -16 10 -5
0 -9 -4 -9 -10z"/>
        <path d="M4622 2524 c-7 -8 -18 -11 -24 -8 -7 4 -8 2 -4 -4 8 -14 46 2 46 18
0 13 -2 12 -18 -6z"/>
        <path d="M4682 2528 c0 -7 -3 -30 -6 -50 -3 -20 -1 -40 4 -43 6 -4 10 12 10
39 0 26 5 46 11 46 5 0 7 5 4 10 -9 14 -21 12 -23 -2z"/>
        <path d="M1733 2513 c-19 -7 -16 -28 8 -49 22 -19 22 -19 14 6 -5 14 -8 31 -8
38 0 6 -1 12 -1 11 -1 0 -7 -3 -13 -6z"/>
        <path d="M1843 2500 c6 -23 4 -23 -41 -11 -20 6 -32 6 -32 0 0 -5 5 -10 10
-10 6 -1 14 -2 20 -3 5 0 15 -7 22 -15 11 -12 10 -13 -4 -8 -10 4 -18 2 -18
-3 0 -5 10 -12 22 -16 l21 -6 -24 -14 c-13 -7 -37 -11 -54 -8 -27 4 -28 4 -12
-9 23 -19 22 -30 -4 -22 -15 5 -19 4 -15 -4 4 -6 16 -11 27 -11 10 0 36 -15
57 -34 39 -35 90 -116 74 -116 -6 0 -12 7 -15 15 -5 11 -18 13 -59 8 -71 -8
-96 -22 -40 -23 47 0 77 -12 105 -41 20 -21 23 -44 5 -33 -10 6 -10 4 0 -8 29
-36 0 -99 -100 -211 -18 -21 -109 -70 -116 -63 -7 8 9 27 32 36 l21 9 -22 0
c-13 1 -23 7 -23 16 0 8 -19 24 -42 35 -48 23 -57 25 -40 8 7 -7 12 -18 12
-25 0 -17 -27 -17 -33 0 -3 6 -3 -4 0 -23 7 -44 -6 -34 -16 13 -11 45 4 62 54
62 56 0 135 -26 136 -45 0 -10 4 -8 11 6 8 18 6 26 -10 42 -11 11 -31 23 -44
27 -23 6 -23 6 -3 -11 19 -16 18 -16 -20 -10 -22 3 -46 6 -52 6 -28 0 -11 18
23 25 42 7 84 25 84 35 0 4 -20 6 -45 4 -25 -1 -45 1 -45 6 0 11 -39 20 -45
10 -3 -5 3 -13 12 -19 19 -10 17 -11 -54 -36 -7 -2 -13 -18 -13 -36 0 -22 -4
-30 -13 -26 -10 4 -13 -2 -9 -18 3 -16 -1 -25 -15 -28 -13 -4 -12 -5 7 -6 l25
-2 -24 -19 c-13 -11 -29 -20 -36 -20 -7 0 -15 -9 -18 -19 -4 -18 0 -19 49 -14
64 7 70 -6 18 -36 -42 -25 -56 -27 -48 -6 5 11 -1 15 -24 15 -29 0 -42 -14
-42 -46 0 -17 37 -19 43 -1 2 6 8 9 12 5 5 -5 -2 -17 -15 -28 -19 -17 -21 -22
-9 -36 11 -13 10 -17 -2 -24 -10 -7 -16 -4 -21 8 -5 12 -7 9 -7 -11 l-1 -29
33 21 c19 12 31 27 29 37 -6 31 25 51 71 47 23 -2 47 -4 52 -4 6 -1 29 2 53 6
32 6 42 5 40 -5 -2 -7 3 -15 11 -18 10 -3 12 0 8 11 -6 16 11 27 44 27 12 0
19 -7 19 -20 0 -29 13 -24 29 11 13 29 16 31 53 25 l40 -7 -4 70 c-2 38 0 67
4 65 8 -5 22 16 23 36 0 8 10 19 21 25 24 12 74 68 74 83 0 5 6 15 14 21 22
18 69 158 62 185 -7 29 -60 43 -81 22 -8 -7 -11 -16 -8 -20 4 -3 -1 -6 -10 -6
-10 0 -17 4 -17 8 0 13 -50 8 -59 -6 -5 -9 -11 -5 -19 13 -16 34 -15 38 4 27
26 -14 54 -3 54 23 0 25 29 55 52 55 25 0 28 45 4 73 -23 27 -85 70 -73 50 5
-9 -3 -8 -27 2 -52 22 -80 20 -73 -5z m134 -362 c-3 -8 -6 -5 -6 6 -1 11 2 17
5 13 3 -3 4 -12 1 -19z m-47 -8 c0 -5 -4 -10 -10 -10 -5 0 -10 5 -10 10 0 6 5
10 10 10 6 0 10 -4 10 -10z m21 -73 c-10 -9 -11 -8 -5 6 3 10 9 15 12 12 3 -3
0 -11 -7 -18z m-93 -119 c-2 -6 -10 -13 -16 -14 -7 -1 -8 0 -2 3 5 2 8 9 4 14
-3 5 0 9 6 9 7 0 10 -5 8 -12z m-190 -37 c11 -6 11 -10 0 -18 -18 -14 -71 -9
-76 7 -3 7 -1 10 4 8 5 -3 18 -2 29 3 26 10 28 10 43 0z"/>
        <path d="M1590 2496 c0 -2 7 -7 16 -10 8 -3 12 -2 9 4 -6 10 -25 14 -25 6z"/>
        <path d="M4613 2475 c-6 -14 -7 -25 -2 -25 6 0 9 -6 7 -12 -3 -21 13 -59 23
-53 5 4 3 12 -4 20 -9 9 -13 28 -10 54 5 48 2 50 -14 16z"/>
        <path d="M1685 2469 c7 -24 31 -49 48 -49 9 0 -28 56 -45 66 -7 4 -8 -2 -3
-17z"/>
        <path d="M4731 2464 c0 -11 3 -14 6 -6 3 7 2 16 -1 19 -3 4 -6 -2 -5 -13z"/>
        <path d="M4786 2464 c-4 -9 -4 -19 -1 -22 3 -3 5 0 5 7 0 7 4 10 8 7 5 -3 9 1
9 9 0 20 -13 19 -21 -1z"/>
        <path d="M1550 2440 c0 -6 -12 -23 -26 -37 -23 -23 -27 -35 -28 -100 -1 -72 9
-94 32 -71 12 12 71 13 105 2 18 -6 19 -5 6 7 -8 8 -28 22 -45 31 -24 14 -34
15 -44 5 -7 -7 -4 2 7 18 36 52 59 68 93 63 39 -6 38 -2 -3 16 -18 7 -45 27
-59 45 -28 32 -38 38 -38 21z"/>
        <path d="M1590 2441 c0 -5 5 -13 10 -16 6 -3 10 -2 10 4 0 5 -4 13 -10 16 -5
3 -10 2 -10 -4z"/>
        <path d="M1691 2414 c13 -16 29 -19 29 -5 0 5 -9 11 -21 14 -16 4 -18 3 -8 -9z"/>
        <path d="M4572 2400 c0 -19 2 -27 5 -17 2 9 2 25 0 35 -3 9 -5 1 -5 -18z"/>
        <path d="M4590 2401 c0 -5 5 -13 10 -16 6 -3 10 -2 10 4 0 5 -4 13 -10 16 -5
3 -10 2 -10 -4z"/>
        <path d="M4672 2370 c7 -10 14 -18 15 -16 6 6 -9 36 -18 36 -5 0 -4 -9 3 -20z"/>
        <path d="M4490 2360 c0 -5 7 -7 15 -4 8 4 15 8 15 10 0 2 -7 4 -15 4 -8 0 -15
-4 -15 -10z"/>
        <path d="M2004 2348 c-3 -4 -9 -6 -14 -3 -15 9 -21 -14 -8 -34 12 -19 13 -18
31 11 17 29 19 29 33 12 14 -18 15 -18 12 1 -3 21 -43 31 -54 13z"/>
        <path d="M958 2287 c-17 -14 -28 -36 -32 -62 -4 -27 -2 -35 4 -25 5 8 10 25
10 37 0 12 5 25 10 28 6 3 10 -2 10 -12 0 -30 -23 -72 -42 -77 -20 -5 -34 9
-18 19 5 3 9 16 9 28 -1 20 -2 21 -6 2 -3 -11 -9 -25 -13 -30 -5 -6 -2 -19 6
-29 8 -11 14 -14 14 -8 0 7 5 12 10 12 16 0 11 -43 -7 -65 -15 -20 -15 -20
-10 3 4 17 2 21 -6 14 -7 -5 -23 -8 -36 -7 -22 2 -22 1 -6 -11 9 -7 15 -17 12
-21 -3 -5 -2 -15 4 -23 6 -10 9 -11 9 -2 0 6 5 12 11 12 7 0 9 -10 5 -25 -4
-14 -2 -25 4 -25 5 0 10 11 10 25 0 14 5 25 11 25 7 0 9 -10 7 -25 -3 -14 -1
-28 3 -31 5 -3 10 5 10 18 3 45 6 65 13 77 4 6 2 11 -3 11 -17 0 -13 47 4 54
9 3 15 18 15 40 0 19 5 47 10 62 14 35 10 38 -22 11z"/>
        <path d="M1553 2223 c-13 -2 -23 -9 -23 -14 0 -6 6 -7 13 -3 9 6 9 5 -1 -8
-10 -12 -9 -18 3 -28 12 -10 15 -10 15 3 0 9 9 21 20 27 19 10 20 9 14 -14 -5
-22 -3 -26 15 -26 12 0 21 6 21 16 0 9 -5 13 -12 9 -7 -4 -5 0 5 8 18 15 18
16 -2 26 -20 11 -29 12 -68 4z"/>
        <path d="M1497 2197 c-3 -8 -1 -20 4 -28 6 -10 9 -7 9 14 0 29 -5 35 -13 14z"/>
        <path d="M1437 2193 c-10 -19 -18 -67 -9 -58 10 11 25 65 18 65 -3 0 -7 -3 -9
-7z"/>
        <path d="M1645 2190 c-3 -5 3 -10 14 -10 11 0 23 5 26 10 3 6 -3 10 -14 10
-11 0 -23 -4 -26 -10z"/>
        <path d="M1716 2177 c3 -10 9 -15 12 -12 3 3 0 11 -7 18 -10 9 -11 8 -5 -6z"/>
        <path d="M1746 2182 c-2 -4 -1 -13 3 -20 5 -9 12 -7 26 8 18 19 18 20 -3 20
-11 0 -23 -4 -26 -8z"/>
        <path d="M2914 2176 c-3 -8 -4 -23 -2 -33 3 -11 6 -6 9 15 6 34 2 42 -7 18z"/>
        <path d="M4005 2180 c-3 -5 -1 -10 4 -10 6 0 11 5 11 10 0 6 -2 10 -4 10 -3 0
-8 -4 -11 -10z"/>
        <path d="M4575 2179 c-4 -6 -4 -13 -1 -16 3 -4 6 -1 6 6 0 8 6 11 16 7 8 -3
12 -2 9 4 -8 13 -22 13 -30 -1z"/>
        <path d="M4627 2173 c3 -7 9 -11 13 -8 5 3 16 -5 24 -17 9 -12 16 -17 16 -11
0 6 -7 18 -15 26 -8 8 -12 16 -10 19 2 2 -4 4 -14 4 -11 0 -17 -6 -14 -13z"/>
        <path d="M1804 2164 c3 -8 2 -12 -3 -9 -5 3 -12 1 -16 -5 -10 -16 23 -24 40
-10 12 10 15 9 15 -4 0 -9 5 -16 10 -16 13 0 13 37 0 45 -5 3 -19 8 -31 10
-15 3 -19 0 -15 -11z"/>
        <path d="M3150 2120 c-24 -33 -45 -60 -46 -60 -2 0 -31 7 -66 16 -142 37 -290
-6 -399 -115 -210 -211 -150 -555 119 -688 73 -36 80 -38 176 -38 56 0 120 6
143 13 63 19 163 91 205 147 64 84 82 144 83 266 0 101 -1 108 -36 178 -35 70
-36 73 -18 94 16 20 18 20 24 5 5 -13 12 -15 30 -8 35 13 47 -6 20 -34 -19
-18 -9 -48 14 -42 9 3 23 1 31 -4 13 -9 12 -13 -5 -28 -26 -22 -21 -52 9 -52
12 0 26 -3 29 -7 10 -10 -13 -33 -33 -33 -13 0 -16 -6 -13 -24 3 -14 10 -23
17 -20 6 2 20 -2 31 -10 19 -15 19 -16 -12 -28 -38 -14 -43 -39 -11 -53 12 -6
24 -16 26 -24 3 -10 -4 -12 -30 -9 -31 3 -34 1 -30 -17 3 -11 15 -27 26 -36
25 -20 17 -32 -19 -31 -33 0 -43 -23 -21 -47 23 -26 20 -34 -13 -29 -35 5 -56
-20 -35 -40 17 -15 18 -42 3 -42 -6 0 -19 4 -29 10 -26 14 -45 -11 -30 -40 16
-31 3 -44 -27 -25 -33 22 -56 5 -42 -31 5 -14 9 -27 9 -30 0 -10 -25 -3 -40
11 -24 22 -51 9 -44 -20 8 -33 -15 -43 -38 -16 -22 28 -45 21 -50 -14 -4 -33
-20 -34 -36 -2 -14 29 -42 27 -42 -3 0 -10 -6 -23 -14 -29 -12 -10 -17 -8 -26
10 -11 19 -9 25 11 40 13 10 19 19 13 19 -6 0 -17 -7 -24 -15 -7 -9 -21 -13
-30 -10 -13 4 -19 -1 -24 -20 -9 -36 -36 -33 -36 5 0 21 -5 30 -16 30 -9 0
-12 5 -8 13 4 6 4 9 -1 5 -4 -4 -13 -18 -19 -30 -16 -32 -41 -30 -39 3 1 15
-6 30 -18 37 -16 10 -22 9 -39 -8 -26 -26 -42 -17 -34 17 4 16 2 28 -7 34 -19
12 -32 11 -24 -1 4 -6 -5 -10 -19 -10 -27 0 -33 14 -17 39 13 20 -16 48 -32
32 -8 -8 -8 -11 2 -11 10 0 12 -9 8 -29 -7 -34 9 -53 40 -45 11 3 24 0 28 -7
5 -7 4 -10 -2 -6 -6 4 -13 0 -17 -8 -3 -9 0 -15 9 -15 8 0 15 -5 15 -11 0 -7
12 -9 30 -7 23 4 30 1 26 -9 -9 -22 15 -39 46 -35 34 5 63 -15 48 -33 -8 -9
-6 -14 6 -19 10 -4 21 0 29 10 14 21 50 11 42 -10 -4 -10 2 -16 16 -18 32 -4
30 -43 -2 -42 -23 1 -23 -1 -18 -55 9 -83 2 -101 -39 -101 -24 0 -34 5 -34 15
0 10 -10 15 -29 15 -23 0 -31 5 -34 23 -3 13 -5 8 -6 -15 -1 -37 -2 -38 -37
-38 -19 0 -33 -4 -30 -9 3 -5 14 -7 25 -4 10 2 25 -2 34 -11 13 -14 16 -14 28
0 13 16 115 18 125 2 9 -14 31 16 26 35 -4 16 -2 18 14 10 10 -5 34 -8 52 -7
22 2 32 -2 32 -12 0 -16 8 -18 67 -14 23 1 56 -1 72 -5 27 -6 30 -10 28 -46
-1 -24 -6 -39 -14 -39 -7 0 -13 6 -13 13 0 8 -3 9 -8 1 -4 -7 -41 -12 -89 -12
-71 -1 -83 1 -83 15 0 15 -1 15 -13 -1 -20 -28 -61 -18 -65 17 -4 37 -22 35
-22 -3 0 -30 -21 -42 -35 -20 -4 6 -13 5 -25 -3 -16 -9 -24 -9 -41 1 -16 10
-24 10 -35 1 -8 -6 -25 -9 -39 -7 -14 3 -25 4 -25 2 0 -3 34 -41 71 -80 26
-28 55 -36 70 -18 9 11 6 14 -17 14 -42 1 -72 26 -58 48 12 19 76 21 82 3 2
-6 8 -11 14 -11 6 0 8 6 5 14 -4 10 0 12 14 9 27 -7 31 -18 14 -33 -20 -16
-19 -26 2 -34 10 -4 14 -4 11 0 -4 3 0 13 8 22 9 8 13 23 11 33 -6 23 21 26
29 5 4 -10 12 -13 27 -7 12 4 53 6 91 5 58 -1 73 -5 87 -23 30 -36 130 -39
164 -4 23 23 19 108 -7 152 -12 20 -29 41 -37 47 -13 10 -13 16 0 50 8 22 21
39 29 39 27 0 34 26 12 47 -20 20 -20 20 -15 -6 4 -21 1 -26 -14 -26 -10 0
-24 5 -30 11 -7 7 -12 -1 -16 -28 -3 -21 -14 -59 -26 -85 -19 -45 -23 -48 -57
-48 -31 0 -35 3 -28 17 4 10 8 28 8 40 1 11 4 19 7 17 3 -2 11 8 17 21 11 23
10 25 -13 25 -20 0 -25 5 -25 27 0 14 -3 23 -7 19 -5 -4 -8 -42 -8 -84 l0 -77
-32 -3 -33 -3 0 55 c0 52 -2 56 -22 55 -14 -1 -17 -3 -7 -6 18 -4 14 -62 -5
-64 -71 -6 -71 -6 -77 38 -5 41 1 66 15 64 3 -1 21 2 39 7 l32 8 -26 7 c-28 7
-42 36 -29 57 6 9 12 8 26 -6 24 -24 65 -19 71 7 6 20 6 20 25 -1 10 -11 25
-20 32 -20 18 0 39 27 32 39 -4 5 -1 13 5 16 6 4 13 -2 16 -14 7 -26 39 -20
64 11 11 14 22 18 40 13 19 -4 26 0 36 21 7 15 10 30 8 34 -8 12 39 -2 47 -14
5 -7 8 -4 8 7 0 9 4 17 9 17 4 0 6 11 3 25 -4 22 -1 25 26 25 39 0 45 9 27 43
-13 25 -12 27 8 27 34 0 49 15 45 43 -1 14 5 34 16 46 12 13 17 29 14 46 -3
14 -1 25 3 25 5 0 9 7 9 15 0 8 5 15 11 15 6 0 0 17 -12 37 -18 29 -20 35 -6
30 11 -4 18 0 22 14 8 25 -3 61 -17 53 -11 -7 -8 24 7 59 6 14 2 17 -19 17
-25 0 -26 1 -13 21 19 27 10 58 -18 65 -20 5 -22 10 -15 39 7 29 5 34 -15 39
-17 4 -22 12 -21 36 1 22 5 28 16 25 25 -8 20 58 -5 69 -13 5 -16 10 -7 13 6
3 12 9 12 14 0 4 -6 6 -14 3 -8 -3 -20 3 -27 14 -8 10 -26 27 -41 36 -15 10
-25 23 -22 30 3 6 -1 2 -10 -8 -17 -21 -13 -36 10 -36 8 0 14 -7 14 -15 0 -8
12 -21 28 -30 23 -13 24 -15 4 -9 -16 4 -31 0 -44 -13 -19 -16 -21 -16 -15 -1
3 9 1 19 -6 22 -7 3 -1 3 13 0 19 -4 22 -3 10 5 -24 17 -47 13 -53 -9 -3 -12
-14 -20 -26 -20 -21 0 -30 -25 -12 -32 5 -1 3 -11 -4 -21 -9 -13 -20 -17 -34
-12 -26 8 -81 59 -81 76 0 7 17 -4 38 -24 l38 -37 18 35 c10 18 29 44 42 56
13 12 24 30 24 40 0 10 5 21 10 24 17 11 11 23 -24 44 -51 32 -66 27 -116 -39z
m-160 -187 c0 -7 -4 -13 -10 -13 -5 0 -10 -5 -10 -12 0 -6 9 -3 20 7 14 13 37
19 68 19 44 1 47 -1 50 -26 3 -21 -1 -28 -15 -29 -14 0 -15 -2 -3 -6 8 -3 18
-11 22 -17 11 -16 10 -94 -2 -98 -5 -2 1 -35 15 -78 l24 -75 1 73 0 72 30 0
30 0 0 -60 0 -60 30 0 c23 0 30 -4 30 -20 0 -11 -6 -20 -12 -21 -116 -8 -160
-6 -165 7 -7 19 -53 18 -53 0 0 -11 -15 -15 -65 -15 -41 0 -65 4 -65 11 0 6
-3 8 -6 5 -4 -4 -1 -13 6 -22 7 -8 23 -47 35 -87 l23 -73 1 78 1 77 31 0 30 0
-2 -57 -3 -58 32 -3 32 -3 0 60 0 61 65 0 c58 0 65 -2 65 -20 0 -16 -7 -20
-35 -20 -19 0 -35 -4 -35 -10 0 -5 14 -10 30 -10 23 0 30 -4 30 -20 0 -16 -7
-20 -35 -20 -19 0 -35 -4 -35 -10 0 -5 16 -10 35 -10 27 0 35 -4 35 -19 0 -21
-42 -28 -198 -30 -75 -2 -93 1 -98 13 -8 21 -54 21 -54 1 0 -18 -46 -21 -52
-4 -3 9 -10 9 -27 0 -24 -14 -81 -6 -93 13 -18 27 -8 37 30 30 42 -8 39 0 -10
24 -26 14 -33 23 -33 47 0 22 6 33 23 40 12 6 20 16 17 23 -3 8 -5 23 -6 35
l0 22 -9 -22 c-11 -26 -40 -35 -101 -31 l-44 3 0 75 0 75 57 3 c48 2 60 0 77
-19 l21 -23 0 27 c0 21 5 27 23 27 12 0 18 4 12 8 -15 11 -16 32 -1 26 10 -4
17 14 27 67 l14 72 42 4 c23 2 52 -1 63 -7 15 -8 20 -8 20 2 0 8 14 13 40 13
25 0 40 -5 40 -12z m160 -13 c0 -5 -5 -10 -11 -10 -5 0 -7 5 -4 10 3 6 8 10
11 10 2 0 4 -4 4 -10z m-5 -50 c3 -5 -1 -10 -9 -10 -9 0 -16 5 -16 10 0 6 4
10 9 10 6 0 13 -4 16 -10z m193 -202 l3 -78 -31 0 -30 0 0 81 0 80 28 -3 c27
-3 27 -4 30 -80z m-78 -810 c56 -76 0 -164 -84 -132 -26 10 -18 25 10 18 26
-7 26 -6 23 47 -3 54 6 99 20 99 4 0 18 -15 31 -32z"/>
        <path d="M2830 1880 c0 -5 5 -10 11 -10 5 0 7 5 4 10 -3 6 -8 10 -11 10 -2 0
-4 -4 -4 -10z"/>
        <path d="M3048 1879 c-22 -12 -23 -42 -3 -59 10 -9 15 -9 15 -1 0 6 -4 11 -10
11 -16 0 -11 32 8 46 20 16 14 18 -10 3z"/>
        <path d="M3011 1734 c0 -11 3 -14 6 -6 3 7 2 16 -1 19 -3 4 -6 -2 -5 -13z"/>
        <path d="M2772 1653 c0 -53 4 -73 14 -77 8 -3 14 -17 14 -31 0 -24 -2 -25 -36
-19 -27 5 -35 4 -30 -5 4 -6 15 -11 25 -11 18 0 45 -25 52 -47 2 -7 11 17 20
53 l15 66 -23 -5 c-13 -2 -23 -1 -24 2 -1 3 -2 17 -4 31 -2 14 -8 45 -13 70
-9 44 -10 44 -10 -27z"/>
        <path d="M2610 1669 c0 -33 3 -40 18 -37 21 4 29 57 10 69 -23 15 -28 10 -28
-32z"/>
        <path d="M2996 1684 c-4 -14 -5 -28 -3 -31 3 -2 8 8 11 23 4 14 5 28 3 31 -3
2 -8 -8 -11 -23z"/>
        <path d="M3061 1664 c0 -11 3 -14 6 -6 3 7 2 16 -1 19 -3 4 -6 -2 -5 -13z"/>
        <path d="M2886 1625 c-9 -26 -7 -32 5 -12 6 10 9 21 6 23 -2 3 -7 -2 -11 -11z"/>
        <path d="M4845 2170 c3 -5 8 -10 11 -10 2 0 4 5 4 10 0 6 -5 10 -11 10 -5 0
-7 -4 -4 -10z"/>
        <path d="M3082 2149 c-19 -30 -8 -34 12 -4 9 14 13 25 9 25 -5 0 -14 -9 -21
-21z"/>
        <path d="M4032 2145 c0 -16 2 -22 5 -12 2 9 2 23 0 30 -3 6 -5 -1 -5 -18z"/>
        <path d="M4536 2154 c-9 -24 -2 -26 12 -4 7 11 8 20 3 20 -5 0 -12 -7 -15 -16z"/>
        <path d="M4265 2150 c3 -5 8 -10 11 -10 2 0 4 5 4 10 0 6 -5 10 -11 10 -5 0
-7 -4 -4 -10z"/>
        <path d="M2821 2134 c0 -11 3 -14 6 -6 3 7 2 16 -1 19 -3 4 -6 -2 -5 -13z"/>
        <path d="M3545 2139 c-4 -6 -5 -12 -2 -15 2 -3 7 2 10 11 7 17 1 20 -8 4z"/>
        <path d="M3035 2130 c-3 -6 1 -7 9 -4 18 7 21 14 7 14 -6 0 -13 -4 -16 -10z"/>
        <path d="M4870 2121 c0 -11 4 -21 9 -21 18 0 21 18 6 30 -13 10 -15 9 -15 -9z"/>
        <path d="M2666 2121 c-7 -11 -4 -83 3 -75 5 5 9 84 4 84 -1 0 -4 -4 -7 -9z"/>
        <path d="M4589 2113 c-13 -16 -12 -17 2 -5 14 10 18 10 22 -2 3 -8 1 -17 -6
-20 -9 -3 -9 -5 0 -5 19 -1 23 15 10 33 -12 17 -14 17 -28 -1z"/>
        <path d="M4743 2123 c-7 -2 -13 -12 -13 -21 1 -16 2 -16 14 0 7 10 17 14 21
10 5 -4 5 -1 1 6 -4 6 -8 12 -9 11 -1 0 -8 -3 -14 -6z"/>
        <path d="M4178 2114 c-2 -5 6 -29 19 -54 12 -25 23 -38 23 -29 0 9 -3 19 -7
23 -5 4 -13 21 -19 39 -6 17 -13 27 -16 21z"/>
        <path d="M4670 2100 c0 -11 2 -20 4 -20 2 0 6 9 9 20 3 11 1 20 -4 20 -5 0 -9
-9 -9 -20z"/>
        <path d="M3530 2099 c0 -5 5 -7 10 -4 6 3 10 8 10 11 0 2 -4 4 -10 4 -5 0 -10
-5 -10 -11z"/>
        <path d="M4457 2081 c-4 -17 -3 -21 5 -13 5 5 8 16 6 23 -3 8 -7 3 -11 -10z"/>
        <path d="M4760 2091 c0 -6 4 -13 10 -16 6 -3 7 1 4 9 -7 18 -14 21 -14 7z"/>
        <path d="M4524 2066 c-8 -21 6 -38 23 -28 8 5 8 12 -3 26 -12 18 -14 18 -20 2z"/>
        <path d="M4736 2065 c-3 -9 -6 -22 -5 -28 0 -7 5 -1 10 12 5 13 8 26 5 28 -2
2 -6 -3 -10 -12z"/>
        <path d="M4132 2050 c14 -22 24 -19 15 5 -4 8 -11 15 -17 15 -6 0 -6 -7 2 -20z"/>
        <path d="M1512 2040 c0 -14 2 -19 5 -12 2 6 2 18 0 25 -3 6 -5 1 -5 -13z"/>
        <path d="M4662 2048 c-14 -14 -16 -28 -3 -28 9 0 24 30 18 36 -2 2 -9 -2 -15
-8z"/>
        <path d="M4757 2053 c-4 -3 -7 -13 -7 -22 1 -13 3 -13 11 2 11 19 8 33 -4 20z"/>
        <path d="M4460 2036 c0 -8 4 -17 9 -20 5 -4 7 3 4 14 -6 23 -13 26 -13 6z"/>
        <path d="M4993 2028 c-1 -10 4 -18 10 -18 7 0 13 8 14 18 1 10 -4 19 -11 19
-6 0 -13 -9 -13 -19z"/>
        <path d="M2590 2031 c0 -6 5 -13 12 -17 8 -5 5 -11 -7 -20 -10 -8 -16 -16 -13
-20 4 -3 15 3 25 13 17 17 17 19 1 36 -10 9 -18 13 -18 8z"/>
        <path d="M4860 2010 c0 -12 -5 -31 -11 -43 -10 -21 -9 -21 10 2 23 25 27 46
11 56 -5 3 -10 -3 -10 -15z"/>
        <path d="M375 1997 c-12 -18 -15 -19 -15 -4 0 10 -8 17 -20 17 -11 0 -20 -7
-20 -15 0 -8 -4 -15 -10 -15 -5 0 -10 7 -10 15 0 19 -9 19 -32 -2 -17 -15 -18
-15 -18 2 0 34 -14 5 -16 -33 -1 -20 -5 -67 -8 -103 -4 -49 -2 -71 9 -85 13
-16 16 -17 25 -4 9 13 11 13 20 0 7 -12 4 -16 -18 -21 -21 -5 -18 -7 18 -8 27
0 40 3 32 8 -10 6 -10 10 3 21 12 10 15 10 15 0 0 -9 9 -11 30 -6 17 3 30 1
30 -4 0 -6 6 -10 13 -10 9 0 12 11 9 35 -3 25 0 36 12 41 18 7 22 34 5 34 -5
0 -7 -4 -4 -10 3 -5 2 -10 -4 -10 -5 0 -8 17 -5 38 11 106 9 138 -8 139 -10 1
-25 -8 -33 -20z m-98 -59 c-3 -7 -5 -2 -5 12 0 14 2 19 5 13 2 -7 2 -19 0 -25z
m59 -5 c-11 -11 -19 6 -11 24 8 17 8 17 12 0 3 -10 2 -21 -1 -24z m60 0 c-11
-11 -19 6 -11 24 8 17 8 17 12 0 3 -10 2 -21 -1 -24z m-136 -28 c0 -8 -4 -15
-10 -15 -5 0 -10 7 -10 15 0 8 5 15 10 15 6 0 10 -7 10 -15z m46 -22 c-11 -11
-19 6 -11 24 8 17 8 17 12 0 3 -10 2 -21 -1 -24z m51 5 c-3 -7 -5 -2 -5 12 0
14 2 19 5 13 2 -7 2 -19 0 -25z m-80 -40 c-3 -8 -6 -5 -6 6 -1 11 2 17 5 13 3
-3 4 -12 1 -19z m50 -10 c-3 -7 -5 -2 -5 12 0 14 2 19 5 13 2 -7 2 -19 0 -25z
m59 -5 c-11 -11 -17 4 -9 23 7 18 8 18 11 1 2 -10 1 -21 -2 -24z m-134 -35
c-9 -9 -12 -7 -12 12 0 19 3 21 12 12 9 -9 9 -15 0 -24z m45 -5 c-3 -10 -5 -4
-5 12 0 17 2 24 5 18 2 -7 2 -21 0 -30z m63 7 c0 -11 -4 -20 -10 -20 -5 0 -10
9 -10 20 0 11 5 20 10 20 6 0 10 -9 10 -20z"/>
        <path d="M4678 2013 c-3 -4 3 -16 14 -25 21 -21 24 -11 4 15 -8 10 -16 15 -18
10z"/>
        <path d="M4434 1998 c-4 -7 -4 -10 1 -6 4 4 17 2 29 -4 19 -10 20 -10 7 5 -16
20 -27 21 -37 5z"/>
        <path d="M4805 2000 c-3 -5 -1 -10 4 -10 6 0 11 5 11 10 0 6 -2 10 -4 10 -3 0
-8 -4 -11 -10z"/>
        <path d="M800 1990 c8 -5 40 -10 70 -10 30 0 89 -7 130 -15 171 -35 182 -24
15 14 -93 22 -243 29 -215 11z"/>
        <path d="M4000 1990 c-9 -6 -10 -10 -3 -10 6 0 15 5 18 10 8 12 4 12 -15 0z"/>
        <path d="M4166 1985 c-11 -8 -15 -15 -9 -15 7 0 15 5 18 10 4 6 11 7 17 4 7
-4 8 -2 4 4 -9 14 -7 15 -30 -3z"/>
        <path d="M4220 1991 c0 -10 19 -25 25 -20 1 2 -3 10 -11 17 -8 7 -14 8 -14 3z"/>
        <path d="M4620 1996 c0 -2 8 -10 18 -17 15 -13 16 -12 3 4 -13 16 -21 21 -21
13z"/>
        <path d="M3746 1981 c-17 -6 -17 -8 -3 -14 8 -3 21 1 27 9 13 15 6 17 -24 5z"/>
        <path d="M480 1971 c0 -11 29 -35 35 -29 2 2 -4 12 -15 21 -11 9 -20 13 -20 8z"/>
        <path d="M709 1963 c-13 -16 -12 -17 4 -4 9 7 17 15 17 17 0 8 -8 3 -21 -13z"/>
        <path d="M4125 1970 c-3 -5 -1 -10 4 -10 6 0 11 5 11 10 0 6 -2 10 -4 10 -3 0
-8 -4 -11 -10z"/>
        <path d="M4433 1970 c2 -8 13 -16 25 -16 12 -1 19 3 16 8 -3 4 -10 5 -16 2 -6
-4 -15 0 -20 7 -8 12 -9 11 -5 -1z"/>
        <path d="M4579 1967 c9 -12 17 -14 26 -7 6 5 14 9 16 7 2 -1 0 3 -5 8 -5 7
-10 6 -13 -3 -4 -10 -8 -10 -21 0 -15 12 -16 11 -3 -5z"/>
        <path d="M4726 1968 c3 -5 9 -6 14 -3 13 8 40 -6 40 -21 0 -8 5 -14 10 -14 13
0 13 17 -1 26 -8 5 -8 8 0 14 7 3 -6 6 -28 6 -22 0 -37 -4 -35 -8z"/>
        <path d="M4877 1965 c-4 -8 -3 -16 1 -19 4 -3 9 4 9 15 2 23 -3 25 -10 4z"/>
        <path d="M438 1953 c7 -3 16 -2 19 1 4 3 -2 6 -13 5 -11 0 -14 -3 -6 -6z"/>
        <path d="M4677 1949 c7 -7 15 -10 18 -7 3 3 -2 9 -12 12 -14 6 -15 5 -6 -5z"/>
        <path d="M1180 1930 c14 -4 34 -8 45 -8 16 0 15 2 -5 8 -14 4 -34 8 -45 8 -16
0 -15 -2 5 -8z"/>
        <path d="M2470 1916 c0 -8 4 -17 9 -20 5 -4 7 3 4 14 -6 23 -13 26 -13 6z"/>
        <path d="M4578 1923 c7 -3 16 -2 19 1 4 3 -2 6 -13 5 -11 0 -14 -3 -6 -6z"/>
        <path d="M1285 1910 c3 -5 18 -10 33 -9 24 0 25 1 7 9 -28 12 -47 12 -40 0z"/>
        <path d="M4075 1910 c3 -5 8 -10 11 -10 2 0 4 5 4 10 0 6 -5 10 -11 10 -5 0
-7 -4 -4 -10z"/>
        <path d="M504 1899 c-3 -6 -1 -16 5 -22 9 -9 11 -7 6 8 -6 18 -4 17 14 -4 12
-13 21 -19 21 -13 0 10 -27 42 -35 42 -2 0 -7 -5 -11 -11z"/>
        <path d="M570 1893 c0 -8 5 -11 10 -8 6 3 10 -3 10 -14 0 -13 7 -21 17 -21 13
0 14 3 5 12 -7 7 -12 19 -12 28 0 9 -7 17 -15 17 -8 0 -15 -7 -15 -14z"/>
        <path d="M4875 1900 c3 -5 8 -10 11 -10 2 0 4 5 4 10 0 6 -5 10 -11 10 -5 0
-7 -4 -4 -10z"/>
        <path d="M798 1865 c5 -29 8 -31 15 -11 3 8 0 19 -7 25 -10 9 -12 6 -8 -14z"/>
        <path d="M3650 1879 c0 -5 7 -9 15 -9 9 0 18 -7 21 -15 4 -8 10 -15 15 -15 5
0 4 9 -3 19 -13 21 -48 35 -48 20z"/>
        <path d="M4620 1880 c0 -5 9 -14 20 -20 11 -6 20 -9 20 -8 0 2 -9 11 -20 21
-11 9 -20 13 -20 7z"/>
        <path d="M655 1869 c-4 -6 -5 -12 -2 -15 2 -3 7 2 10 11 7 17 1 20 -8 4z"/>
        <path d="M2496 1864 c-4 -9 -4 -19 -1 -22 2 -3 7 3 11 12 4 9 4 19 1 22 -2 3
-7 -3 -11 -12z"/>
        <path d="M3475 1870 c-3 -5 -1 -10 4 -10 6 0 11 5 11 10 0 6 -2 10 -4 10 -3 0
-8 -4 -11 -10z"/>
        <path d="M4475 1871 c-3 -5 -1 -12 5 -16 5 -3 10 1 10 9 0 18 -6 21 -15 7z"/>
        <path d="M4573 1861 c-10 -16 -9 -22 3 -32 8 -7 12 -19 9 -28 -5 -13 -4 -13 6
-4 10 10 9 16 -5 32 -12 13 -14 20 -5 23 7 2 10 9 8 16 -3 8 -8 5 -16 -7z"/>
        <path d="M4875 1867 c-14 -11 -16 -17 -6 -35 6 -12 14 -22 17 -22 3 0 3 4 -1
9 -3 5 4 12 15 16 23 7 25 18 7 34 -10 8 -18 7 -32 -2z m35 -11 c0 -2 -9 -6
-20 -9 -11 -3 -20 -1 -20 4 0 5 9 9 20 9 11 0 20 -2 20 -4z"/>
        <path d="M4796 1858 c3 -5 10 -6 15 -3 13 9 11 12 -6 12 -8 0 -12 -4 -9 -9z"/>
        <path d="M714 1849 c-3 -6 -1 -16 5 -22 8 -8 11 -5 11 11 0 24 -5 28 -16 11z"/>
        <path d="M2430 1835 c0 -8 2 -15 4 -15 2 0 6 7 10 15 3 8 1 15 -4 15 -6 0 -10
-7 -10 -15z"/>
        <path d="M3630 1838 c0 -9 5 -20 10 -23 13 -8 13 5 0 25 -8 13 -10 13 -10 -2z"/>
        <path d="M4350 1840 c-9 -6 -10 -10 -3 -10 6 0 15 5 18 10 8 12 4 12 -15 0z"/>
        <path d="M4395 1840 c-3 -5 -1 -10 4 -10 6 0 11 5 11 10 0 6 -2 10 -4 10 -3 0
-8 -4 -11 -10z"/>
        <path d="M4785 1830 c-3 -5 -4 -10 0 -10 3 0 -1 -13 -10 -30 -9 -16 -12 -30
-8 -30 12 1 42 70 32 75 -4 3 -10 1 -14 -5z"/>
        <path d="M4825 1830 c-3 -5 1 -10 10 -10 9 0 13 5 10 10 -3 6 -8 10 -10 10 -2
0 -7 -4 -10 -10z"/>
        <path d="M780 1820 c-9 -6 -10 -10 -3 -10 6 0 15 5 18 10 8 12 4 12 -15 0z"/>
        <path d="M3710 1820 c-8 -5 -11 -12 -8 -16 4 -3 14 1 23 10 18 17 9 21 -15 6z"/>
        <path d="M4712 1825 c4 -4 3 -14 -4 -22 -8 -11 -7 -12 6 -7 19 7 21 20 4 30
-7 4 -10 4 -6 -1z"/>
        <path d="M3755 1810 c-3 -5 -1 -10 4 -10 6 0 11 5 11 10 0 6 -2 10 -4 10 -3 0
-8 -4 -11 -10z"/>
        <path d="M4515 1809 c-4 -6 -5 -12 -2 -15 2 -3 7 2 10 11 7 17 1 20 -8 4z"/>
        <path d="M4654 1812 c-8 -5 -5 -13 9 -27 20 -20 20 -20 9 1 -6 12 -8 24 -5 28
9 8 1 7 -13 -2z"/>
        <path d="M525 1800 c-4 -6 1 -7 11 -3 13 5 16 2 11 -9 -4 -12 -1 -14 14 -11
18 5 19 6 2 19 -22 16 -30 17 -38 4z"/>
        <path d="M667 1799 c7 -7 15 -10 18 -7 3 3 -2 9 -12 12 -14 6 -15 5 -6 -5z"/>
        <path d="M4336 1802 c-2 -4 4 -8 14 -8 10 0 16 4 14 8 -3 4 -9 8 -14 8 -5 0
-11 -4 -14 -8z"/>
        <path d="M4390 1805 c0 -7 30 -13 34 -7 3 4 -4 9 -15 9 -10 1 -19 0 -19 -2z"/>
        <path d="M4826 1802 c-3 -5 1 -9 9 -9 8 0 15 4 15 9 0 4 -4 8 -9 8 -6 0 -12
-4 -15 -8z"/>
        <path d="M717 1793 c-3 -5 -2 -15 2 -22 7 -10 10 -10 16 -1 4 6 3 16 -3 22 -5
5 -12 6 -15 1z"/>
        <path d="M2467 1781 c-4 -17 -3 -21 5 -13 5 5 8 16 6 23 -3 8 -7 3 -11 -10z"/>
        <path d="M4870 1791 c0 -5 5 -13 10 -16 6 -3 10 -2 10 4 0 5 -4 13 -10 16 -5
3 -10 2 -10 -4z"/>
        <path d="M4614 1778 c-4 -7 -3 -10 1 -5 5 4 17 0 27 -10 10 -9 20 -14 22 -12
2 2 -6 12 -19 22 -18 13 -25 14 -31 5z"/>
        <path d="M655 1770 c3 -5 10 -10 16 -10 5 0 9 5 9 10 0 6 -7 10 -16 10 -8 0
-12 -4 -9 -10z"/>
        <path d="M4376 1763 c-4 -5 -13 -8 -18 -8 -6 0 -13 -7 -15 -15 -4 -12 -3 -12
5 -1 6 9 11 10 13 2 2 -6 10 -2 17 9 12 20 12 26 -2 13z"/>
        <path d="M4488 1758 c5 -5 16 -8 23 -6 8 3 3 7 -10 11 -17 4 -21 3 -13 -5z"/>
        <path d="M4800 1760 c8 -5 20 -10 25 -10 6 0 3 5 -5 10 -8 5 -19 10 -25 10 -5
0 -3 -5 5 -10z"/>
        <path d="M4840 1762 c0 -6 9 -12 20 -15 11 -3 20 -3 20 -1 0 2 -9 8 -20 14
-11 6 -20 7 -20 2z"/>
        <path d="M1812 1739 c-16 -25 -11 -32 14 -22 21 9 29 43 10 43 -6 0 -17 -9
-24 -21z"/>
        <path d="M1868 1753 c7 -3 16 -2 19 1 4 3 -2 6 -13 5 -11 0 -14 -3 -6 -6z"/>
        <path d="M4690 1756 c0 -2 7 -7 16 -10 8 -3 12 -2 9 4 -6 10 -25 14 -25 6z"/>
        <path d="M776 1727 c-9 -35 -7 -47 8 -41 14 5 19 51 6 59 -4 3 -10 -5 -14 -18z"/>
        <path d="M2410 1741 c0 -6 4 -13 10 -16 6 -3 7 1 4 9 -7 18 -14 21 -14 7z"/>
        <path d="M4385 1739 c-4 -6 -5 -12 -2 -15 2 -3 7 2 10 11 7 17 1 20 -8 4z"/>
        <path d="M4780 1746 c0 -2 7 -7 16 -10 8 -3 12 -2 9 4 -6 10 -25 14 -25 6z"/>
        <path d="M350 1736 c0 -2 16 -6 35 -8 19 -2 35 0 35 4 0 4 -16 8 -35 8 -19 0
-35 -2 -35 -4z"/>
        <path d="M1650 1730 c0 -5 5 -10 11 -10 7 0 18 -8 25 -17 12 -17 12 -17 9 2
-2 11 -4 23 -4 28 -1 11 -41 8 -41 -3z"/>
        <path d="M4682 1726 c7 -8 15 -12 17 -11 5 6 -10 25 -20 25 -5 0 -4 -6 3 -14z"/>
        <path d="M4836 1733 c5 -5 12 -12 16 -18 4 -6 8 -2 8 8 0 9 -7 17 -17 17 -9 0
-12 -3 -7 -7z"/>
        <path d="M1865 1720 c4 -6 11 -8 16 -5 14 9 11 15 -7 15 -8 0 -12 -5 -9 -10z"/>
        <path d="M4770 1722 c0 -5 7 -9 15 -9 8 0 12 4 9 9 -3 4 -9 8 -15 8 -5 0 -9
-4 -9 -8z"/>
        <path d="M4890 1720 c-9 -6 -10 -10 -3 -10 6 0 15 5 18 10 8 12 4 12 -15 0z"/>
        <path d="M598 1713 c7 -3 16 -2 19 1 4 3 -2 6 -13 5 -11 0 -14 -3 -6 -6z"/>
        <path d="M1770 1710 c0 -9 39 -25 45 -18 2 2 -7 8 -21 15 -13 6 -24 7 -24 3z"/>
        <path d="M2452 1715 c4 -4 3 -14 -3 -22 -9 -10 -8 -13 5 -13 19 0 22 26 4 36
-7 4 -10 4 -6 -1z"/>
        <path d="M125 1701 c-3 -5 -1 -12 5 -16 5 -3 10 1 10 9 0 18 -6 21 -15 7z"/>
        <path d="M175 1699 c-4 -6 -5 -12 -2 -15 2 -3 7 2 10 11 7 17 1 20 -8 4z"/>
        <path d="M1844 1699 c-3 -5 -2 -9 3 -10 4 0 -5 -7 -22 -15 -26 -13 -26 -14 -5
-10 13 3 43 0 66 -5 32 -8 45 -18 53 -38 12 -32 77 -108 86 -100 3 4 -15 34
-40 68 -31 42 -59 68 -87 81 -30 13 -36 19 -22 22 17 3 16 5 -3 10 -13 3 -26
2 -29 -3z"/>
        <path d="M332 1679 c-7 -11 -11 -24 -8 -27 10 -9 28 15 24 32 -2 14 -5 13 -16
-5z"/>
        <path d="M90 1681 c0 -5 5 -13 10 -16 6 -3 10 -2 10 4 0 5 -4 13 -10 16 -5 3
-10 2 -10 -4z"/>
        <path d="M147 1656 c-10 -8 -14 -16 -10 -19 5 -3 14 3 21 14 14 22 13 23 -11
5z"/>
        <path d="M2423 1638 c15 -13 27 -29 27 -36 0 -7 4 -11 9 -7 6 3 9 14 8 25 -1
10 -5 16 -10 13 -4 -2 -20 3 -35 12 l-27 16 28 -23z"/>
        <path d="M1592 1637 c-10 -11 -9 -17 2 -26 17 -14 26 -3 17 22 -6 16 -9 17
-19 4z"/>
        <path d="M165 1631 c-3 -5 -1 -12 4 -15 5 -3 11 1 15 9 6 16 -9 21 -19 6z"/>
        <path d="M1630 1629 c0 -5 5 -7 10 -4 6 3 10 8 10 11 0 2 -4 4 -10 4 -5 0 -10
-5 -10 -11z"/>
        <path d="M1485 1620 c4 -6 11 -8 16 -5 14 9 11 15 -7 15 -8 0 -12 -5 -9 -10z"/>
        <path d="M80 1600 c0 -5 5 -10 10 -10 6 0 10 5 10 10 0 6 -4 10 -10 10 -5 0
-10 -4 -10 -10z"/>
        <path d="M111 1592 c-10 -19 5 -102 18 -102 12 0 30 75 20 85 -5 5 -9 0 -9
-15 0 -19 -3 -21 -12 -12 -10 10 -10 17 0 32 15 24 15 30 2 30 -5 0 -14 -8
-19 -18z"/>
        <path d="M1543 1550 c-20 -54 -20 -59 -5 -75 13 -13 13 -16 2 -9 -28 16 -47
14 -25 -3 14 -11 16 -17 8 -20 -7 -3 -13 -11 -13 -19 0 -8 -5 -14 -10 -14 -11
0 -20 17 -24 46 -4 24 -24 30 -32 10 -7 -19 -21 -20 -39 -3 -8 9 -10 19 -4 29
5 9 10 28 11 42 1 14 6 26 11 26 5 0 2 6 -5 14 -8 7 -29 13 -46 12 -26 -1 -34
-6 -38 -26 -3 -14 -9 -34 -12 -45 -4 -11 -8 -33 -9 -50 -1 -16 -4 -50 -7 -75
-3 -25 -5 -62 -5 -82 0 -20 -4 -39 -9 -42 -5 -3 -7 -16 -5 -30 4 -21 13 -26
65 -35 62 -11 73 -8 127 32 36 26 82 21 132 -14 l44 -30 -42 40 c-47 45 -90
54 -131 25 -20 -14 -22 -14 -22 4 0 11 7 25 15 32 8 7 15 21 15 32 0 11 8 22
19 25 13 3 31 35 56 96 21 51 44 100 52 109 11 12 12 21 4 35 -6 10 -11 15
-11 11 0 -4 -10 -4 -23 1 -22 9 -25 5 -44 -49z m-43 -170 c0 -5 -2 -10 -4 -10
-3 0 -8 5 -11 10 -3 6 -1 10 4 10 6 0 11 -4 11 -10z"/>
        <path d="M3730 1580 c-11 -7 -6 -10 20 -10 26 0 31 3 20 10 -8 5 -17 10 -20
10 -3 0 -12 -5 -20 -10z"/>
        <path d="M210 1554 c0 -8 5 -12 10 -9 6 3 10 10 10 16 0 5 -4 9 -10 9 -5 0
-10 -7 -10 -16z"/>
        <path d="M3670 1555 c0 -8 4 -15 10 -15 5 0 7 7 4 15 -4 8 -8 15 -10 15 -2 0
-4 -7 -4 -15z"/>
        <path d="M270 1550 c0 -5 5 -10 11 -10 5 0 7 5 4 10 -3 6 -8 10 -11 10 -2 0
-4 -4 -4 -10z"/>
        <path d="M305 1550 c-3 -5 -1 -10 4 -10 6 0 11 5 11 10 0 6 -2 10 -4 10 -3 0
-8 -4 -11 -10z"/>
        <path d="M3716 1544 c-9 -24 -4 -25 23 -3 22 18 22 19 3 19 -11 0 -23 -7 -26
-16z"/>
        <path d="M70 1523 c0 -10 4 -14 8 -8 4 6 11 13 16 18 5 4 2 7 -7 7 -10 0 -17
-8 -17 -17z"/>
        <path d="M250 1514 c0 -8 5 -12 10 -9 6 3 10 10 10 16 0 5 -4 9 -10 9 -5 0
-10 -7 -10 -16z"/>
        <path d="M1446 1516 c4 -10 18 -16 38 -15 l31 1 -27 8 c-14 4 -31 11 -37 14
-7 4 -8 1 -5 -8z"/>
        <path d="M2458 1513 c-28 -33 -31 -48 -4 -19 15 15 25 30 23 32 -2 2 -11 -4
-19 -13z"/>
        <path d="M3646 1507 c-5 -15 -6 -31 -2 -34 11 -11 18 5 14 34 l-4 28 -8 -28z"/>
        <path d="M317 1513 c-4 -3 -7 -11 -7 -17 0 -6 5 -5 12 2 6 6 9 14 7 17 -3 3
-9 2 -12 -2z"/>
        <path d="M81 1487 c-6 -8 -8 -17 -4 -20 3 -4 1 -7 -5 -7 -15 0 -16 -37 -1 -46
17 -10 31 11 34 50 2 38 -5 45 -24 23z m9 -58 c0 -6 -4 -7 -10 -4 -5 3 -10 11
-10 16 0 6 5 7 10 4 6 -3 10 -11 10 -16z"/>
        <path d="M214 1489 c-7 -12 1 -22 21 -25 8 -1 15 4 15 11 0 17 -27 27 -36 14z"/>
        <path d="M3670 1475 c0 -9 10 -20 23 -25 27 -12 56 -31 75 -47 7 -7 18 -13 23
-13 16 0 10 20 -8 27 -27 10 -53 36 -54 53 0 10 -2 11 -6 3 -5 -15 -43 -18
-43 -4 0 5 6 12 13 14 7 3 5 6 -5 6 -10 1 -18 -6 -18 -14z"/>
        <path d="M4653 1483 c-21 -8 -15 -44 7 -50 24 -6 21 -29 -4 -25 -9 2 -16 -2
-16 -8 0 -16 50 -12 57 6 4 10 -4 24 -23 40 l-29 23 28 1 c16 0 26 4 22 10 -7
11 -22 12 -42 3z"/>
        <path d="M4720 1440 c0 -27 5 -50 10 -50 6 0 10 9 10 20 0 13 7 20 20 20 13 0
20 -7 20 -20 0 -11 5 -20 10 -20 6 0 10 23 10 52 0 28 -3 48 -7 44 -5 -4 -8
-13 -8 -19 0 -7 -10 -13 -22 -15 -18 -3 -23 2 -23 17 0 12 -4 21 -10 21 -5 0
-10 -22 -10 -50z"/>
        <path d="M4835 1470 c-28 -30 -10 -74 30 -78 36 -3 50 6 59 35 5 15 1 28 -13
42 -27 27 -53 27 -76 1z m66 -16 c9 -11 10 -20 2 -32 -13 -22 -43 -22 -56 -1
-24 38 25 68 54 33z"/>
        <path d="M4947 1484 c-10 -10 -9 -82 2 -88 5 -3 11 3 14 14 3 12 14 20 26 20
23 0 39 26 25 40 -13 13 -59 22 -67 14z m51 -26 c-3 -7 -11 -13 -18 -13 -7 0
-15 6 -17 13 -3 7 4 12 17 12 13 0 20 -5 18 -12z"/>
        <path d="M5076 1482 c-8 -14 -4 -92 5 -92 5 0 9 14 9 30 0 38 10 38 32 0 26
-46 48 -39 48 14 0 55 -18 70 -22 19 l-3 -38 -19 32 c-20 33 -42 48 -50 35z"/>
        <path d="M5208 1479 c-21 -12 -24 -59 -6 -77 7 -7 24 -12 38 -12 32 0 50 17
50 46 0 44 -43 66 -82 43z m60 -35 c4 -25 -20 -47 -42 -38 -16 6 -22 45 -9 58
14 14 48 1 51 -20z"/>
        <path d="M5350 1458 l-12 -33 -10 28 c-16 43 -27 31 -13 -15 15 -53 29 -58 42
-16 l10 33 13 -32 c6 -18 16 -33 20 -33 12 0 32 66 27 87 -3 12 -7 8 -12 -14
-9 -41 -21 -42 -28 -3 -8 39 -22 38 -37 -2z"/>
        <path d="M2457 1458 c2 -5 13 -8 24 -8 11 0 17 -4 14 -10 -3 -5 1 -10 9 -10
13 0 14 4 5 18 -6 9 -21 17 -34 17 -13 0 -21 -3 -18 -7z"/>
        <path d="M4443 1435 c0 -22 2 -30 4 -17 2 12 2 30 0 40 -3 9 -5 -1 -4 -23z"/>
        <path d="M200 1439 c0 -5 9 -9 20 -9 11 0 20 4 20 8 0 4 -9 8 -20 9 -11 1 -20
-2 -20 -8z"/>
        <path d="M300 1424 c0 -8 5 -12 10 -9 6 3 10 10 10 16 0 5 -4 9 -10 9 -5 0
-10 -7 -10 -16z"/>
        <path d="M106 1399 c-11 -11 -14 -19 -8 -19 6 0 14 5 17 11 4 6 13 8 21 5 8
-3 14 -1 14 3 0 18 -26 17 -44 0z"/>
        <path d="M173 1403 c-3 -10 -8 -21 -9 -24 -2 -4 2 -9 9 -12 7 -3 13 6 14 24 2
32 -4 38 -14 12z"/>
        <path d="M2470 1406 c0 -23 16 -27 17 -5 1 10 -2 19 -8 19 -5 0 -9 -6 -9 -14z"/>
        <path d="M3825 1411 c-3 -5 -1 -12 5 -16 5 -3 10 1 10 9 0 18 -6 21 -15 7z"/>
        <path d="M2527 1353 c-7 -42 -2 -53 21 -52 15 1 15 2 0 6 -23 6 -23 18 0 41
15 15 16 21 6 30 -19 17 -21 16 -27 -25z"/>
        <path d="M4442 1360 c0 -19 2 -27 5 -17 2 9 2 25 0 35 -3 9 -5 1 -5 -18z"/>
        <path d="M122 1353 c-10 -4 -10 -8 0 -21 11 -13 9 -13 -19 1 -41 22 -51 21
-24 0 19 -17 71 -138 71 -166 0 -6 -18 24 -40 68 -23 44 -38 71 -35 60 13 -40
33 -250 26 -263 -4 -7 -13 42 -20 110 -7 68 -14 125 -16 126 -2 2 -3 -72 -2
-165 1 -139 4 -170 16 -180 13 -9 13 -14 4 -24 -10 -10 -9 -17 5 -32 13 -15
13 -18 2 -13 -8 3 -23 9 -33 12 -13 5 -17 14 -14 30 4 25 -8 33 -16 12 -3 -7
-5 3 -4 22 2 77 -3 135 -12 121 -5 -8 -10 -247 -10 -533 l-1 -518 510 0 510 0
1 28 c5 99 3 200 -3 196 -5 -3 -8 8 -8 25 0 24 -5 32 -25 37 -21 5 -23 9 -14
20 9 12 7 14 -12 12 -16 -2 -23 2 -21 11 1 7 -3 19 -9 27 -10 12 -8 13 7 8 16
-6 15 -3 -5 20 -28 30 -31 39 -34 113 -1 28 -6 55 -10 59 -12 12 -8 22 11 27
10 3 7 5 -10 6 -18 1 -26 -3 -23 -11 3 -7 1 -20 -4 -28 -8 -12 -13 -12 -35 0
-14 7 -26 20 -26 28 0 11 3 12 14 3 10 -8 16 -9 21 -1 3 5 0 10 -7 10 -9 0 -9
3 2 10 11 8 7 9 -15 4 -16 -4 -35 -14 -41 -22 -7 -10 -16 -12 -25 -6 -8 4 -30
9 -49 10 -19 2 -44 5 -55 7 -11 3 -26 6 -32 6 -7 1 -13 8 -13 16 0 19 -16 19
-24 0 -6 -18 -36 -9 -36 11 0 11 -4 12 -19 4 -21 -10 -78 -3 -87 11 -8 14 30
11 44 -3 10 -10 15 -10 22 2 14 23 -8 39 -51 36 -22 -2 -37 -1 -34 2 2 3 -3
11 -13 19 -9 8 -11 12 -4 8 6 -3 12 -1 12 4 0 6 -11 11 -25 11 -14 0 -25 -4
-25 -10 0 -15 -36 -12 -52 4 -8 8 -23 16 -34 18 -10 2 -18 10 -16 16 1 7 -5
12 -14 12 -8 0 -21 6 -29 13 -25 24 -54 46 -74 57 -12 6 -21 16 -21 23 0 9 2
9 8 1 4 -7 41 -28 82 -47 42 -20 87 -47 102 -61 l25 -26 7 40 c6 39 15 46 54
41 14 -2 15 8 2 29 -6 10 -10 11 -10 3 0 -7 -5 -13 -11 -13 -6 0 -8 7 -5 16 4
12 2 15 -9 10 -12 -4 -15 2 -15 28 0 29 3 33 19 29 10 -3 22 0 25 6 4 6 0 11
-8 11 -10 0 -13 6 -10 15 5 11 2 13 -12 8 -14 -5 -16 -3 -9 13 4 10 8 26 9 34
0 10 10 15 31 15 16 -1 33 4 37 10 11 15 35 -24 34 -54 -1 -23 -5 -26 -33 -26
-41 1 -41 -3 -3 -16 17 -6 30 -15 30 -20 0 -4 7 -6 15 -3 9 4 16 -3 20 -19 7
-25 26 -40 55 -42 8 0 14 -7 12 -14 -3 -14 17 -35 38 -39 11 -2 11 1 -2 11
-23 18 -23 27 2 27 11 0 20 5 20 11 0 5 4 8 10 4 5 -3 16 8 25 24 21 42 19 46
-11 22 -36 -28 -73 -26 -110 7 -36 32 -67 102 -53 123 5 8 9 21 9 29 0 13 -1
13 -10 0 -5 -8 -12 -11 -16 -8 -4 4 -15 3 -25 -3 -14 -7 -19 -6 -19 3 0 8 -5
6 -11 -5 -6 -9 -15 -15 -20 -11 -6 3 -5 12 3 22 11 13 11 15 -4 9 -13 -5 -16
0 -14 20 3 26 38 49 56 38 5 -3 11 1 13 7 4 8 8 4 12 -9 8 -25 13 -27 32 -15
10 6 9 13 -3 30 -8 12 -20 20 -25 16 -5 -3 -17 0 -26 8 -15 11 -16 11 -10 -4
4 -12 2 -18 -8 -18 -9 0 -12 6 -9 15 4 9 1 15 -7 15 -9 0 -14 12 -15 30 -1 17
0 30 2 30 1 0 14 -4 28 -10 21 -7 26 -6 26 5 0 8 -7 15 -15 15 -8 0 -14 6 -12
13 1 6 -6 11 -15 9 -23 -4 -23 7 -1 23 14 11 11 13 -22 19 -26 5 -34 10 -25
16 17 10 -5 16 -95 25 -38 4 -79 13 -90 21 -21 15 -23 15 -43 7z m228 -310 c0
-21 -3 -24 -9 -14 -5 8 -7 20 -4 28 8 21 13 15 13 -14z m135 -122 c-3 -6 -11
-11 -17 -11 -6 0 -6 6 2 15 14 17 26 13 15 -4z m-430 -81 c3 -6 -1 -7 -9 -4
-18 7 -21 14 -7 14 6 0 13 -4 16 -10z m52 -32 c-3 -8 -6 -5 -6 6 -1 11 2 17 5
13 3 -3 4 -12 1 -19z m-57 2 c0 -5 -7 -10 -15 -10 -8 0 -15 5 -15 10 0 6 7 10
15 10 8 0 15 -4 15 -10z m111 -17 c29 -17 38 -33 19 -33 -6 0 -13 7 -16 15 -4
8 -12 15 -19 15 -8 0 -17 5 -20 10 -9 15 3 12 36 -7z m-71 -33 c0 -5 -5 -10
-11 -10 -5 0 -7 5 -4 10 3 6 8 10 11 10 2 0 4 -4 4 -10z m60 -13 c11 -5 9 -6
-4 -4 -11 1 -21 9 -23 17 -3 10 -2 11 4 4 4 -6 15 -14 23 -17z m0 -41 c0 -3
-4 -8 -10 -11 -5 -3 -10 -1 -10 4 0 6 5 11 10 11 6 0 10 -2 10 -4z m410 -121
c0 -8 -4 -15 -9 -15 -13 0 -22 16 -14 24 11 11 23 6 23 -9z m240 -125 c0 -5
-4 -10 -9 -10 -6 0 -13 5 -16 10 -3 6 1 10 9 10 9 0 16 -4 16 -10z m87 -37
c-4 -3 0 -15 10 -25 9 -10 13 -21 10 -25 -8 -8 -36 26 -37 45 0 6 5 12 12 12
6 0 8 -3 5 -7z"/>
        <path d="M3567 1306 c-16 -35 -16 -35 19 -73 105 -115 114 -121 180 -109 58
11 91 85 62 139 -13 26 -47 52 -68 53 -9 1 -25 6 -37 13 -27 14 -135 15 -113
1 13 -9 13 -10 0 -10 -12 -1 -11 -3 3 -11 26 -15 21 -39 -9 -39 -23 0 -25 3
-20 35 7 44 4 44 -17 1z m226 -27 c9 -12 17 -38 17 -59 0 -52 -39 -84 -90 -76
-84 13 -112 140 -35 159 37 10 90 -2 108 -24z"/>
        <path d="M4360 1316 c0 -9 30 -14 35 -6 4 6 -3 10 -14 10 -12 0 -21 -2 -21 -4z"/>
        <path d="M461 1253 c-1 -14 33 -35 43 -26 13 13 5 25 -14 20 -10 -3 -21 0 -24
7 -3 8 -5 7 -5 -1z"/>
        <path d="M550 1235 c0 -7 -7 -12 -16 -11 -9 0 -18 -5 -20 -12 -1 -7 0 -8 3 -2
9 18 23 11 23 -12 1 -22 1 -22 15 -4 13 17 15 18 21 2 5 -12 10 -14 19 -6 9 8
14 7 18 -2 4 -8 6 -7 6 5 1 9 -6 17 -15 17 -8 0 -13 3 -10 8 2 4 -7 12 -20 19
-19 9 -24 8 -24 -2z"/>
        <path d="M640 1231 c0 -5 7 -12 16 -15 14 -5 15 -4 4 9 -14 17 -20 19 -20 6z"/>
        <path d="M883 1225 c0 -8 4 -12 9 -9 5 3 6 10 3 15 -9 13 -12 11 -12 -6z"/>
        <path d="M739 1213 c-1 -7 -2 -18 -3 -25 -1 -16 44 -18 46 -1 0 7 1 18 2 25 1
16 -44 18 -45 1z"/>
        <path d="M844 1214 c-10 -8 -13 -13 -6 -9 8 4 12 -1 12 -15 0 -15 -5 -20 -14
-17 -10 4 -13 1 -10 -8 9 -21 34 -27 36 -7 3 39 5 72 3 72 0 0 -10 -7 -21 -16z"/>
        <path d="M0 1194 c0 -8 5 -12 10 -9 6 3 10 10 10 16 0 5 -4 9 -10 9 -5 0 -10
-7 -10 -16z"/>
        <path d="M637 1189 c4 -13 9 -17 15 -11 11 11 3 32 -12 32 -4 0 -6 -9 -3 -21z"/>
        <path d="M1920 1152 c-30 -33 -71 -77 -90 -99 -19 -22 -26 -29 -16 -16 11 13
14 23 8 23 -13 0 -37 -40 -34 -55 3 -14 -64 -49 -77 -40 -7 3 -10 1 -9 -6 4
-16 -68 -65 -117 -79 -22 -6 -49 -14 -60 -17 -18 -5 -18 -4 -5 12 29 35 40 86
28 135 -30 122 -112 192 -174 145 -18 -13 -17 -14 19 -15 51 0 76 -15 93 -55
14 -35 19 -73 7 -62 -3 4 -12 2 -19 -4 -7 -6 -23 -12 -36 -15 -13 -2 -66 -13
-118 -24 -52 -11 -113 -23 -135 -27 -22 -3 -44 -9 -50 -13 -5 -4 -26 -11 -45
-15 -19 -4 -41 -12 -49 -19 -12 -9 -13 -8 -7 4 4 8 -1 6 -11 -5 -17 -20 -19
-20 -35 -3 -10 10 -18 22 -18 28 0 5 -7 7 -15 4 -12 -5 -12 -9 4 -23 18 -16
36 -97 23 -105 -4 -2 -23 -6 -42 -10 -32 -5 -36 -3 -49 24 -8 19 -11 44 -7 65
4 22 3 35 -4 35 -14 0 -16 -44 -4 -125 7 -52 -19 -84 -66 -79 -38 5 -50 11
-50 28 0 9 -11 13 -32 12 -32 -2 -50 -26 -41 -56 4 -12 3 -12 -5 -2 -7 11 -12
10 -26 -3 -23 -23 -20 -14 13 52 17 32 28 59 27 61 -9 8 -34 -12 -29 -24 8
-20 -30 -64 -48 -54 -8 6 -16 5 -20 -2 -4 -6 -12 -7 -18 -4 -6 4 -9 12 -6 17
6 9 -83 4 -93 -6 -5 -4 60 -9 81 -6 10 1 9 -11 -3 -29 -8 -13 -10 -12 -10 3 0
21 -16 22 -24 2 -7 -19 15 -57 29 -51 15 5 136 -9 159 -19 15 -6 17 -5 11 5
-5 8 -3 11 6 8 8 -3 12 -14 11 -24 -3 -13 0 -16 6 -9 6 6 12 19 14 30 2 14 10
19 26 17 14 -2 30 5 41 17 10 12 30 21 45 21 26 0 35 13 16 25 -5 3 -10 12 -9
18 0 7 7 2 16 -10 8 -13 21 -23 28 -23 7 0 16 -7 19 -16 4 -11 10 -13 19 -7
13 10 23 10 47 0 8 -3 28 -8 43 -12 26 -5 28 -4 22 16 l-7 22 27 -22 c17 -13
36 -19 47 -16 13 5 16 2 12 -9 -3 -9 -3 -16 0 -16 4 0 11 10 16 23 7 17 9 18
9 5 1 -18 31 -26 31 -9 0 15 -91 131 -116 148 -30 19 -31 33 -2 33 12 0 35
-16 55 -40 19 -22 40 -40 46 -40 6 0 -6 18 -28 40 -48 49 -42 60 11 22 22 -16
45 -27 52 -24 6 2 12 -1 12 -6 0 -6 -5 -12 -11 -14 -6 -2 -1 -15 11 -31 17
-22 25 -25 40 -17 27 14 33 12 25 -7 -11 -30 -13 -77 -2 -90 12 -16 9 -16
-146 -2 -67 7 -131 12 -141 13 -22 1 -26 -10 -56 -159 -17 -80 -18 -102 -8
-110 7 -5 13 -19 13 -29 0 -14 18 -27 70 -49 39 -16 83 -43 98 -59 25 -26 26
-30 12 -45 -19 -19 -12 -31 9 -14 12 10 14 8 9 -11 -4 -22 -4 -22 11 -4 10 12
16 15 16 7 0 -9 6 -11 18 -6 46 18 98 15 179 -10 49 -16 98 -25 118 -23 20 2
36 -1 39 -8 7 -19 66 -25 89 -9 16 11 35 13 70 9 37 -5 51 -3 58 7 7 11 9 10
9 -3 0 -11 8 -18 20 -18 11 0 20 5 20 10 0 6 14 10 30 10 42 0 49 23 56 183 7
161 8 156 -6 238 -11 62 -10 71 18 155 57 169 66 213 54 248 -16 44 -13 164 4
199 28 53 9 49 -46 -11z m-635 -322 c3 -5 1 -10 -4 -10 -6 0 -11 5 -11 10 0 6
2 10 4 10 3 0 8 -4 11 -10z m-166 -60 c6 0 11 -7 11 -15 0 -9 -9 -15 -22 -15
-16 0 -19 3 -10 8 9 6 4 16 -18 37 -16 16 -30 33 -30 38 0 5 13 -5 29 -22 16
-17 34 -31 40 -31z m-64 20 c10 -11 16 -20 13 -20 -3 0 -13 9 -23 20 -10 11
-16 20 -13 20 3 0 13 -9 23 -20z m260 -10 c3 -5 1 -10 -4 -10 -6 0 -11 5 -11
10 0 6 2 10 4 10 3 0 8 -4 11 -10z m-404 -22 c11 -21 11 -22 -4 -9 -10 7 -17
17 -17 22 0 15 9 10 21 -13z m259 -47 c0 -6 -5 -11 -11 -11 -5 0 -8 4 -4 9 3
5 1 12 -5 16 -5 3 -10 11 -10 16 0 6 7 4 15 -5 8 -8 15 -19 15 -25z m327 -217
c-3 -3 -12 -4 -19 -1 -8 3 -5 6 6 6 11 1 17 -2 13 -5z m220 -186 c-3 -8 -6 -5
-6 6 -1 11 2 17 5 13 3 -3 4 -12 1 -19z m37 -97 c-7 -7 -12 3 -18 34 l-6 30
14 -30 c8 -16 12 -32 10 -34z m-544 30 c14 -27 13 -31 -10 -31 -15 0 -20 7
-20 25 0 30 15 33 30 6z m143 -18 c-7 -2 -19 -2 -25 0 -7 3 -2 5 12 5 14 0 19
-2 13 -5z m353 -29 c18 -42 13 -51 -19 -37 -22 10 -34 43 -15 43 4 0 8 7 8 15
0 25 10 17 26 -21z"/>
        <path d="M670 1190 c0 -5 5 -10 10 -10 6 0 10 5 10 10 0 6 -4 10 -10 10 -5 0
-10 -4 -10 -10z"/>
        <path d="M914 1181 c4 -5 1 -11 -6 -13 -8 -3 -8 -9 0 -24 6 -10 12 -14 12 -9
1 6 3 20 6 33 2 12 -1 22 -7 22 -5 0 -8 -4 -5 -9z"/>
        <path d="M940 1176 c0 -9 7 -16 16 -16 17 0 14 22 -4 28 -7 2 -12 -3 -12 -12z"/>
        <path d="M1070 1174 c0 -8 5 -12 10 -9 6 3 10 10 10 16 0 5 -4 9 -10 9 -5 0
-10 -7 -10 -16z"/>
        <path d="M1009 1173 c-1 -5 -1 -11 0 -15 0 -5 -3 -8 -9 -8 -5 0 -7 -7 -4 -15
10 -25 21 -17 22 15 1 26 -6 43 -9 23z"/>
        <path d="M1038 1174 c-9 -18 -8 -65 2 -59 6 4 8 10 5 15 -3 4 0 10 7 12 8 3 8
9 1 22 -6 10 -12 15 -15 10z"/>
        <path d="M1160 1165 c0 -8 4 -15 9 -15 5 0 11 7 15 15 3 9 0 15 -9 15 -8 0
-15 -7 -15 -15z"/>
        <path d="M1255 1157 c-4 -10 -5 -21 -1 -24 10 -10 18 4 13 24 -4 17 -4 17 -12
0z"/>
        <path d="M1100 1145 c0 -8 -4 -15 -10 -15 -5 0 -7 -7 -4 -15 4 -8 10 -13 14
-10 5 3 13 -2 18 -11 8 -15 10 -15 16 1 3 9 3 22 -1 27 -4 7 -1 8 6 3 9 -5 12
-2 9 10 -4 23 -48 31 -48 10z"/>
        <path d="M1185 1139 c-11 -4 -14 -8 -6 -8 8 -1 11 -7 7 -18 -7 -17 -6 -17 10
-1 21 21 15 38 -11 27z"/>
        <path d="M765 1130 c-3 -5 -1 -10 4 -10 6 0 11 5 11 10 0 6 -2 10 -4 10 -3 0
-8 -4 -11 -10z"/>
        <path d="M827 1134 c-3 -3 -4 -20 -1 -38 4 -24 3 -27 -5 -16 -9 13 -11 13 -11
-2 0 -26 19 -22 31 6 11 24 0 64 -14 50z"/>
        <path d="M1220 1130 c0 -5 5 -10 11 -10 5 0 7 5 4 10 -3 6 -8 10 -11 10 -2 0
-4 -4 -4 -10z"/>
        <path d="M520 1123 c0 -4 5 -15 10 -23 8 -13 10 -13 10 2 0 9 -4 20 -10 23 -5
3 -10 3 -10 -2z"/>
        <path d="M611 1113 c-1 -24 13 -31 25 -11 4 6 3 8 -4 4 -6 -3 -13 2 -15 11 -4
14 -5 13 -6 -4z"/>
        <path d="M718 1110 c2 -8 5 -21 5 -27 0 -15 13 -17 22 -3 3 6 1 10 -6 10 -8 0
-8 4 1 15 7 9 10 19 6 22 -4 4 -11 1 -15 -6 -5 -7 -11 -9 -13 -5 -3 5 -3 2 0
-6z"/>
        <path d="M2 1095 c0 -16 2 -22 5 -12 2 9 2 23 0 30 -3 6 -5 -1 -5 -18z"/>
        <path d="M576 1111 c-3 -5 1 -11 9 -14 9 -4 12 -1 8 9 -6 16 -10 17 -17 5z"/>
        <path d="M1061 1104 c0 -11 3 -14 6 -6 3 7 2 16 -1 19 -3 4 -6 -2 -5 -13z"/>
        <path d="M663 1103 c-17 -6 -17 -23 0 -23 8 0 14 7 14 15 0 8 -1 15 -1 14 -1
0 -7 -3 -13 -6z"/>
        <path d="M760 1099 c0 -5 5 -7 10 -4 6 3 10 8 10 11 0 2 -4 4 -10 4 -5 0 -10
-5 -10 -11z"/>
        <path d="M41 1084 c0 -11 3 -14 6 -6 3 7 2 16 -1 19 -3 4 -6 -2 -5 -13z"/>
        <path d="M1030 1085 c-1 -5 -2 -14 -1 -18 1 -4 -4 -7 -11 -6 -28 3 -38 -2 -38
-18 0 -15 2 -16 10 -3 9 13 11 13 20 0 6 -10 10 -11 10 -2 0 6 10 12 23 12 12
0 17 3 11 8 -6 4 -14 14 -17 22 -3 8 -6 11 -7 5z"/>
        <path d="M1146 1075 c-3 -8 -1 -15 4 -15 13 0 22 18 11 24 -5 3 -11 -1 -15 -9z"/>
        <path d="M475 1070 c-3 -5 -1 -10 4 -10 6 0 11 5 11 10 0 6 -2 10 -4 10 -3 0
-8 -4 -11 -10z"/>
        <path d="M885 1070 c-3 -5 1 -10 9 -10 9 0 16 5 16 10 0 6 -4 10 -9 10 -6 0
-13 -4 -16 -10z"/>
        <path d="M916 1064 c-9 -24 -7 -28 9 -14 17 14 20 30 6 30 -5 0 -12 -7 -15
-16z"/>
        <path d="M1077 1073 c-12 -11 4 -23 30 -23 22 0 26 15 5 15 -4 0 -12 3 -18 7
-6 4 -14 5 -17 1z"/>
        <path d="M1731 1064 c0 -11 3 -14 6 -6 3 7 2 16 -1 19 -3 4 -6 -2 -5 -13z"/>
        <path d="M3360 1068 c0 -5 -4 -6 -10 -3 -5 3 -10 -1 -10 -10 0 -13 6 -15 31
-10 26 6 30 4 27 -12 -2 -13 -12 -18 -36 -17 -37 2 -39 -8 -16 -76 27 -79 37
-98 65 -114 38 -22 80 -20 120 7 28 19 35 30 37 65 3 33 -3 50 -25 81 -15 22
-41 47 -58 57 -16 10 -35 23 -42 30 -15 14 -83 16 -83 2z m157 -90 c16 -15 23
-33 23 -60 0 -32 -5 -41 -32 -58 -45 -27 -64 -25 -99 9 -38 38 -40 89 -4 125
21 21 29 23 56 16 18 -5 43 -19 56 -32z"/>
        <path d="M611 1054 c0 -11 3 -14 6 -6 3 7 2 16 -1 19 -3 4 -6 -2 -5 -13z"/>
        <path d="M3973 1030 c0 -25 2 -35 4 -22 2 12 2 32 0 45 -2 12 -4 2 -4 -23z"/>
        <path d="M780 1051 c0 -5 7 -14 15 -21 17 -14 20 -40 5 -40 -5 0 -10 5 -10 10
0 13 -11 13 -30 0 -13 -9 -13 -11 0 -20 8 -5 29 -8 45 -6 17 2 38 4 47 5 15 1
14 5 -6 26 -13 14 -28 25 -35 25 -6 0 -11 7 -11 15 0 8 -4 15 -10 15 -5 0 -10
-4 -10 -9z"/>
        <path d="M751 1034 c0 -11 3 -14 6 -6 3 7 2 16 -1 19 -3 4 -6 -2 -5 -13z"/>
        <path d="M942 1024 c-10 -12 -10 -14 2 -14 17 0 30 16 19 23 -5 3 -14 -1 -21
-9z"/>
        <path d="M2740 997 c0 -54 4 -58 18 -19 7 21 6 33 -4 47 -13 17 -14 14 -14
-28z"/>
        <path d="M3640 1017 c1 -32 52 -121 73 -125 9 -2 31 2 47 10 26 11 30 18 30
50 0 34 -3 39 -42 56 -24 11 -58 22 -75 25 -29 6 -33 4 -33 -16z m98 -38 c2
-5 10 -9 18 -9 15 0 17 -9 8 -34 -14 -37 -84 1 -84 45 0 18 4 20 28 14 15 -3
29 -11 30 -16z"/>
        <path d="M592 1005 c-11 -23 -10 -24 7 -13 11 6 17 18 14 25 -7 18 -8 17 -21
-12z"/>
        <path d="M496 1011 c-3 -5 1 -11 9 -15 8 -3 15 -1 15 4 0 13 -18 22 -24 11z"/>
        <path d="M690 1010 c0 -5 5 -10 11 -10 5 0 7 5 4 10 -3 6 -8 10 -11 10 -2 0
-4 -4 -4 -10z"/>
        <path d="M636 995 c4 -8 1 -15 -7 -15 -7 0 -10 -2 -7 -5 3 -3 12 -3 21 1 16 6
13 34 -4 34 -4 0 -6 -7 -3 -15z"/>
        <path d="M2548 988 c2 -10 8 -21 13 -24 5 -3 6 3 2 12 -4 12 -3 15 5 10 7 -4
10 -2 6 7 -8 21 -32 17 -26 -5z"/>
        <path d="M2640 993 c0 -15 19 -37 26 -31 3 4 -1 14 -10 23 -9 9 -16 13 -16 8z"/>
        <path d="M710 980 c-9 -6 -10 -10 -3 -10 6 0 15 5 18 10 8 12 4 12 -15 0z"/>
        <path d="M42 950 c0 -14 2 -19 5 -12 2 6 2 18 0 25 -3 6 -5 1 -5 -13z"/>
        <path d="M531 953 c-1 -27 37 -52 49 -33 4 7 13 9 19 6 6 -4 39 1 73 10 56 16
59 19 35 25 -30 8 -67 1 -67 -12 0 -17 -28 -9 -33 9 -4 14 -5 14 -6 1 -1 -23
-58 -23 -64 -1 -3 12 -5 11 -6 -5z"/>
        <path d="M2800 959 c0 -5 5 -7 10 -4 6 3 10 8 10 11 0 2 -4 4 -10 4 -5 0 -10
-5 -10 -11z"/>
        <path d="M1670 950 c-9 -6 -10 -10 -3 -10 6 0 15 5 18 10 8 12 4 12 -15 0z"/>
        <path d="M3597 923 c-2 -5 -1 -19 4 -33 7 -23 7 -23 8 8 1 31 -3 40 -12 25z"/>
        <path d="M3850 920 c0 -5 5 -10 11 -10 5 0 7 5 4 10 -3 6 -8 10 -11 10 -2 0
-4 -4 -4 -10z"/>
        <path d="M2628 893 c7 -3 16 -2 19 1 4 3 -2 6 -13 5 -11 0 -14 -3 -6 -6z"/>
        <path d="M2620 859 c0 -5 5 -7 10 -4 6 3 10 8 10 11 0 2 -4 4 -10 4 -5 0 -10
-5 -10 -11z"/>
        <path d="M2441 839 c-1 -15 8 -33 22 -45 29 -25 77 -46 77 -34 0 6 10 10 22
10 17 0 19 3 10 12 -9 9 -15 9 -23 1 -20 -20 -85 14 -97 51 -9 29 -10 30 -11
5z"/>
        <path d="M2606 824 c-9 -24 -7 -28 9 -14 17 14 20 30 6 30 -5 0 -12 -7 -15
-16z"/>
        <path d="M2268 823 c7 -3 16 -2 19 1 4 3 -2 6 -13 5 -11 0 -14 -3 -6 -6z"/>
        <path d="M2700 816 c0 -9 5 -16 10 -16 6 0 10 4 10 9 0 6 -4 13 -10 16 -5 3
-10 -1 -10 -9z"/>
        <path d="M2787 824 c-4 -4 -7 -11 -7 -16 0 -13 50 -6 53 7 2 12 -36 19 -46 9z"/>
        <path d="M2920 816 c0 -9 5 -16 10 -16 6 0 10 4 10 9 0 6 -4 13 -10 16 -5 3
-10 -1 -10 -9z"/>
        <path d="M3102 810 c0 -14 2 -19 5 -12 2 6 2 18 0 25 -3 6 -5 1 -5 -13z"/>
        <path d="M3351 794 c0 -11 3 -14 6 -6 3 7 2 16 -1 19 -3 4 -6 -2 -5 -13z"/>
        <path d="M3518 789 c-15 -8 -16 -13 -5 -29 6 -11 16 -20 21 -20 6 0 5 5 -2 12
-17 17 -15 29 4 26 10 -2 19 3 21 10 6 14 -15 15 -39 1z"/>
        <path d="M3440 770 c0 -5 5 -10 11 -10 5 0 7 5 4 10 -3 6 -8 10 -11 10 -2 0
-4 -4 -4 -10z"/>
        <path d="M1205 745 c4 -11 11 -35 17 -52 9 -35 24 -47 15 -13 -3 10 -1 20 3
22 5 2 -3 17 -17 33 -17 21 -23 24 -18 10z"/>
        <path d="M3341 751 c-7 -5 -10 -14 -7 -20 11 -18 25 -13 23 9 -1 11 -1 20 -2
20 0 0 -6 -4 -14 -9z"/>
        <path d="M3550 730 c0 -5 5 -10 10 -10 6 0 10 5 10 10 0 6 -4 10 -10 10 -5 0
-10 -4 -10 -10z"/>
        <path d="M2994 718 c-4 -5 0 -14 7 -19 11 -7 9 -9 -7 -9 -12 0 -25 -10 -32
-25 -10 -22 -9 -25 8 -25 11 0 19 3 19 8 -6 35 25 46 36 12 5 -15 15 -20 41
-20 39 0 45 17 14 45 -12 11 -20 13 -20 6 0 -6 7 -14 15 -17 16 -6 11 -24 -6
-24 -6 0 -7 5 -3 12 5 8 2 9 -9 5 -9 -3 -16 -3 -16 1 5 33 -33 73 -47 50z"/>
        <path d="M3281 674 c0 -11 3 -14 6 -6 3 7 2 16 -1 19 -3 4 -6 -2 -5 -13z"/>
        <path d="M1900 654 c-12 -32 -13 -51 -1 -58 5 -3 11 14 13 39 4 52 1 55 -12
19z"/>
        <path d="M2825 670 c-3 -5 -2 -10 4 -10 5 0 13 5 16 10 3 6 2 10 -4 10 -5 0
-13 -4 -16 -10z"/>
        <path d="M3130 665 c10 -12 9 -15 -5 -15 -13 0 -9 -7 15 -30 33 -31 61 -33 35
-2 -9 9 -15 21 -15 25 1 9 -26 37 -36 37 -3 0 -1 -7 6 -15z"/>
        <path d="M3181 668 c-1 -10 3 -18 9 -18 5 0 8 -6 6 -12 -1 -7 -1 -10 1 -5 3 4
20 7 38 7 35 0 45 -15 45 -72 0 -16 3 -28 8 -28 4 0 7 -14 7 -31 0 -26 -3 -30
-22 -26 -15 3 -23 -1 -23 -10 0 -10 10 -13 33 -11 31 3 32 4 28 47 -1 24 -9
62 -17 84 -17 49 -18 47 5 47 10 0 22 7 25 16 10 26 0 28 -24 4 -19 -19 -47
-20 -35 0 3 5 -8 5 -25 0 -17 -5 -28 -5 -25 0 3 5 0 12 -6 16 -8 4 -9 3 -5 -4
4 -7 3 -12 -3 -12 -5 0 -12 6 -14 13 -3 7 -6 5 -6 -5z"/>
        <path d="M2550 660 c0 -5 5 -10 11 -10 5 0 7 5 4 10 -3 6 -8 10 -11 10 -2 0
-4 -4 -4 -10z"/>
        <path d="M2711 654 c0 -11 3 -14 6 -6 3 7 2 16 -1 19 -3 4 -6 -2 -5 -13z"/>
        <path d="M2490 650 c0 -5 7 -10 15 -10 8 0 15 5 15 10 0 6 -7 10 -15 10 -8 0
-15 -4 -15 -10z"/>
        <path d="M2655 650 c-19 -8 -19 -9 3 -9 12 -1 22 4 22 9 0 6 -1 10 -2 9 -2 0
-12 -4 -23 -9z"/>
        <path d="M2788 643 c7 -3 16 -2 19 1 4 3 -2 6 -13 5 -11 0 -14 -3 -6 -6z"/>
        <path d="M2840 640 c0 -5 5 -10 10 -10 6 0 10 5 10 10 0 6 -4 10 -10 10 -5 0
-10 -4 -10 -10z"/>
        <path d="M2538 633 c7 -3 16 -2 19 1 4 3 -2 6 -13 5 -11 0 -14 -3 -6 -6z"/>
        <path d="M850 619 c0 -9 70 -17 76 -8 2 4 -14 9 -36 11 -22 2 -40 1 -40 -3z"/>
        <path d="M2571 623 c-1 -6 -4 -20 -7 -30 -5 -17 -5 -17 6 0 6 10 9 23 6 30 -3
9 -5 9 -5 0z"/>
        <path d="M2719 609 c-12 -24 2 -69 21 -69 7 0 4 7 -4 16 -19 18 -20 28 -6 55
6 10 8 19 6 19 -3 0 -10 -10 -17 -21z"/>
        <path d="M2980 605 c0 -8 -9 -15 -20 -15 -19 0 -22 -8 -34 -90 -1 -8 -10 -14
-20 -12 -11 2 -16 -1 -14 -10 3 -8 19 -12 43 -11 39 3 39 3 16 -13 -14 -10
-21 -23 -18 -34 4 -16 1 -17 -20 -9 -38 14 -52 10 -15 -6 18 -8 32 -22 32 -32
1 -12 5 -7 14 12 7 17 9 33 4 36 -11 7 35 39 57 39 9 0 13 5 10 10 -9 15 4 12
21 -4 8 -8 14 -24 14 -35 0 -12 4 -21 9 -21 5 0 12 -10 14 -22 3 -19 4 -18 2
2 -1 14 -6 33 -10 43 -4 10 -3 17 3 17 6 0 12 -8 14 -17 3 -13 6 -9 10 10 5
24 3 27 -16 22 -17 -4 -17 -3 3 7 19 10 25 10 29 0 2 -6 11 -12 19 -12 12 0
14 -10 11 -50 -5 -50 -5 -50 26 -50 28 0 29 1 10 14 -10 8 -16 18 -11 22 4 4
7 2 7 -4 0 -24 19 -11 25 16 9 44 -14 79 -50 76 -17 -2 -24 -1 -17 2 6 3 12
10 12 16 0 6 -6 6 -15 -2 -7 -6 -39 -12 -70 -12 -30 0 -55 -5 -55 -10 0 -5 -5
-6 -11 -3 -7 5 -5 11 5 18 15 12 25 91 13 103 -4 4 -7 0 -7 -9 0 -9 -4 -17
-10 -17 -13 0 -13 6 0 31 7 13 7 19 0 19 -5 0 -10 -7 -10 -15z m12 -55 c14 0
6 -43 -9 -48 -8 -2 -13 5 -13 17 0 12 -6 21 -16 21 -8 0 -12 5 -9 11 4 6 14 8
22 5 8 -3 19 -6 25 -6z m-30 -45 c3 -14 1 -25 -3 -25 -5 0 -9 11 -9 25 0 14 2
25 4 25 2 0 6 -11 8 -25z m211 -48 c13 -20 13 -23 -2 -23 -10 0 -17 9 -17 23
-1 13 -1 23 1 23 1 0 9 -10 18 -23z"/>
        <path d="M2591 583 c-10 -26 -10 -27 4 -9 8 11 15 23 15 28 0 15 -7 8 -19 -19z"/>
        <path d="M2810 583 c35 -14 41 -64 9 -87 l-21 -14 24 -13 c20 -11 22 -11 10 3
-8 10 -9 17 -2 20 5 1 14 18 19 35 11 36 -6 64 -37 62 -14 0 -14 -2 -2 -6z"/>
        <path d="M2866 575 c4 -8 8 -15 10 -15 2 0 4 7 4 15 0 8 -4 15 -10 15 -5 0 -7
-7 -4 -15z"/>
        <path d="M3077 583 c-11 -10 -8 -55 3 -48 5 3 7 12 3 20 -3 8 0 15 6 15 6 0
11 5 11 10 0 11 -13 13 -23 3z"/>
        <path d="M3157 561 c-4 -17 -3 -21 5 -13 5 5 8 16 6 23 -3 8 -7 3 -11 -10z"/>
        <path d="M2528 543 c6 -2 18 -2 25 0 6 3 1 5 -13 5 -14 0 -19 -2 -12 -5z"/>
        <path d="M2620 500 c0 -5 5 -10 11 -10 5 0 7 5 4 10 -3 6 -8 10 -11 10 -2 0
-4 -4 -4 -10z"/>
        <path d="M3197 503 c-4 -3 -1 -13 6 -21 9 -13 9 -14 0 -8 -8 4 -13 2 -13 -4 0
-7 8 -9 23 -4 29 9 29 8 21 28 -6 16 -25 21 -37 9z"/>
        <path d="M2430 480 c14 -4 32 -8 40 -9 13 -1 13 0 0 9 -8 5 -26 9 -40 9 l-25
-1 25 -8z"/>
        <path d="M2506 449 c-11 -21 -16 -42 -13 -46 4 -3 7 0 7 7 0 8 10 24 22 37 13
14 18 27 12 33 -5 5 -16 -6 -28 -31z"/>
        <path d="M2656 479 c4 -7 0 -9 -14 -5 -11 4 -23 2 -26 -3 -4 -6 5 -9 20 -8 26
2 48 27 24 27 -6 0 -8 -5 -4 -11z"/>
        <path d="M2640 440 c0 -5 5 -10 10 -10 6 0 10 5 10 10 0 6 -4 10 -10 10 -5 0
-10 -4 -10 -10z"/>
        <path d="M1956 411 c-4 -7 -5 -15 -2 -18 9 -9 19 4 14 18 -4 11 -6 11 -12 0z"/>
        <path d="M2568 412 c7 -5 10 -16 6 -26 -5 -14 -9 -15 -15 -4 -6 9 -9 9 -9 1 0
-19 17 -24 30 -8 14 17 7 45 -12 45 -11 0 -11 -2 0 -8z"/>
        <path d="M2718 413 c6 -2 18 -2 25 0 6 3 1 5 -13 5 -14 0 -19 -2 -12 -5z"/>
        <path d="M2481 373 c-1 -41 20 -73 48 -73 l26 0 -25 13 c-14 7 -30 28 -37 47
-9 26 -12 29 -12 13z"/>
        <path d="M2017 366 c-4 -11 2 -14 23 -14 24 1 26 3 15 14 -18 18 -31 18 -38 0z"/>
        <path d="M2163 373 c-46 -2 -83 -8 -83 -13 0 -9 203 -18 278 -11 28 2 42 8 42
17 0 14 -26 15 -237 7z"/>
        <path d="M2416 373 c-11 -11 -6 -23 9 -23 8 0 15 4 15 9 0 13 -16 22 -24 14z"/>
        <path d="M3258 363 c7 -3 16 -2 19 1 4 3 -2 6 -13 5 -11 0 -14 -3 -6 -6z"/>
        <path d="M2630 340 c-6 -11 -7 -20 -2 -20 6 0 12 9 15 20 3 11 3 20 1 20 -2 0
-8 -9 -14 -20z"/>
        <path d="M2583 313 c-13 -2 -23 -8 -23 -13 0 -10 38 -1 46 11 3 5 4 8 2 8 -2
-1 -13 -4 -25 -6z"/>
        <path d="M1020 286 c0 -2 7 -7 16 -10 8 -3 12 -2 9 4 -6 10 -25 14 -25 6z"/>
        <path d="M1050 223 c0 -18 5 -33 10 -33 13 0 13 30 0 50 -7 11 -10 7 -10 -17z"/>
        <path d="M1100 190 c0 -14 50 -180 57 -189 2 -2 6 -2 9 1 6 7 -44 179 -57 193
-6 5 -9 3 -9 -5z"/>
        <path d="M1052 131 c2 -29 7 -37 27 -39 19 -3 22 0 17 13 -3 9 -9 27 -12 39
-3 13 -12 23 -20 23 -11 0 -14 -10 -12 -36z"/>
        <path d="M1762 100 c7 -11 16 -20 20 -20 15 0 8 15 -12 28 -19 12 -20 11 -8
-8z"/>
        <path d="M1570 100 c0 -5 5 -10 10 -10 6 0 10 5 10 10 0 6 -4 10 -10 10 -5 0
-10 -4 -10 -10z"/>
        <path d="M1053 73 c-7 -3 -13 -19 -12 -36 1 -31 1 -31 9 -7 4 14 8 20 9 13 1
-14 42 -3 42 12 0 12 -32 23 -48 18z"/>
    </g>
</svg>
