<?xml version="1.0" standalone="no"?>
<!DOCTYPE svg PUBLIC "-//W3C//DTD SVG 20010904//EN"
    "http://www.w3.org/TR/2001/REC-SVG-20010904/DTD/svg10.dtd">
<svg version="1.0" xmlns="http://www.w3.org/2000/svg"
    width="300.000000pt" height="168.000000pt" viewBox="0 0 300.000000 168.000000"
    preserveAspectRatio="xMidYMid meet">

    <g transform="translate(0.000000,168.000000) scale(0.100000,-0.100000)"
        fill="#000000" stroke="none">
        <path d="M0 1659 c0 -12 8 -28 18 -35 16 -13 16 -15 0 -28 -14 -10 -18 -28
-18 -80 0 -39 4 -65 9 -61 5 3 12 -3 14 -12 4 -17 5 -17 6 0 0 9 8 17 16 17
24 0 30 -4 27 -18 -3 -10 1 -11 17 -2 12 6 21 7 21 3 0 -4 6 2 14 12 12 17 16
17 30 6 12 -10 14 -16 5 -21 -6 -4 -7 -10 -2 -13 5 -3 15 -1 23 4 13 8 12 11
-3 23 -15 12 -16 14 -2 20 9 3 15 0 15 -9 0 -8 5 -15 12 -15 6 0 4 -8 -6 -19
-18 -19 -17 -20 10 -16 16 2 31 4 34 5 3 2 9 2 14 1 5 -1 6 5 3 13 -4 10 -1
13 9 9 7 -3 14 0 14 5 0 23 41 24 62 2 19 -21 19 -50 -2 -50 -5 0 -10 -4 -10
-9 0 -13 41 -10 59 3 12 9 13 8 4 -7 -8 -15 -3 -25 24 -53 18 -19 33 -39 33
-44 0 -6 7 -10 15 -10 8 0 15 -4 15 -10 0 -5 19 -14 43 -21 23 -6 63 -19 90
-30 32 -12 47 -14 47 -6 0 7 5 6 15 -3 16 -16 10 -64 -7 -54 -6 4 -8 -2 -3
-17 3 -13 9 -32 11 -41 3 -10 1 -18 -5 -18 -6 0 -7 -7 -4 -17 4 -11 3 -14 -6
-9 -7 5 -10 13 -8 20 7 16 -19 49 -32 41 -16 -9 -13 -113 5 -180 12 -45 14
-85 10 -162 -5 -95 -4 -102 14 -108 19 -6 20 -16 20 -171 l0 -165 -120 -56
c-112 -52 -120 -58 -120 -85 0 -18 5 -28 15 -28 8 0 15 -4 15 -10 0 -5 7 -7
15 -4 8 4 15 14 15 24 0 11 5 22 10 25 6 3 10 -1 10 -9 0 -9 7 -16 15 -16 18
0 20 16 4 26 -8 4 -7 9 2 15 21 13 29 11 29 -7 0 -14 3 -14 15 -4 13 10 13 15
3 21 -7 4 -9 11 -5 16 4 4 16 3 25 -3 13 -8 24 -6 47 8 17 10 33 18 38 18 14
0 7 -38 -8 -44 -9 -3 -15 -18 -15 -36 0 -24 4 -30 20 -30 20 0 20 -4 14 -75
l-7 -75 878 0 c707 0 875 2 867 13 -6 7 -12 38 -14 70 -2 34 -7 57 -14 57 -6
0 -17 7 -24 15 -7 8 -28 17 -47 21 -21 4 -32 11 -30 19 3 6 -4 18 -15 26 -11
8 -36 26 -56 42 -19 15 -38 27 -42 27 -5 0 -11 -22 -15 -49 -4 -28 -13 -55
-21 -62 -17 -14 -17 -13 -14 86 l2 71 -48 23 c-39 20 -44 25 -30 33 12 7 28 6
49 -3 17 -7 42 -13 56 -13 20 -1 25 -6 24 -21 -2 -15 17 -33 77 -72 43 -29 82
-48 85 -43 12 19 35 10 35 -13 0 -30 6 -36 31 -30 14 4 19 14 19 37 0 31 -4
34 -124 92 -91 43 -123 64 -123 76 1 10 6 18 12 18 6 0 12 49 14 128 7 235 7
233 -11 246 -10 7 -14 17 -10 22 4 4 -1 2 -11 -5 -23 -18 -32 -8 -17 18 15 29
-7 37 -57 20 -21 -7 -44 -12 -50 -11 -17 4 -17 -15 0 -21 7 -3 5 -6 -5 -6 -9
-1 -21 7 -27 16 -7 13 -10 4 -15 -37 -3 -30 -5 -62 -6 -70 0 -8 -3 -31 -6 -52
-5 -30 -3 -37 13 -41 14 -4 13 -5 -5 -6 -22 -1 -23 -5 -21 -53 2 -51 -14 -123
-32 -142 -5 -6 -1 -18 11 -31 19 -20 19 -21 -26 -78 l-46 -57 92 0 c124 0 130
-4 130 -90 l0 -70 -557 -1 c-604 -1 -670 -2 -694 -13 -21 -9 -29 18 -29 97 0
53 2 58 26 67 15 6 220 10 513 10 l488 0 26 67 c24 61 25 69 11 83 -14 13 -17
13 -30 -4 -12 -18 -19 -15 -15 7 0 4 -10 7 -24 7 -16 0 -25 -6 -25 -15 0 -11
-7 -14 -27 -10 l-28 6 30 -17 c17 -9 31 -18 33 -19 9 -7 -20 -54 -37 -60 -30
-9 -61 3 -61 24 0 14 6 17 28 15 l27 -4 -27 11 c-15 5 -31 22 -37 37 -5 15
-10 22 -10 16 -1 -6 -12 -9 -26 -6 -14 2 -25 0 -25 -7 0 -6 10 -10 22 -8 14 1
23 -4 26 -15 3 -14 -4 -18 -25 -19 -27 -2 -27 -2 -3 -6 59 -11 44 -41 -17 -35
l-43 4 0 50 c0 44 -2 49 -15 38 -12 -10 -16 -9 -21 4 -11 30 -25 16 -22 -21 2
-31 7 -39 26 -41 14 -2 22 -10 22 -23 0 -17 -6 -20 -42 -17 l-43 3 -6 60 -5
60 -5 -60 c-3 -45 -8 -60 -19 -60 -11 0 -17 16 -21 60 -5 56 -10 49 -13 -20
-1 -27 -5 -30 -43 -36 -53 -7 -61 -2 -61 36 0 61 -2 75 -12 75 -5 0 -6 -9 -1
-22 19 -53 -22 -105 -73 -92 -34 8 -49 38 -41 80 3 21 2 34 -5 34 -6 0 -10
-23 -10 -55 0 -48 -2 -55 -20 -55 -14 0 -20 7 -21 23 0 12 -3 16 -6 10 -7 -19
-30 -16 -42 5 -9 15 -10 13 -11 -9 0 -25 -21 -45 -34 -32 -3 3 -3 30 0 60 l7
53 -55 0 c-30 0 -59 -5 -66 -12 -6 -6 -14 -9 -17 -6 -10 10 -27 172 -29 288
-2 63 -5 121 -7 129 -3 9 17 21 60 36 35 12 67 29 72 36 14 22 11 39 -6 33 -8
-4 -12 -10 -9 -15 3 -5 0 -9 -6 -9 -6 0 -13 7 -17 16 -4 11 -13 13 -34 9 -27
-6 -29 -4 -29 21 l0 28 -16 -22 c-8 -12 -21 -22 -29 -22 -7 0 -20 -7 -29 -15
-8 -8 -17 -11 -20 -6 -7 10 -56 2 -73 -12 -9 -6 -13 -6 -13 2 0 6 -5 10 -11 8
-6 -1 -14 4 -17 12 -3 10 1 13 16 9 38 -10 44 13 26 88 -9 38 -23 82 -31 97
-8 16 -12 31 -9 35 8 7 16 -2 21 -24 2 -11 11 -37 20 -58 9 -22 20 -57 23 -79
5 -25 13 -41 23 -42 13 -2 10 11 -13 77 -33 95 -34 102 -8 128 20 20 20 20 20
-3 0 -13 -6 -29 -12 -37 -7 -8 -8 -11 -3 -6 6 5 14 -19 20 -65 11 -76 24 -95
43 -57 7 16 11 18 11 7 1 -12 8 -15 26 -11 14 2 25 9 25 16 0 34 -32 123 -48
136 -11 8 -22 24 -26 35 -5 17 -4 17 12 -3 16 -21 20 -22 32 -8 7 9 27 16 44
16 126 -1 136 0 136 14 0 8 8 19 18 25 14 8 15 12 5 22 -22 22 -15 39 17 39
28 0 30 3 30 34 0 19 5 38 10 41 6 3 10 15 10 26 0 31 45 111 82 146 113 108
301 101 399 -15 32 -38 33 -39 77 -30 25 4 48 6 51 3 2 -3 -1 -22 -8 -41 -12
-33 -11 -38 10 -60 25 -27 24 -32 -12 -37 -19 -3 -25 -11 -27 -38 l-3 -35 -82
-12 c-157 -23 -422 -65 -426 -69 -9 -7 32 -42 42 -36 5 3 7 1 4 -4 -10 -15 24
-42 82 -64 52 -19 127 -26 117 -10 -3 4 5 6 18 4 51 -10 155 71 185 145 18 42
46 44 38 2 -4 -16 -2 -32 3 -35 6 -3 10 1 10 11 0 15 2 15 26 -1 15 -9 24 -13
21 -8 -4 6 29 9 77 9 69 -1 83 -4 79 -16 -3 -11 -1 -10 10 3 8 9 16 17 19 17
9 0 -11 -113 -21 -123 -13 -13 -15 -40 -2 -32 6 3 8 -9 4 -29 -5 -34 -5 -35
23 -27 35 9 54 42 54 94 0 20 5 37 10 37 6 0 10 -7 10 -15 0 -8 5 -15 10 -15
6 0 10 -9 10 -20 0 -11 9 -28 20 -37 21 -19 77 -26 85 -12 3 4 13 5 23 2 15
-6 15 -4 -1 15 -12 13 -20 38 -20 66 -2 42 0 47 28 58 17 7 36 18 43 25 17 16
89 17 94 1 3 -9 6 -9 12 0 4 7 2 12 -3 12 -6 0 -11 14 -11 30 0 28 2 30 43 31
23 1 58 1 78 0 24 -2 40 3 50 15 12 16 12 17 -3 11 -26 -9 -40 23 -24 54 7 13
18 23 25 21 6 -1 21 3 32 9 25 13 49 -4 49 -35 0 -21 1 -21 19 3 16 21 21 22
42 11 13 -7 31 -20 39 -30 20 -25 60 -10 60 22 0 16 -3 19 -9 10 -7 -11 -9
-10 -14 3 -4 9 -3 13 3 10 6 -3 10 -2 10 4 0 5 -5 11 -12 13 -6 2 -8 10 -4 16
11 18 26 14 26 -7 0 -11 4 -23 10 -26 6 -4 7 1 3 11 -5 14 -3 15 16 4 19 -10
22 -9 19 7 -2 15 3 17 30 15 17 -2 32 1 32 7 0 5 18 8 40 6 30 -3 40 0 40 11
0 8 -4 14 -10 14 -5 0 -10 9 -10 20 0 11 4 20 10 20 5 0 14 -9 20 -20 7 -13
21 -20 40 -20 l30 0 0 120 0 119 -121 0 c-74 0 -130 -5 -142 -12 -15 -9 -21
-9 -24 1 -3 7 -24 12 -54 12 -42 0 -49 -3 -49 -19 0 -11 -3 -26 -6 -34 -5 -14
-8 -13 -25 1 -10 9 -19 24 -19 34 0 16 -11 18 -104 18 -74 0 -106 -4 -109 -12
-3 -10 -9 -10 -26 0 -11 6 -38 12 -60 12 -30 0 -40 -4 -44 -20 -3 -11 -10 -20
-16 -20 -6 0 -11 9 -11 20 0 19 -7 20 -190 20 -142 0 -189 -3 -188 -12 2 -6
-5 -14 -14 -16 -11 -2 -18 2 -18 11 0 12 -38 15 -240 16 -159 1 -240 -2 -240
-9 0 -5 -7 -10 -15 -10 -8 0 -15 5 -15 10 0 6 -24 10 -52 9 -29 0 -47 -3 -40
-6 20 -8 14 -33 -9 -33 -16 0 -20 5 -16 20 5 20 0 20 -256 20 -144 0 -257 -4
-250 -8 7 -4 10 -17 7 -30 -5 -18 -9 -20 -26 -11 -13 7 -18 17 -15 30 6 24 -2
24 -19 2 -13 -17 -15 -17 -28 0 -14 19 -36 23 -36 7 0 -5 -9 -10 -20 -10 -11
0 -20 5 -20 10 0 6 -45 10 -117 9 -65 -1 -110 -3 -101 -6 13 -3 15 -12 11 -39
-5 -28 -2 -34 12 -34 14 0 15 -3 5 -15 -7 -8 -23 -14 -36 -13 -12 1 -21 4 -19
7 3 2 -1 11 -8 19 -10 13 -9 14 3 8 8 -4 4 1 -10 13 -22 17 -23 23 -12 41 12
20 10 20 -103 20 -111 0 -115 -1 -115 -21z m118 -6 c-5 -25 -28 -28 -28 -4 0
12 6 21 16 21 9 0 14 -7 12 -17z m1825 2 c1 -5 -6 -11 -15 -13 -11 -2 -18 3
-18 13 0 17 30 18 33 0z m145 -2 c2 -8 -5 -13 -17 -13 -12 0 -21 6 -21 16 0
18 31 15 38 -3z m-1693 -3 c7 -12 -42 -33 -56 -24 -5 3 -6 10 -3 16 4 6 10 5
15 -3 7 -11 9 -10 9 4 0 18 25 24 35 7z m382 -5 c7 -20 -2 -29 -21 -22 -9 4
-13 13 -10 22 8 19 23 19 31 0z m141 -8 c2 -12 -3 -17 -17 -17 -12 0 -21 6
-21 13 0 31 32 34 38 4z m137 3 c0 -8 -8 -16 -17 -18 -13 -2 -18 3 -18 18 0
15 5 20 18 18 9 -2 17 -10 17 -18z m-907 -27 c-4 -22 -22 -20 -26 1 -2 10 3
16 13 16 10 0 15 -7 13 -17z m595 -9 c9 -4 17 -10 17 -15 0 -12 -17 -12 -24 0
-3 5 -15 7 -26 4 -11 -3 -20 -1 -20 4 0 15 13 24 24 18 6 -3 19 -8 29 -11z
m2222 -5 c10 -15 -1 -23 -20 -15 -9 3 -13 10 -10 16 8 13 22 13 30 -1z m-2452
-61 c-7 -13 -33 -9 -33 5 0 6 -3 23 -6 37 -6 24 -5 24 19 -5 14 -16 23 -33 20
-37z m112 42 c3 -6 -1 -13 -10 -16 -19 -8 -30 0 -20 15 8 14 22 14 30 1z
m1995 -10 c0 -11 -7 -20 -15 -20 -8 0 -15 9 -15 20 0 11 7 20 15 20 8 0 15 -9
15 -20z m126 9 c10 -17 -13 -36 -27 -22 -12 12 -4 33 11 33 5 0 12 -5 16 -11z
m104 -4 c0 -8 -7 -15 -15 -15 -8 0 -15 7 -15 15 0 8 7 15 15 15 8 0 15 -7 15
-15z m-810 -10 c0 -8 -7 -15 -15 -15 -8 0 -15 7 -15 15 0 8 7 15 15 15 8 0 15
-7 15 -15z m-1830 -10 c0 -8 -7 -15 -15 -15 -8 0 -15 7 -15 15 0 8 7 15 15 15
8 0 15 -7 15 -15z m188 -40 c-1 -14 -7 -23 -13 -20 -5 3 -18 8 -27 11 -14 5
-15 10 -6 30 9 19 14 21 29 13 12 -6 18 -19 17 -34z m292 35 c0 -5 -7 -10 -15
-10 -8 0 -15 5 -15 10 0 6 7 10 15 10 8 0 15 -4 15 -10z m156 -27 c-10 -10
-19 5 -10 18 6 11 8 11 12 0 2 -7 1 -15 -2 -18z m1294 12 c0 -8 -7 -15 -15
-15 -8 0 -15 7 -15 15 0 8 7 15 15 15 8 0 15 -7 15 -15z m-2087 -1 c9 -10 -4
-34 -19 -34 -8 0 -14 6 -14 13 0 22 19 35 33 21z m55 -11 c-4 -22 -22 -20 -26
1 -2 10 3 16 13 16 10 0 15 -7 13 -17z m57 -5 c-7 -32 -24 -46 -35 -28 -18 28
-12 50 14 50 20 0 24 -4 21 -22z m110 1 c0 -7 -8 -15 -17 -17 -18 -3 -25 18
-11 32 10 10 28 1 28 -15z m1765 17 c0 -3 -4 -8 -10 -11 -5 -3 -10 -1 -10 4 0
6 5 11 10 11 6 0 10 -2 10 -4z m630 -6 c0 -5 -4 -10 -10 -10 -5 0 -10 5 -10
10 0 6 5 10 10 10 6 0 10 -4 10 -10z m-2053 -26 c7 -10 13 -22 13 -26 0 -17
-31 -20 -48 -5 -9 8 -26 17 -36 18 -26 5 -32 26 -9 31 33 8 66 0 80 -18z
m1949 10 c-5 -13 -1 -15 21 -11 34 6 76 -9 70 -26 -2 -6 -12 -11 -21 -11 -9 1
-16 -2 -16 -7 0 -5 -11 -9 -24 -9 -13 0 -27 -6 -29 -12 -3 -7 -3 1 0 18 4 26
1 32 -16 37 -28 7 -28 37 0 37 15 0 19 -4 15 -16z m378 8 c8 -13 -11 -35 -23
-28 -16 10 -14 36 3 36 8 0 17 -4 20 -8z m-734 -11 c0 -6 -4 -13 -10 -16 -5
-3 -10 1 -10 9 0 9 5 16 10 16 6 0 10 -4 10 -9z m43 -6 c1 -5 -6 -11 -15 -13
-11 -2 -18 3 -18 13 0 17 30 18 33 0z m-1796 -40 c-7 -5 -16 -18 -20 -28 -4
-10 -11 -15 -17 -12 -14 9 -13 35 2 35 6 0 8 3 5 6 -3 4 -1 16 5 27 10 20 11
20 25 1 11 -16 11 -20 0 -29z m2358 25 c0 -7 -6 -15 -12 -17 -8 -3 -13 4 -13
17 0 13 5 20 13 18 6 -3 12 -11 12 -18z m-435 -5 c0 -8 -6 -15 -14 -15 -17 0
-28 14 -19 24 12 12 33 6 33 -9z m338 -8 c2 -10 -3 -17 -12 -17 -10 0 -16 9
-16 21 0 24 23 21 28 -4z m-2196 -2 c0 -5 -5 -11 -11 -13 -6 -2 -11 4 -11 13
0 9 5 15 11 13 6 -2 11 -8 11 -13z m1759 2 c-1 -12 -15 -9 -19 4 -3 6 1 10 8
8 6 -3 11 -8 11 -12z m219 -2 c0 -8 -9 -15 -20 -15 -11 0 -20 7 -20 15 0 8 9
15 20 15 11 0 20 -7 20 -15z m-2390 -10 c-7 -9 -15 -13 -19 -10 -3 3 1 10 9
15 21 14 24 12 10 -5z m2728 -17 c-2 -15 -11 -24 -26 -26 -20 -3 -21 -1 -11
22 15 33 42 35 37 4z m-2458 2 c0 -5 -4 -10 -9 -10 -6 0 -13 5 -16 10 -3 6 1
10 9 10 9 0 16 -4 16 -10z m1990 -5 c0 -8 -4 -15 -10 -15 -5 0 -10 7 -10 15 0
8 5 15 10 15 6 0 10 -7 10 -15z m90 -10 c7 -8 16 -13 20 -10 13 8 23 -16 12
-27 -13 -13 -72 17 -72 37 0 19 24 19 40 0z m144 -16 c-3 -5 -10 -7 -15 -3 -5
3 -7 10 -3 15 3 5 10 7 15 3 5 -3 7 -10 3 -15z m-41 -18 c3 -14 0 -17 -14 -14
-11 3 -19 12 -19 19 0 21 27 17 33 -5z m117 -7 c0 -16 -16 -19 -25 -4 -8 13 4
32 16 25 5 -4 9 -13 9 -21z m-340 -4 c0 -21 -24 -28 -35 -10 -8 14 3 30 21 30
8 0 14 -9 14 -20z m300 4 c0 -9 -5 -14 -12 -12 -18 6 -21 28 -4 28 9 0 16 -7
16 -16z m-1842 -125 c2 -13 -4 -16 -29 -13 -38 5 -43 9 -34 24 10 16 59 8 63
-11z m1139 -21 c-3 -8 -6 -5 -6 6 -1 11 2 17 5 13 3 -3 4 -12 1 -19z m-1168
-4 c26 -6 31 -11 28 -31 -5 -38 -34 -66 -56 -54 -21 12 -34 51 -25 75 7 18 9
18 53 10z m1307 -29 c-4 -14 -2 -25 4 -25 5 0 10 -9 10 -21 0 -12 -4 -17 -11
-14 -6 4 -9 0 -7 -11 4 -23 -21 -29 -46 -11 -22 16 -26 68 -6 91 7 9 24 16 37
16 22 0 24 -3 19 -25z m-501 -5 c3 -5 -2 -10 -11 -10 -16 0 -16 -1 1 -14 16
-12 17 -16 6 -30 -15 -18 -41 -22 -41 -6 0 6 8 10 18 10 16 1 16 1 0 11 -21
12 -24 35 -5 42 19 8 25 8 32 -3z m-65 -40 l-13 -30 -13 26 c-15 27 -10 49 5
25 6 -10 10 -9 15 5 3 9 9 14 13 11 3 -4 0 -20 -7 -37z m-46 8 c10 -37 7 -43
-19 -43 -27 0 -31 14 -15 46 14 25 26 24 34 -3z m-56 -11 c5 -23 -15 -47 -39
-47 -14 0 -19 7 -19 28 0 16 3 32 7 36 13 13 48 1 51 -17z m-657 -155 c6 -30
8 -56 5 -59 -3 -4 -6 3 -6 15 0 24 -16 37 -26 21 -8 -13 -24 7 -24 31 0 13 1
13 10 0 18 -28 11 11 -10 59 -26 57 -25 60 10 20 18 -21 34 -54 41 -87z m-80
-1 c8 11 10 10 8 -6 -1 -11 0 -22 1 -25 15 -41 0 -58 -26 -28 -14 15 -16 22
-7 25 7 3 11 14 9 26 -1 12 -1 16 1 8 4 -12 6 -12 14 0z m207 -176 c0 -16 -2
-15 -8 5 -11 34 -11 60 0 35 5 -11 8 -29 8 -40z m-41 -22 c-3 -10 -5 -2 -5 17
0 19 2 27 5 18 2 -10 2 -26 0 -35z m1263 13 c0 -3 -4 -8 -10 -11 -5 -3 -10 -1
-10 4 0 6 5 11 10 11 6 0 10 -2 10 -4z m-1293 -108 c-3 -7 -5 -2 -5 12 0 14 2
19 5 13 2 -7 2 -19 0 -25z m40 -10 c-3 -7 -5 -2 -5 12 0 14 2 19 5 13 2 -7 2
-19 0 -25z m40 -20 c-3 -7 -5 -2 -5 12 0 14 2 19 5 13 2 -7 2 -19 0 -25z m-17
-14 c0 -2 -7 -4 -15 -4 -8 0 -15 4 -15 10 0 5 7 7 15 4 8 -4 15 -8 15 -10z
m-58 -234 c5 -29 2 -38 -20 -54 l-25 -19 7 62 c9 82 18 104 26 71 4 -14 9 -41
12 -60z m18 -103 c0 -7 -13 -21 -30 -30 -24 -15 -30 -15 -30 -4 0 14 36 45 53
46 4 1 7 -5 7 -12z m1350 -227 c0 -5 -10 -10 -22 -10 -19 0 -20 2 -8 10 19 13
30 13 30 0z m146 -6 c-3 -9 -6 -18 -6 -20 0 -10 -33 -3 -46 10 -12 13 -10 15
13 19 16 2 32 5 37 6 4 0 5 -6 2 -15z m67 9 c-7 -2 -21 -2 -30 0 -10 3 -4 5
12 5 17 0 24 -2 18 -5z m-869 -38 c4 -10 -1 -15 -14 -15 -20 0 -26 11 -13 23
10 11 20 8 27 -8z"/>
        <path d="M755 1200 c3 -5 11 -10 16 -10 6 0 7 5 4 10 -3 6 -11 10 -16 10 -6 0
-7 -4 -4 -10z"/>
        <path d="M1375 1168 c-10 -26 -2 -43 12 -26 7 8 8 19 3 28 -8 12 -10 12 -15
-2z"/>
        <path d="M1355 1549 c-44 -17 -96 -59 -89 -71 4 -6 3 -8 -3 -5 -14 9 -39 -20
-58 -66 -18 -43 -19 -57 -4 -57 5 0 7 4 4 10 -3 5 0 7 9 4 14 -5 426 54 436
62 9 9 -30 59 -44 58 -8 -1 -14 3 -13 9 1 6 -18 22 -41 35 -50 28 -149 38
-197 21z m178 -61 c-13 -6 -23 -19 -23 -30 0 -23 9 -23 26 0 12 16 13 15 14
-6 0 -20 -4 -23 -27 -20 -49 5 -38 69 11 67 21 0 21 0 -1 -11z m-85 -35 c-2
-31 -7 -39 -25 -41 -21 -3 -23 1 -23 37 0 37 2 41 26 41 23 0 25 -3 22 -37z
m32 2 c0 -19 -4 -35 -10 -35 -5 0 -10 16 -10 35 0 19 5 35 10 35 6 0 10 -16
10 -35z m-119 -12 c-11 -5 -11 -7 0 -14 12 -7 11 -9 -1 -9 -13 0 -13 -1 0 -10
13 -8 12 -10 -2 -10 -13 0 -18 8 -18 25 0 17 5 25 18 24 12 0 13 -2 3 -6z
m-51 -15 c0 -9 4 -8 10 2 8 12 10 10 10 -8 0 -13 -4 -21 -9 -17 -5 3 -13 0
-17 -7 -6 -9 -10 -5 -15 12 l-7 25 -2 -25 c-1 -23 -2 -23 -9 -5 -5 11 -7 23
-4 28 7 12 43 8 43 -5z"/>
        <path d="M1418 1433 c7 -3 16 -2 19 1 4 3 -2 6 -13 5 -11 0 -14 -3 -6 -6z"/>
        <path d="M2836 1395 c-22 -17 -17 -29 8 -19 9 3 16 12 16 20 0 17 0 17 -24 -1z"/>
        <path d="M1658 1384 c-5 -4 -8 -19 -8 -33 l-1 -26 -17 28 c-24 39 -32 34 -31
-20 1 -40 2 -43 8 -18 l6 29 22 -29 c27 -38 35 -30 31 30 -2 26 -6 43 -10 39z"/>
        <path d="M1517 1352 c-37 -40 -11 -91 37 -72 21 8 26 16 26 44 0 22 -6 36 -16
40 -24 9 -29 8 -47 -12z m41 -29 c-3 -30 -25 -42 -34 -19 -9 22 2 46 21 46 12
0 15 -8 13 -27z"/>
        <path d="M1478 1354 c-5 -4 -8 -28 -8 -53 0 -32 3 -42 11 -34 5 5 9 29 7 53
-2 23 -6 38 -10 34z"/>
        <path d="M1400 1300 c0 -36 3 -40 25 -40 14 0 25 5 25 10 0 6 -8 10 -17 8 -15
-2 -17 3 -15 30 2 18 -1 32 -7 32 -6 0 -11 -18 -11 -40z"/>
        <path d="M1290 1285 c0 -25 5 -45 10 -45 6 0 10 20 10 45 0 25 -4 45 -10 45
-5 0 -10 -20 -10 -45z"/>
        <path d="M1330 1284 c0 -38 3 -45 16 -40 9 3 20 6 25 6 5 0 9 4 9 10 0 5 -7 7
-15 4 -16 -6 -32 37 -20 55 3 6 1 11 -4 11 -6 0 -11 -20 -11 -46z"/>
        <path d="M1223 1313 c-8 -3 -13 -23 -13 -47 0 -41 1 -42 29 -38 34 5 40 15 34
60 -5 31 -19 38 -50 25z m32 -23 c-3 -5 -10 -10 -16 -10 -5 0 -9 5 -9 10 0 6
7 10 16 10 8 0 12 -4 9 -10z m5 -30 c0 -12 -28 -25 -36 -17 -9 9 6 27 22 27 8
0 14 -5 14 -10z"/>
        <path d="M1095 1200 c-3 -5 1 -10 9 -10 9 0 16 5 16 10 0 6 -4 10 -9 10 -6 0
-13 -4 -16 -10z"/>
        <path d="M2407 1193 c-10 -9 -9 -33 1 -33 4 0 8 9 8 20 0 23 0 22 -9 13z"/>
        <path d="M1460 975 c0 -14 3 -25 8 -25 4 0 7 11 7 25 0 14 -3 25 -7 25 -5 0
-8 -11 -8 -25z"/>
        <path d="M1490 995 c0 -7 30 -13 34 -7 3 4 -4 9 -15 9 -10 1 -19 0 -19 -2z"/>
        <path d="M1163 960 c0 -23 3 -28 9 -16 5 9 5 23 0 32 -6 12 -9 7 -9 -16z"/>
        <path d="M1212 970 c0 -14 2 -19 5 -12 2 6 2 18 0 25 -3 6 -5 1 -5 -13z"/>
        <path d="M1407 983 c-4 -3 -7 -13 -7 -22 1 -13 3 -13 11 2 11 19 8 33 -4 20z"/>
        <path d="M1596 978 c3 -5 10 -6 15 -3 13 9 11 12 -6 12 -8 0 -12 -4 -9 -9z"/>
        <path d="M1491 968 c-1 -10 6 -18 14 -18 8 0 15 5 15 11 0 5 -4 8 -9 5 -5 -4
-12 0 -14 6 -3 8 -6 6 -6 -4z"/>
        <path d="M1238 953 c7 -3 16 -2 19 1 4 3 -2 6 -13 5 -11 0 -14 -3 -6 -6z"/>
        <path d="M1647 854 c-9 -9 9 -58 21 -60 7 -1 8 0 2 3 -14 7 -13 40 2 45 8 3 6
6 -4 10 -9 4 -18 4 -21 2z"/>
        <path d="M1200 835 c0 -8 4 -15 8 -15 5 0 9 7 9 15 0 8 -4 15 -9 15 -4 0 -8
-7 -8 -15z"/>
        <path d="M1410 838 c0 -23 12 -29 28 -15 13 10 15 9 8 -8 -6 -16 -5 -18 5 -7
10 9 10 15 1 24 -7 7 -12 8 -12 4 0 -5 -7 -3 -15 4 -12 10 -15 10 -15 -2z"/>
        <path d="M1490 841 c0 -5 7 -8 16 -7 27 2 28 -23 2 -33 -16 -7 -18 -10 -6 -10
9 -1 20 4 23 9 5 8 11 8 19 1 13 -11 56 -11 56 0 0 4 7 14 15 23 8 8 11 17 6
21 -5 3 -13 -4 -16 -16 -6 -17 -9 -19 -16 -8 -7 11 -9 10 -9 -3 0 -17 -20 -24
-33 -12 -10 10 4 34 22 35 10 0 12 2 3 6 -7 3 -19 0 -26 -7 -10 -7 -16 -8 -21
0 -8 12 -35 14 -35 1z"/>
        <path d="M1230 825 c0 -8 4 -15 8 -15 5 0 9 7 9 15 0 8 -4 15 -9 15 -4 0 -8
-7 -8 -15z"/>
        <path d="M1265 829 c-9 -14 -2 -20 14 -10 8 6 9 11 3 15 -6 3 -14 1 -17 -5z"/>
        <path d="M1300 824 c0 -8 5 -12 10 -9 6 4 8 11 5 16 -9 14 -15 11 -15 -7z"/>
        <path d="M1330 835 c0 -2 7 -8 15 -15 12 -10 15 -10 15 2 0 8 -7 15 -15 15 -8
0 -15 -1 -15 -2z"/>
        <path d="M1370 831 c0 -6 4 -12 8 -15 5 -3 9 1 9 9 0 8 -4 15 -9 15 -4 0 -8
-4 -8 -9z"/>
        <path d="M1625 810 c-3 -5 -1 -10 4 -10 6 0 11 5 11 10 0 6 -2 10 -4 10 -3 0
-8 -4 -11 -10z"/>
        <path d="M1090 665 c0 -30 3 -35 24 -35 13 0 26 6 29 13 8 21 -9 50 -31 54
-19 2 -22 -2 -22 -32z m40 -15 c0 -5 -4 -10 -10 -10 -5 0 -10 5 -10 10 0 6 5
10 10 10 6 0 10 -4 10 -10z"/>
        <path d="M1163 665 c0 -22 2 -30 4 -17 2 12 2 30 0 40 -3 9 -5 -1 -4 -23z"/>
        <path d="M1202 691 c-22 -13 -11 -56 16 -59 15 -2 22 2 22 13 0 12 -6 15 -20
10 -12 -4 -20 -2 -20 5 0 7 9 14 20 17 11 3 17 9 14 14 -6 11 -15 11 -32 0z"/>
        <path d="M1259 684 c-9 -11 -10 -20 -2 -32 14 -23 39 -27 47 -7 4 13 1 15 -14
10 -14 -5 -20 -2 -20 9 0 9 7 16 15 16 8 0 15 5 15 10 0 16 -26 12 -41 -6z"/>
        <path d="M1327 693 c-4 -3 -7 -19 -7 -35 0 -24 4 -28 28 -27 16 1 20 3 10 6
-21 5 -24 23 -5 24 6 0 3 4 -8 9 -19 8 -19 9 3 9 12 1 22 6 22 11 0 11 -33 14
-43 3z"/>
        <path d="M1383 685 c-3 -9 3 -23 13 -31 17 -14 17 -15 2 -10 -10 3 -18 1 -18
-5 0 -14 42 -7 48 9 2 6 -7 16 -20 21 -17 7 -18 10 -5 10 21 1 23 21 2 21 -9
0 -18 -7 -22 -15z"/>
        <path d="M1440 690 c0 -5 4 -10 9 -10 4 0 6 -11 3 -25 -2 -15 0 -25 7 -25 6 0
11 11 11 25 0 14 5 25 10 25 6 0 10 5 10 10 0 6 -11 10 -25 10 -14 0 -25 -4
-25 -10z"/>
        <path d="M1527 694 c-4 -4 -7 -20 -7 -36 0 -32 28 -39 51 -12 21 25 -21 71
-44 48z m33 -28 c0 -24 -17 -28 -23 -6 -3 13 0 20 9 20 8 0 14 -6 14 -14z"/>
        <path d="M1590 663 c0 -30 3 -33 28 -32 16 1 20 3 10 6 -21 5 -24 23 -5 24 6
0 3 4 -8 9 -19 8 -19 9 3 9 12 1 22 5 22 11 0 5 -11 9 -25 8 -21 -2 -25 -7
-25 -35z"/>
        <path d="M1660 675 c-14 -38 -13 -40 19 -41 28 -1 28 0 19 28 -14 39 -26 44
-38 13z"/>
        <path d="M1721 668 c-1 -32 2 -38 19 -38 11 0 20 5 20 10 0 6 -5 9 -12 8 -7
-2 -15 11 -19 27 -6 29 -7 29 -8 -7z"/>
        <path d="M1780 690 c-13 -9 -13 -12 3 -24 21 -16 22 -30 1 -22 -8 3 -12 2 -9
-4 8 -14 32 -13 41 2 4 6 -1 17 -11 25 -17 12 -18 13 -1 13 9 0 14 5 11 10 -8
13 -16 12 -35 0z"/>
        <path d="M2654 515 c0 -88 2 -123 3 -77 2 46 2 118 0 160 -1 42 -3 5 -3 -83z"/>
        <path d="M424 500 c0 -91 2 -128 3 -82 2 45 2 119 0 165 -1 45 -3 8 -3 -83z"/>
        <path d="M1157 584 c-22 -23 3 -65 34 -57 28 8 22 57 -6 61 -12 2 -24 0 -28
-4z m38 -24 c0 -7 -6 -15 -12 -17 -8 -3 -13 4 -13 17 0 13 5 20 13 18 6 -3 12
-11 12 -18z"/>
        <path d="M1220 560 c0 -16 5 -30 10 -30 6 0 10 4 10 9 0 5 8 12 18 14 16 4 16
5 0 6 -10 0 -18 5 -18 10 0 5 8 12 18 14 10 3 6 5 -10 6 -25 1 -28 -3 -28 -29z"/>
        <path d="M1308 578 c5 -7 11 -21 13 -32 3 -14 7 -11 16 13 11 30 10 31 -14 31
-19 0 -23 -3 -15 -12z"/>
        <path d="M1360 560 c0 -30 14 -40 24 -17 5 10 7 10 12 0 10 -23 24 -13 24 17
0 31 -20 43 -20 13 -1 -17 -1 -17 -14 0 -19 25 -26 21 -26 -13z"/>
        <path d="M1430 560 c0 -26 3 -30 28 -29 23 0 24 1 7 8 l-20 8 20 5 c16 5 17 6
3 7 -10 0 -18 5 -18 10 0 5 8 12 18 14 10 3 6 5 -10 6 -25 1 -28 -3 -28 -29z"/>
        <path d="M1523 560 c6 -16 14 -30 17 -30 3 0 11 14 17 30 11 29 1 44 -11 18
-5 -10 -7 -10 -12 0 -12 26 -22 11 -11 -18z"/>
        <path d="M1580 561 c0 -31 26 -49 44 -31 7 7 4 10 -9 10 -17 0 -18 2 -5 10 10
6 11 10 3 10 -19 0 -16 18 5 23 10 3 6 5 -10 6 -24 1 -28 -3 -28 -28z"/>
        <path d="M1646 568 c-8 -33 -9 -33 23 -34 28 -1 28 0 19 27 -12 35 -33 38 -42
7z"/>
        <path d="M1710 559 c0 -27 2 -30 15 -19 10 9 15 9 15 1 0 -25 16 -9 18 19 2
26 -1 30 -23 30 -21 0 -25 -5 -25 -31z m30 11 c0 -5 -4 -10 -10 -10 -5 0 -10
5 -10 10 0 6 5 10 10 10 6 0 10 -4 10 -10z"/>
        <path d="M2890 540 c0 -18 4 -29 10 -25 6 3 10 15 10 25 0 10 -4 22 -10 25 -6
4 -10 -7 -10 -25z"/>
        <path d="M233 470 c0 -30 2 -43 4 -27 2 15 2 39 0 55 -2 15 -4 2 -4 -28z"/>
        <path d="M2893 424 c-1 -25 1 -43 5 -40 9 10 14 86 5 86 -4 0 -9 -21 -10 -46z"/>
        <path d="M1120 411 c0 -17 18 -21 24 -6 3 9 0 15 -9 15 -8 0 -15 -4 -15 -9z"/>
        <path d="M1255 390 c-10 -16 4 -50 21 -50 11 0 14 8 12 27 -3 28 -22 41 -33
23z"/>
        <path d="M1390 390 c0 -5 5 -10 10 -10 6 0 10 5 10 10 0 6 -4 10 -10 10 -5 0
-10 -4 -10 -10z"/>
        <path d="M2537 370 c10 -11 18 -20 19 -20 1 0 0 9 -3 20 -3 11 -12 20 -19 20
-11 0 -10 -5 3 -20z"/>
        <path d="M1388 343 c7 -3 16 -2 19 1 4 3 -2 6 -13 5 -11 0 -14 -3 -6 -6z"/>
        <path d="M337 253 c-4 -3 -7 -11 -7 -17 0 -6 5 -5 12 2 6 6 9 14 7 17 -3 3 -9
2 -12 -2z"/>
        <path d="M898 213 c-19 -5 -25 -23 -8 -23 6 0 10 -11 10 -25 0 -14 5 -25 10
-25 6 0 10 18 10 40 0 22 -1 39 -2 39 -2 -1 -11 -3 -20 -6z"/>
        <path d="M952 208 c-17 -17 -15 -43 4 -63 23 -22 46 -1 42 39 -3 33 -25 45
-46 24z m28 -33 c0 -14 -4 -25 -10 -25 -5 0 -10 11 -10 25 0 14 5 25 10 25 6
0 10 -11 10 -25z"/>
        <path d="M1015 210 c-3 -5 -3 -14 0 -20 8 -13 48 -6 53 10 3 7 0 10 -6 6 -6
-3 -13 -2 -17 4 -8 13 -22 13 -30 0z m25 -4 c0 -3 -4 -8 -10 -11 -5 -3 -10 -1
-10 4 0 6 5 11 10 11 6 0 10 -2 10 -4z"/>
        <path d="M1121 204 c0 -11 3 -14 6 -6 3 7 2 16 -1 19 -3 4 -6 -2 -5 -13z"/>
        <path d="M1191 204 c0 -11 3 -14 6 -6 3 7 2 16 -1 19 -3 4 -6 -2 -5 -13z"/>
        <path d="M1257 213 c-4 -3 -7 -11 -7 -17 0 -6 5 -5 12 2 6 6 9 14 7 17 -3 3
-9 2 -12 -2z"/>
        <path d="M1420 175 l0 -45 155 0 155 0 0 45 0 45 -155 0 -155 0 0 -45z m70 14
c0 -6 7 -18 16 -27 12 -12 13 -17 4 -20 -7 -3 -17 2 -22 9 -7 11 -11 11 -15 2
-2 -7 -11 -13 -19 -13 -12 0 -12 4 1 30 15 29 35 40 35 19z m70 -11 c0 -4 -9
-8 -20 -8 -11 0 -20 4 -20 8 0 4 9 8 20 8 11 0 20 -4 20 -8z m30 2 c0 -5 -4
-10 -10 -10 -5 0 -10 5 -10 10 0 6 5 10 10 10 6 0 10 -4 10 -10z m70 -2 c0 -4
-11 -8 -25 -8 -14 0 -25 4 -25 8 0 4 11 8 25 8 14 0 25 -4 25 -8z m35 2 c3 -5
-1 -10 -9 -10 -9 0 -16 5 -16 10 0 6 4 10 9 10 6 0 13 -4 16 -10z"/>
        <path d="M1759 218 c0 -2 -2 -22 -5 -45 l-6 -43 161 0 c130 0 159 3 155 13 -3
8 -18 13 -35 12 -16 -1 -32 1 -34 5 -2 4 -27 4 -55 0 -41 -5 -50 -4 -51 9 0
14 -1 14 -7 1 -4 -9 -21 -15 -42 -15 -36 0 -35 -1 -27 49 1 5 -10 10 -25 13
-16 2 -28 2 -29 1z m37 -40 c-11 -30 -21 -35 -32 -16 -5 7 -3 8 6 3 10 -6 12
-4 7 9 -8 21 -3 33 16 33 11 0 12 -6 3 -29z"/>
        <path d="M1845 210 c-3 -5 1 -10 9 -10 9 0 16 5 16 10 0 6 -4 10 -9 10 -6 0
-13 -4 -16 -10z"/>
        <path d="M1882 214 c3 -3 18 -7 34 -10 15 -3 31 -7 36 -10 4 -3 5 1 2 9 -3 8
-20 14 -41 15 -20 1 -33 -1 -31 -4z"/>
        <path d="M1965 210 c3 -5 8 -10 11 -10 2 0 4 5 4 10 0 6 -5 10 -11 10 -5 0 -7
-4 -4 -10z"/>
        <path d="M2001 211 c-23 -15 -5 -41 29 -41 25 0 30 4 30 23 0 24 -32 34 -59
18z"/>
        <path d="M1215 200 c-3 -5 -1 -10 4 -10 6 0 11 5 11 10 0 6 -2 10 -4 10 -3 0
-8 -4 -11 -10z"/>
        <path d="M605 170 c-3 -5 -4 -10 -1 -10 2 0 11 -3 20 -6 11 -4 16 -1 16 10 0
18 -25 22 -35 6z"/>
        <path d="M1035 162 c-3 -9 -3 -13 1 -9 4 4 13 -1 20 -11 10 -13 15 -14 24 -5
15 14 7 29 -19 36 -12 3 -22 -1 -26 -11z"/>
        <path d="M242 145 c0 -16 2 -22 5 -12 2 9 2 23 0 30 -3 6 -5 -1 -5 -18z"/>
        <path d="M1124 156 c-4 -9 -4 -20 0 -23 3 -4 12 -1 18 5 9 9 9 15 0 24 -9 9
-13 7 -18 -6z"/>
        <path d="M1195 150 c-4 -6 -11 -8 -16 -5 -5 4 -9 2 -9 -4 0 -5 8 -9 18 -8 10
0 19 7 19 14 0 16 -4 16 -12 3z"/>
        <path d="M1286 147 c3 -10 9 -15 12 -12 3 3 0 11 -7 18 -10 9 -11 8 -5 -6z"/>
        <path d="M1220 139 c0 -3 11 -6 25 -6 14 0 25 3 25 6 0 4 -11 7 -25 7 -14 0
-25 -3 -25 -7z"/>
        <path d="M261 98 c-1 -21 4 -28 17 -28 11 0 13 3 6 8 -7 4 -14 16 -17 27 -4
15 -5 14 -6 -7z"/>
        <path d="M310 88 c0 -13 7 -18 28 -17 21 1 22 2 7 6 -11 3 -23 10 -27 17 -5 7
-8 5 -8 -6z"/>
        <path d="M436 42 c-8 -34 -4 -47 11 -41 4 2 6 20 3 39 l-6 35 -8 -33z"/>
        <path d="M216 45 c-9 -24 4 -45 29 -45 27 0 36 17 23 43 -11 21 -44 23 -52 2z"/>
        <path d="M382 29 c-2 -21 1 -30 10 -27 15 5 17 50 3 55 -6 2 -12 -11 -13 -28z"/>
        <path d="M2677 42 c-5 -7 -13 -10 -18 -7 -5 4 -9 0 -9 -8 0 -16 21 -27 48 -27
11 0 13 3 6 8 -7 4 -13 16 -16 27 -2 14 -6 16 -11 7z"/>
        <path d="M2955 20 c3 -5 8 -10 11 -10 2 0 4 5 4 10 0 6 -5 10 -11 10 -5 0 -7
-4 -4 -10z"/>
        <path d="M2875 10 c3 -5 11 -10 16 -10 6 0 7 5 4 10 -3 6 -11 10 -16 10 -6 0
-7 -4 -4 -10z"/>
        <path d="M23 3 c9 -2 25 -2 35 0 9 3 1 5 -18 5 -19 0 -27 -2 -17 -5z"/>
        <path d="M2463 3 c9 -2 23 -2 30 0 6 3 -1 5 -18 5 -16 0 -22 -2 -12 -5z"/>
    </g>
</svg>
